{"glyphs":{"0":{"ha":1389,"x_min":0,"x_max":1215,"o":"m 347 174 l 868 174 l 868 347 l 1042 347 l 1042 521 l 1215 521 l 1215 1042 l 1042 1042 l 1042 1215 l 868 1215 l 868 1389 l 347 1389 l 347 1215 l 174 1215 l 174 1042 l 0 1042 l 0 521 l 174 521 l 174 347 l 347 347 l 347 174 m 521 347 l 521 521 l 347 521 l 347 1215 l 694 1215 l 694 1042 l 868 1042 l 868 347 l 521 347 "},"1":{"ha":1389,"x_min":174,"x_max":1215,"o":"m 174 174 l 1215 174 l 1215 347 l 868 347 l 868 1389 l 521 1389 l 521 1215 l 347 1215 l 347 1042 l 521 1042 l 521 347 l 174 347 l 174 174 "},"2":{"ha":1389,"x_min":0,"x_max":1215,"o":"m 0 174 l 1215 174 l 1215 347 l 521 347 l 521 521 l 868 521 l 868 694 l 1042 694 l 1042 868 l 1215 868 l 1215 1215 l 1042 1215 l 1042 1389 l 174 1389 l 174 1215 l 0 1215 l 0 1042 l 347 1042 l 347 1215 l 868 1215 l 868 1042 l 694 1042 l 694 868 l 347 868 l 347 694 l 174 694 l 174 521 l 0 521 l 0 174 "},"3":{"ha":1389,"x_min":0,"x_max":1215,"o":"m 174 174 l 1042 174 l 1042 347 l 1215 347 l 1215 694 l 1042 694 l 1042 868 l 868 868 l 868 1042 l 1042 1042 l 1042 1215 l 1215 1215 l 1215 1389 l 174 1389 l 174 1215 l 694 1215 l 694 1042 l 521 1042 l 521 868 l 347 868 l 347 694 l 868 694 l 868 347 l 347 347 l 347 521 l 0 521 l 0 347 l 174 347 l 174 174 "},"4":{"ha":1389,"x_min":0,"x_max":1215,"o":"m 694 174 l 1042 174 l 1042 521 l 1215 521 l 1215 694 l 1042 694 l 1042 1389 l 521 1389 l 521 1215 l 347 1215 l 347 1042 l 174 1042 l 174 868 l 0 868 l 0 521 l 694 521 l 694 174 m 347 694 l 347 868 l 521 868 l 521 1042 l 694 1042 l 694 694 l 347 694 "},"5":{"ha":1389,"x_min":0,"x_max":1215,"o":"m 174 174 l 1042 174 l 1042 347 l 1215 347 l 1215 868 l 1042 868 l 1042 1042 l 347 1042 l 347 1215 l 1042 1215 l 1042 1389 l 0 1389 l 0 868 l 868 868 l 868 347 l 347 347 l 347 521 l 0 521 l 0 347 l 174 347 l 174 174 "},"6":{"ha":1389,"x_min":0,"x_max":1215,"o":"m 174 174 l 1042 174 l 1042 347 l 1215 347 l 1215 694 l 1042 694 l 1042 868 l 347 868 l 347 1042 l 521 1042 l 521 1215 l 1042 1215 l 1042 1389 l 347 1389 l 347 1215 l 174 1215 l 174 1042 l 0 1042 l 0 347 l 174 347 l 174 174 m 347 347 l 347 694 l 868 694 l 868 347 l 347 347 "},"7":{"ha":1389,"x_min":0,"x_max":1215,"o":"m 347 174 l 694 174 l 694 694 l 868 694 l 868 868 l 1042 868 l 1042 1042 l 1215 1042 l 1215 1389 l 0 1389 l 0 1042 l 347 1042 l 347 1215 l 868 1215 l 868 1042 l 694 1042 l 694 868 l 521 868 l 521 694 l 347 694 l 347 174 "},"8":{"ha":1389,"x_min":0,"x_max":1215,"o":"m 174 174 l 1042 174 l 1042 347 l 1215 347 l 1215 694 l 868 694 l 868 868 l 1042 868 l 1042 1215 l 868 1215 l 868 1389 l 174 1389 l 174 1215 l 0 1215 l 0 868 l 174 868 l 174 694 l 0 694 l 0 347 l 174 347 l 174 174 m 521 868 l 521 1042 l 347 1042 l 347 1215 l 868 1215 l 868 868 l 521 868 m 174 347 l 174 694 l 521 694 l 521 521 l 868 521 l 868 347 l 174 347 "},"9":{"ha":1389,"x_min":0,"x_max":1215,"o":"m 174 174 l 868 174 l 868 347 l 1042 347 l 1042 521 l 1215 521 l 1215 1215 l 1042 1215 l 1042 1389 l 174 1389 l 174 1215 l 0 1215 l 0 868 l 174 868 l 174 694 l 868 694 l 868 521 l 694 521 l 694 347 l 174 347 l 174 174 m 347 868 l 347 1215 l 868 1215 l 868 868 l 347 868 "},"\u0000":{"ha":0,"x_min":0,"x_max":0,"o":""},"\r":{"ha":1389,"x_min":0,"x_max":0,"o":""}," ":{"ha":1389,"x_min":0,"x_max":0,"o":""},"A":{"ha":1389,"x_min":0,"x_max":1215,"o":"m 0 174 l 347 174 l 347 521 l 868 521 l 868 174 l 1215 174 l 1215 1042 l 1042 1042 l 1042 1215 l 868 1215 l 868 1389 l 347 1389 l 347 1215 l 174 1215 l 174 1042 l 0 1042 l 0 174 m 347 694 l 347 1042 l 521 1042 l 521 1215 l 694 1215 l 694 1042 l 868 1042 l 868 694 l 347 694 "},"Á":{"ha":1389,"x_min":0,"x_max":1215,"o":"m 868 1215 l 868 1389 l 694 1389 l 694 1215 l 868 1215 m 1215 694 l 1042 694 l 1042 868 l 868 868 l 868 1042 l 694 1042 l 694 1215 l 521 1215 l 521 1042 l 347 1042 l 347 868 l 174 868 l 174 694 l 0 694 l 0 174 l 347 174 l 347 347 l 868 347 l 868 174 l 1215 174 l 1215 694 m 868 694 l 868 521 l 347 521 l 347 694 l 521 694 l 521 868 l 694 868 l 694 694 l 868 694 "},"Ă":{"ha":1389,"x_min":0,"x_max":1215,"o":"m 347 1389 l 174 1389 l 174 1215 l 347 1215 l 347 1389 m 1042 1215 l 1042 1389 l 868 1389 l 868 1215 l 1042 1215 m 1215 694 l 1042 694 l 1042 868 l 868 868 l 868 1215 l 347 1215 l 347 868 l 174 868 l 174 694 l 0 694 l 0 174 l 347 174 l 347 347 l 868 347 l 868 174 l 1215 174 l 1215 694 m 868 694 l 868 521 l 347 521 l 347 694 l 521 694 l 521 868 l 694 868 l 694 694 l 868 694 "},"Â":{"ha":1389,"x_min":0,"x_max":1215,"o":"m 0 174 l 347 174 l 347 347 l 868 347 l 868 174 l 1215 174 l 1215 694 l 1042 694 l 1042 868 l 868 868 l 868 1042 l 1042 1042 l 1042 1215 l 868 1215 l 868 1389 l 347 1389 l 347 1215 l 174 1215 l 174 1042 l 347 1042 l 347 868 l 174 868 l 174 694 l 0 694 l 0 174 m 521 1042 l 521 1215 l 694 1215 l 694 1042 l 521 1042 m 347 521 l 347 694 l 521 694 l 521 868 l 694 868 l 694 694 l 868 694 l 868 521 l 347 521 "},"Ä":{"ha":1389,"x_min":0,"x_max":1215,"o":"m 174 1215 l 521 1215 l 521 1389 l 174 1389 l 174 1215 m 694 1215 l 1042 1215 l 1042 1389 l 694 1389 l 694 1215 m 0 174 l 347 174 l 347 347 l 868 347 l 868 174 l 1215 174 l 1215 694 l 1042 694 l 1042 868 l 868 868 l 868 1042 l 347 1042 l 347 868 l 174 868 l 174 694 l 0 694 l 0 174 m 347 521 l 347 694 l 521 694 l 521 868 l 694 868 l 694 694 l 868 694 l 868 521 l 347 521 "},"À":{"ha":1389,"x_min":0,"x_max":1215,"o":"m 521 1389 l 347 1389 l 347 1215 l 521 1215 l 521 1389 m 1215 694 l 1042 694 l 1042 868 l 868 868 l 868 1042 l 694 1042 l 694 1215 l 521 1215 l 521 1042 l 347 1042 l 347 868 l 174 868 l 174 694 l 0 694 l 0 174 l 347 174 l 347 347 l 868 347 l 868 174 l 1215 174 l 1215 694 m 868 694 l 868 521 l 347 521 l 347 694 l 521 694 l 521 868 l 694 868 l 694 694 l 868 694 "},"Ā":{"ha":1389,"x_min":0,"x_max":1215,"o":"m 174 1215 l 1042 1215 l 1042 1389 l 174 1389 l 174 1215 m 0 174 l 347 174 l 347 347 l 868 347 l 868 174 l 1215 174 l 1215 694 l 1042 694 l 1042 868 l 868 868 l 868 1042 l 347 1042 l 347 868 l 174 868 l 174 694 l 0 694 l 0 174 m 347 521 l 347 694 l 521 694 l 521 868 l 694 868 l 694 694 l 868 694 l 868 521 l 347 521 "},"Ą":{"ha":1389,"x_min":0,"x_max":1215,"o":"m 1215 1042 l 1042 1042 l 1042 1215 l 868 1215 l 868 1389 l 347 1389 l 347 1215 l 174 1215 l 174 1042 l 0 1042 l 0 521 l 347 521 l 347 694 l 868 694 l 868 347 l 1042 347 l 1042 521 l 1215 521 l 1215 1042 m 868 1042 l 868 868 l 347 868 l 347 1042 l 521 1042 l 521 1215 l 694 1215 l 694 1042 l 868 1042 m 694 347 l 694 174 l 868 174 l 868 347 l 694 347 m 868 0 l 1215 0 l 1215 174 l 868 174 l 868 0 "},"Å":{"ha":1389,"x_min":0,"x_max":1215,"o":"m 0 174 l 347 174 l 347 347 l 868 347 l 868 174 l 1215 174 l 1215 694 l 1042 694 l 1042 868 l 868 868 l 868 1215 l 694 1215 l 694 1389 l 521 1389 l 521 1215 l 347 1215 l 347 868 l 174 868 l 174 694 l 0 694 l 0 174 m 521 1042 l 521 1215 l 694 1215 l 694 1042 l 521 1042 m 347 521 l 347 694 l 521 694 l 521 868 l 694 868 l 694 694 l 868 694 l 868 521 l 347 521 "},"Ã":{"ha":1389,"x_min":0,"x_max":1215,"o":"m 1215 694 l 1042 694 l 1042 868 l 868 868 l 868 1215 l 694 1215 l 694 1389 l 347 1389 l 347 1215 l 521 1215 l 521 1042 l 347 1042 l 347 868 l 174 868 l 174 694 l 0 694 l 0 174 l 347 174 l 347 347 l 868 347 l 868 174 l 1215 174 l 1215 694 m 1042 1215 l 1042 1389 l 868 1389 l 868 1215 l 1042 1215 m 347 1215 l 174 1215 l 174 1042 l 347 1042 l 347 1215 m 868 694 l 868 521 l 347 521 l 347 694 l 521 694 l 521 868 l 694 868 l 694 694 l 868 694 "},"Æ":{"ha":1389,"x_min":0,"x_max":1215,"o":"m 0 174 l 347 174 l 347 521 l 521 521 l 521 174 l 1215 174 l 1215 347 l 868 347 l 868 694 l 1215 694 l 1215 868 l 868 868 l 868 1215 l 1215 1215 l 1215 1389 l 347 1389 l 347 1215 l 174 1215 l 174 1042 l 0 1042 l 0 174 m 347 694 l 347 1042 l 521 1042 l 521 694 l 347 694 "},"B":{"ha":1389,"x_min":0,"x_max":1215,"o":"m 0 174 l 1042 174 l 1042 347 l 1215 347 l 1215 694 l 1042 694 l 1042 868 l 1215 868 l 1215 1215 l 1042 1215 l 1042 1389 l 0 1389 l 0 174 m 347 868 l 347 1215 l 868 1215 l 868 868 l 347 868 m 347 347 l 347 694 l 868 694 l 868 347 l 347 347 "},"C":{"ha":1389,"x_min":0,"x_max":1215,"o":"m 347 174 l 1042 174 l 1042 347 l 1215 347 l 1215 521 l 868 521 l 868 347 l 521 347 l 521 521 l 347 521 l 347 1042 l 521 1042 l 521 1215 l 868 1215 l 868 1042 l 1215 1042 l 1215 1215 l 1042 1215 l 1042 1389 l 347 1389 l 347 1215 l 174 1215 l 174 1042 l 0 1042 l 0 521 l 174 521 l 174 347 l 347 347 l 347 174 "},"Ć":{"ha":1389,"x_min":0,"x_max":1215,"o":"m 868 1215 l 868 1389 l 694 1389 l 694 1215 l 868 1215 m 1215 868 l 1042 868 l 1042 1042 l 694 1042 l 694 1215 l 521 1215 l 521 1042 l 347 1042 l 347 868 l 174 868 l 174 694 l 0 694 l 0 521 l 174 521 l 174 347 l 347 347 l 347 174 l 1042 174 l 1042 347 l 1215 347 l 1215 521 l 868 521 l 868 347 l 521 347 l 521 521 l 347 521 l 347 694 l 521 694 l 521 868 l 868 868 l 868 694 l 1215 694 l 1215 868 "},"Č":{"ha":1389,"x_min":0,"x_max":1215,"o":"m 347 174 l 1042 174 l 1042 347 l 1215 347 l 1215 521 l 868 521 l 868 347 l 521 347 l 521 521 l 347 521 l 347 694 l 521 694 l 521 868 l 868 868 l 868 694 l 1215 694 l 1215 868 l 1042 868 l 1042 1215 l 1215 1215 l 1215 1389 l 868 1389 l 868 1215 l 521 1215 l 521 1389 l 174 1389 l 174 1215 l 347 1215 l 347 868 l 174 868 l 174 694 l 0 694 l 0 521 l 174 521 l 174 347 l 347 347 l 347 174 "},"Ç":{"ha":1389,"x_min":0,"x_max":1215,"o":"m 1215 1215 l 1042 1215 l 1042 1389 l 347 1389 l 347 1215 l 174 1215 l 174 1042 l 0 1042 l 0 694 l 174 694 l 174 521 l 347 521 l 347 347 l 694 347 l 694 174 l 868 174 l 868 347 l 1042 347 l 1042 521 l 1215 521 l 1215 694 l 868 694 l 868 521 l 521 521 l 521 694 l 347 694 l 347 1042 l 521 1042 l 521 1215 l 868 1215 l 868 1042 l 1215 1042 l 1215 1215 m 347 174 l 347 0 l 694 0 l 694 174 l 347 174 "},"Ĉ":{"ha":1389,"x_min":0,"x_max":1215,"o":"m 347 174 l 1042 174 l 1042 347 l 1215 347 l 1215 521 l 868 521 l 868 347 l 521 347 l 521 521 l 347 521 l 347 694 l 521 694 l 521 868 l 868 868 l 868 694 l 1215 694 l 1215 868 l 1042 868 l 1042 1215 l 868 1215 l 868 1389 l 347 1389 l 347 1215 l 174 1215 l 174 1042 l 347 1042 l 347 868 l 174 868 l 174 694 l 0 694 l 0 521 l 174 521 l 174 347 l 347 347 l 347 174 m 521 1042 l 521 1215 l 694 1215 l 694 1042 l 521 1042 "},"Ċ":{"ha":1389,"x_min":0,"x_max":1215,"o":"m 521 1215 l 868 1215 l 868 1389 l 521 1389 l 521 1215 m 347 174 l 1042 174 l 1042 347 l 1215 347 l 1215 521 l 868 521 l 868 347 l 521 347 l 521 521 l 347 521 l 347 694 l 521 694 l 521 868 l 868 868 l 868 694 l 1215 694 l 1215 868 l 1042 868 l 1042 1042 l 347 1042 l 347 868 l 174 868 l 174 694 l 0 694 l 0 521 l 174 521 l 174 347 l 347 347 l 347 174 "},"D":{"ha":1389,"x_min":0,"x_max":1215,"o":"m 0 174 l 868 174 l 868 347 l 1042 347 l 1042 521 l 1215 521 l 1215 1042 l 1042 1042 l 1042 1215 l 868 1215 l 868 1389 l 0 1389 l 0 174 m 347 347 l 347 1215 l 694 1215 l 694 1042 l 868 1042 l 868 521 l 694 521 l 694 347 l 347 347 "},"Ð":{"ha":1389,"x_min":0,"x_max":1215,"o":"m 174 174 l 868 174 l 868 347 l 1042 347 l 1042 521 l 1215 521 l 1215 1042 l 1042 1042 l 1042 1215 l 868 1215 l 868 1389 l 174 1389 l 174 868 l 0 868 l 0 694 l 174 694 l 174 174 m 521 347 l 521 694 l 694 694 l 694 868 l 521 868 l 521 1215 l 694 1215 l 694 1042 l 868 1042 l 868 521 l 694 521 l 694 347 l 521 347 "},"Ď":{"ha":1389,"x_min":0,"x_max":1215,"o":"m 0 174 l 868 174 l 868 347 l 1042 347 l 1042 521 l 1215 521 l 1215 694 l 1042 694 l 1042 868 l 868 868 l 868 1215 l 1042 1215 l 1042 1389 l 694 1389 l 694 1215 l 521 1215 l 521 1389 l 174 1389 l 174 1215 l 347 1215 l 347 1042 l 0 1042 l 0 174 m 347 347 l 347 868 l 694 868 l 694 694 l 868 694 l 868 521 l 694 521 l 694 347 l 347 347 "},"Đ":{"ha":1389,"x_min":0,"x_max":1215,"o":"m 174 174 l 868 174 l 868 347 l 1042 347 l 1042 521 l 1215 521 l 1215 1042 l 1042 1042 l 1042 1215 l 868 1215 l 868 1389 l 174 1389 l 174 868 l 0 868 l 0 694 l 174 694 l 174 174 m 521 347 l 521 694 l 694 694 l 694 868 l 521 868 l 521 1215 l 694 1215 l 694 1042 l 868 1042 l 868 521 l 694 521 l 694 347 l 521 347 "},"E":{"ha":1389,"x_min":0,"x_max":1215,"o":"m 0 174 l 1215 174 l 1215 347 l 347 347 l 347 694 l 1042 694 l 1042 868 l 347 868 l 347 1215 l 1215 1215 l 1215 1389 l 0 1389 l 0 174 "},"É":{"ha":1389,"x_min":0,"x_max":1215,"o":"m 868 1215 l 868 1389 l 694 1389 l 694 1215 l 868 1215 m 1215 1042 l 694 1042 l 694 1215 l 521 1215 l 521 1042 l 0 1042 l 0 174 l 1215 174 l 1215 347 l 347 347 l 347 521 l 1042 521 l 1042 694 l 347 694 l 347 868 l 1215 868 l 1215 1042 "},"Ĕ":{"ha":1389,"x_min":0,"x_max":1215,"o":"m 347 1389 l 174 1389 l 174 1215 l 347 1215 l 347 1389 m 1042 1215 l 1042 1389 l 868 1389 l 868 1215 l 1042 1215 m 1215 1042 l 868 1042 l 868 1215 l 347 1215 l 347 1042 l 0 1042 l 0 174 l 1215 174 l 1215 347 l 347 347 l 347 521 l 1042 521 l 1042 694 l 347 694 l 347 868 l 1215 868 l 1215 1042 "},"Ě":{"ha":1389,"x_min":0,"x_max":1215,"o":"m 0 174 l 1215 174 l 1215 347 l 347 347 l 347 521 l 1042 521 l 1042 694 l 347 694 l 347 868 l 1215 868 l 1215 1042 l 868 1042 l 868 1215 l 1042 1215 l 1042 1389 l 694 1389 l 694 1215 l 521 1215 l 521 1389 l 174 1389 l 174 1215 l 347 1215 l 347 1042 l 0 1042 l 0 174 "},"Ê":{"ha":1389,"x_min":0,"x_max":1215,"o":"m 0 174 l 1215 174 l 1215 347 l 347 347 l 347 521 l 1042 521 l 1042 694 l 347 694 l 347 868 l 1215 868 l 1215 1042 l 1042 1042 l 1042 1215 l 868 1215 l 868 1389 l 347 1389 l 347 1215 l 174 1215 l 174 1042 l 0 1042 l 0 174 m 521 1042 l 521 1215 l 694 1215 l 694 1042 l 521 1042 "},"Ë":{"ha":1389,"x_min":0,"x_max":1215,"o":"m 174 1215 l 521 1215 l 521 1389 l 174 1389 l 174 1215 m 694 1215 l 1042 1215 l 1042 1389 l 694 1389 l 694 1215 m 0 174 l 1215 174 l 1215 347 l 347 347 l 347 521 l 1042 521 l 1042 694 l 347 694 l 347 868 l 1215 868 l 1215 1042 l 0 1042 l 0 174 "},"Ė":{"ha":1389,"x_min":0,"x_max":1215,"o":"m 521 1215 l 868 1215 l 868 1389 l 521 1389 l 521 1215 m 0 174 l 1215 174 l 1215 347 l 347 347 l 347 521 l 1042 521 l 1042 694 l 347 694 l 347 868 l 1215 868 l 1215 1042 l 0 1042 l 0 174 "},"È":{"ha":1389,"x_min":0,"x_max":1215,"o":"m 521 1389 l 347 1389 l 347 1215 l 521 1215 l 521 1389 m 1215 1042 l 694 1042 l 694 1215 l 521 1215 l 521 1042 l 0 1042 l 0 174 l 1215 174 l 1215 347 l 347 347 l 347 521 l 1042 521 l 1042 694 l 347 694 l 347 868 l 1215 868 l 1215 1042 "},"Ē":{"ha":1389,"x_min":0,"x_max":1215,"o":"m 174 1215 l 1042 1215 l 1042 1389 l 174 1389 l 174 1215 m 0 174 l 1215 174 l 1215 347 l 347 347 l 347 521 l 1042 521 l 1042 694 l 347 694 l 347 868 l 1215 868 l 1215 1042 l 0 1042 l 0 174 "},"Ę":{"ha":1389,"x_min":0,"x_max":1215,"o":"m 1215 1389 l 0 1389 l 0 521 l 521 521 l 521 347 l 694 347 l 694 521 l 1215 521 l 1215 694 l 347 694 l 347 868 l 1042 868 l 1042 1042 l 347 1042 l 347 1215 l 1215 1215 l 1215 1389 m 347 347 l 347 174 l 521 174 l 521 347 l 347 347 m 521 0 l 868 0 l 868 174 l 521 174 l 521 0 "},"F":{"ha":1389,"x_min":0,"x_max":1215,"o":"m 0 174 l 347 174 l 347 694 l 1042 694 l 1042 868 l 347 868 l 347 1215 l 1215 1215 l 1215 1389 l 0 1389 l 0 174 "},"G":{"ha":1389,"x_min":0,"x_max":1215,"o":"m 347 174 l 1215 174 l 1215 868 l 694 868 l 694 694 l 868 694 l 868 347 l 521 347 l 521 521 l 347 521 l 347 1042 l 521 1042 l 521 1215 l 1215 1215 l 1215 1389 l 347 1389 l 347 1215 l 174 1215 l 174 1042 l 0 1042 l 0 521 l 174 521 l 174 347 l 347 347 l 347 174 "},"Ğ":{"ha":1389,"x_min":0,"x_max":1215,"o":"m 347 1389 l 174 1389 l 174 1215 l 347 1215 l 347 1389 m 1042 1215 l 1042 1389 l 868 1389 l 868 1215 l 1042 1215 m 1215 1042 l 868 1042 l 868 1215 l 347 1215 l 347 1042 l 174 1042 l 174 868 l 0 868 l 0 347 l 174 347 l 174 174 l 1215 174 l 1215 694 l 694 694 l 694 521 l 868 521 l 868 347 l 347 347 l 347 868 l 1215 868 l 1215 1042 "},"Ĝ":{"ha":1389,"x_min":0,"x_max":1215,"o":"m 174 174 l 1215 174 l 1215 694 l 694 694 l 694 521 l 868 521 l 868 347 l 347 347 l 347 868 l 1215 868 l 1215 1042 l 1042 1042 l 1042 1215 l 868 1215 l 868 1389 l 347 1389 l 347 1215 l 174 1215 l 174 868 l 0 868 l 0 347 l 174 347 l 174 174 m 521 1042 l 521 1215 l 694 1215 l 694 1042 l 521 1042 "},"Ģ":{"ha":1389,"x_min":0,"x_max":1215,"o":"m 347 0 l 694 0 l 694 174 l 868 174 l 868 347 l 1215 347 l 1215 868 l 694 868 l 694 694 l 868 694 l 868 521 l 521 521 l 521 694 l 347 694 l 347 1042 l 521 1042 l 521 1215 l 1215 1215 l 1215 1389 l 347 1389 l 347 1215 l 174 1215 l 174 1042 l 0 1042 l 0 694 l 174 694 l 174 521 l 347 521 l 347 347 l 521 347 l 521 174 l 347 174 l 347 0 "},"Ġ":{"ha":1389,"x_min":0,"x_max":1215,"o":"m 521 1215 l 868 1215 l 868 1389 l 521 1389 l 521 1215 m 174 174 l 1215 174 l 1215 694 l 694 694 l 694 521 l 868 521 l 868 347 l 347 347 l 347 868 l 1215 868 l 1215 1042 l 174 1042 l 174 868 l 0 868 l 0 347 l 174 347 l 174 174 "},"H":{"ha":1389,"x_min":0,"x_max":1215,"o":"m 0 174 l 347 174 l 347 694 l 868 694 l 868 174 l 1215 174 l 1215 1389 l 868 1389 l 868 868 l 347 868 l 347 1389 l 0 1389 l 0 174 "},"Ħ":{"ha":1389,"x_min":0,"x_max":1215,"o":"m 0 174 l 347 174 l 347 694 l 868 694 l 868 174 l 1215 174 l 1215 1389 l 868 1389 l 868 1215 l 347 1215 l 347 1389 l 0 1389 l 0 174 m 347 868 l 347 1042 l 868 1042 l 868 868 l 347 868 "},"Ĥ":{"ha":1389,"x_min":0,"x_max":1215,"o":"m 0 174 l 347 174 l 347 521 l 868 521 l 868 174 l 1215 174 l 1215 1215 l 868 1215 l 868 1389 l 347 1389 l 347 1215 l 0 1215 l 0 174 m 347 694 l 347 1042 l 521 1042 l 521 1215 l 694 1215 l 694 1042 l 868 1042 l 868 694 l 347 694 "},"I":{"ha":1389,"x_min":174,"x_max":1215,"o":"m 174 174 l 1215 174 l 1215 347 l 868 347 l 868 1215 l 1215 1215 l 1215 1389 l 174 1389 l 174 1215 l 521 1215 l 521 347 l 174 347 l 174 174 "},"Ĳ":{"ha":1389,"x_min":0,"x_max":1215,"o":"m 0 521 l 694 521 l 694 694 l 521 694 l 521 1215 l 694 1215 l 694 1389 l 0 1389 l 0 1215 l 174 1215 l 174 694 l 0 694 l 0 521 m 174 174 l 1042 174 l 1042 347 l 1215 347 l 1215 1389 l 868 1389 l 868 347 l 174 347 l 174 174 "},"Í":{"ha":1389,"x_min":174,"x_max":1215,"o":"m 868 1215 l 868 1389 l 694 1389 l 694 1215 l 868 1215 m 1215 1042 l 694 1042 l 694 1215 l 521 1215 l 521 1042 l 174 1042 l 174 868 l 521 868 l 521 347 l 174 347 l 174 174 l 1215 174 l 1215 347 l 868 347 l 868 868 l 1215 868 l 1215 1042 "},"Ĭ":{"ha":1389,"x_min":174,"x_max":1215,"o":"m 521 1389 l 347 1389 l 347 1215 l 521 1215 l 521 1389 m 1042 1215 l 1042 1389 l 868 1389 l 868 1215 l 1042 1215 m 1215 1042 l 868 1042 l 868 1215 l 521 1215 l 521 1042 l 174 1042 l 174 868 l 521 868 l 521 347 l 174 347 l 174 174 l 1215 174 l 1215 347 l 868 347 l 868 868 l 1215 868 l 1215 1042 "},"Î":{"ha":1389,"x_min":174,"x_max":1215,"o":"m 174 174 l 1215 174 l 1215 347 l 868 347 l 868 868 l 1215 868 l 1215 1042 l 1042 1042 l 1042 1215 l 868 1215 l 868 1389 l 521 1389 l 521 1215 l 347 1215 l 347 1042 l 174 1042 l 174 868 l 521 868 l 521 347 l 174 347 l 174 174 "},"Ï":{"ha":1389,"x_min":174,"x_max":1215,"o":"m 174 1215 l 521 1215 l 521 1389 l 174 1389 l 174 1215 m 868 1215 l 1215 1215 l 1215 1389 l 868 1389 l 868 1215 m 174 174 l 1215 174 l 1215 347 l 868 347 l 868 868 l 1215 868 l 1215 1042 l 174 1042 l 174 868 l 521 868 l 521 347 l 174 347 l 174 174 "},"İ":{"ha":1389,"x_min":174,"x_max":1215,"o":"m 521 1215 l 868 1215 l 868 1389 l 521 1389 l 521 1215 m 174 174 l 1215 174 l 1215 347 l 868 347 l 868 868 l 1215 868 l 1215 1042 l 174 1042 l 174 868 l 521 868 l 521 347 l 174 347 l 174 174 "},"Ì":{"ha":1389,"x_min":174,"x_max":1215,"o":"m 694 1389 l 521 1389 l 521 1215 l 694 1215 l 694 1389 m 1215 1042 l 868 1042 l 868 1215 l 694 1215 l 694 1042 l 174 1042 l 174 868 l 521 868 l 521 347 l 174 347 l 174 174 l 1215 174 l 1215 347 l 868 347 l 868 868 l 1215 868 l 1215 1042 "},"Ī":{"ha":1389,"x_min":174,"x_max":1215,"o":"m 174 1215 l 1215 1215 l 1215 1389 l 174 1389 l 174 1215 m 174 174 l 1215 174 l 1215 347 l 868 347 l 868 868 l 1215 868 l 1215 1042 l 174 1042 l 174 868 l 521 868 l 521 347 l 174 347 l 174 174 "},"Į":{"ha":1389,"x_min":174,"x_max":1215,"o":"m 1215 1389 l 174 1389 l 174 1215 l 521 1215 l 521 694 l 174 694 l 174 521 l 521 521 l 521 347 l 694 347 l 694 521 l 1215 521 l 1215 694 l 868 694 l 868 1215 l 1215 1215 l 1215 1389 m 347 347 l 347 174 l 521 174 l 521 347 l 347 347 m 521 0 l 868 0 l 868 174 l 521 174 l 521 0 "},"Ĩ":{"ha":1389,"x_min":174,"x_max":1215,"o":"m 694 1215 l 694 1389 l 347 1389 l 347 1215 l 694 1215 m 1215 1389 l 1042 1389 l 1042 1215 l 1215 1215 l 1215 1389 m 694 1215 l 694 1042 l 347 1042 l 347 1215 l 174 1215 l 174 868 l 521 868 l 521 347 l 174 347 l 174 174 l 1215 174 l 1215 347 l 868 347 l 868 868 l 1215 868 l 1215 1042 l 1042 1042 l 1042 1215 l 694 1215 "},"J":{"ha":1389,"x_min":0,"x_max":1215,"o":"m 174 174 l 1042 174 l 1042 347 l 1215 347 l 1215 1389 l 868 1389 l 868 347 l 347 347 l 347 521 l 0 521 l 0 347 l 174 347 l 174 174 "},"Ĵ":{"ha":1389,"x_min":0,"x_max":1215,"o":"m 174 174 l 1042 174 l 1042 347 l 1215 347 l 1215 1215 l 1042 1215 l 1042 1389 l 521 1389 l 521 1215 l 347 1215 l 347 1042 l 694 1042 l 694 1215 l 868 1215 l 868 347 l 347 347 l 347 521 l 0 521 l 0 347 l 174 347 l 174 174 "},"K":{"ha":1389,"x_min":0,"x_max":1215,"o":"m 0 174 l 347 174 l 347 521 l 521 521 l 521 347 l 694 347 l 694 174 l 1215 174 l 1215 347 l 1042 347 l 1042 521 l 868 521 l 868 694 l 694 694 l 694 868 l 868 868 l 868 1042 l 1042 1042 l 1042 1215 l 1215 1215 l 1215 1389 l 868 1389 l 868 1215 l 694 1215 l 694 1042 l 521 1042 l 521 868 l 347 868 l 347 1389 l 0 1389 l 0 174 "},"Ķ":{"ha":1389,"x_min":0,"x_max":1215,"o":"m 174 0 l 521 0 l 521 174 l 694 174 l 694 347 l 1215 347 l 1215 521 l 1042 521 l 1042 694 l 868 694 l 868 868 l 694 868 l 694 1042 l 868 1042 l 868 1215 l 1042 1215 l 1042 1389 l 694 1389 l 694 1215 l 521 1215 l 521 1042 l 347 1042 l 347 1389 l 0 1389 l 0 347 l 347 347 l 347 174 l 174 174 l 174 0 m 347 347 l 347 694 l 521 694 l 521 521 l 694 521 l 694 347 l 347 347 "},"L":{"ha":1389,"x_min":174,"x_max":1215,"o":"m 174 174 l 1215 174 l 1215 347 l 521 347 l 521 1389 l 174 1389 l 174 174 "},"Ĺ":{"ha":1389,"x_min":174,"x_max":1215,"o":"m 868 1215 l 868 1389 l 694 1389 l 694 1215 l 868 1215 m 1215 347 l 521 347 l 521 1042 l 694 1042 l 694 1215 l 174 1215 l 174 174 l 1215 174 l 1215 347 "},"Ľ":{"ha":1389,"x_min":174,"x_max":1215,"o":"m 174 174 l 1215 174 l 1215 347 l 521 347 l 521 1389 l 174 1389 l 174 174 m 868 868 l 1042 868 l 1042 1042 l 1215 1042 l 1215 1389 l 868 1389 l 868 868 "},"Ļ":{"ha":1389,"x_min":174,"x_max":1215,"o":"m 347 0 l 694 0 l 694 174 l 868 174 l 868 347 l 1215 347 l 1215 521 l 521 521 l 521 1389 l 174 1389 l 174 347 l 521 347 l 521 174 l 347 174 l 347 0 "},"Ŀ":{"ha":1389,"x_min":174,"x_max":1215,"o":"m 174 174 l 1215 174 l 1215 347 l 521 347 l 521 1389 l 174 1389 l 174 174 m 694 694 l 1042 694 l 1042 1042 l 694 1042 l 694 694 "},"Ł":{"ha":1389,"x_min":0,"x_max":1215,"o":"m 174 174 l 1215 174 l 1215 347 l 521 347 l 521 868 l 694 868 l 694 1042 l 521 1042 l 521 1389 l 174 1389 l 174 868 l 0 868 l 0 694 l 174 694 l 174 174 "},"M":{"ha":1389,"x_min":0,"x_max":1215,"o":"m 0 174 l 347 174 l 347 868 l 521 868 l 521 521 l 694 521 l 694 868 l 868 868 l 868 174 l 1215 174 l 1215 1389 l 868 1389 l 868 1215 l 694 1215 l 694 1042 l 521 1042 l 521 1215 l 347 1215 l 347 1389 l 0 1389 l 0 174 "},"N":{"ha":1389,"x_min":0,"x_max":1215,"o":"m 0 174 l 347 174 l 347 868 l 521 868 l 521 694 l 694 694 l 694 521 l 868 521 l 868 174 l 1215 174 l 1215 1389 l 868 1389 l 868 868 l 694 868 l 694 1042 l 521 1042 l 521 1215 l 347 1215 l 347 1389 l 0 1389 l 0 174 "},"Ń":{"ha":1389,"x_min":0,"x_max":1215,"o":"m 868 1215 l 868 1389 l 694 1389 l 694 1215 l 868 1215 m 694 1042 l 694 1215 l 521 1215 l 521 1042 l 694 1042 m 1215 1042 l 868 1042 l 868 694 l 694 694 l 694 868 l 521 868 l 521 1042 l 0 1042 l 0 174 l 347 174 l 347 521 l 521 521 l 521 347 l 694 347 l 694 174 l 1215 174 l 1215 1042 "},"Ň":{"ha":1389,"x_min":0,"x_max":1215,"o":"m 1215 1042 l 868 1042 l 868 694 l 694 694 l 694 868 l 521 868 l 521 1042 l 868 1042 l 868 1215 l 1042 1215 l 1042 1389 l 694 1389 l 694 1215 l 521 1215 l 521 1389 l 174 1389 l 174 1215 l 347 1215 l 347 1042 l 0 1042 l 0 174 l 347 174 l 347 521 l 521 521 l 521 347 l 694 347 l 694 174 l 1215 174 l 1215 1042 "},"Ņ":{"ha":1389,"x_min":0,"x_max":1215,"o":"m 1215 1389 l 868 1389 l 868 1042 l 694 1042 l 694 1215 l 521 1215 l 521 1389 l 0 1389 l 0 347 l 347 347 l 347 868 l 521 868 l 521 694 l 694 694 l 694 521 l 868 521 l 868 347 l 1215 347 l 1215 1389 m 521 347 l 521 174 l 347 174 l 347 0 l 694 0 l 694 174 l 868 174 l 868 347 l 521 347 "},"Ŋ":{"ha":1389,"x_min":0,"x_max":1215,"o":"m 347 0 l 1042 0 l 1042 174 l 1215 174 l 1215 1389 l 868 1389 l 868 1042 l 694 1042 l 694 1215 l 521 1215 l 521 1389 l 0 1389 l 0 347 l 347 347 l 347 868 l 521 868 l 521 694 l 694 694 l 694 521 l 868 521 l 868 174 l 347 174 l 347 0 "},"Ñ":{"ha":1389,"x_min":0,"x_max":1215,"o":"m 521 1215 l 521 1042 l 868 1042 l 868 1215 l 694 1215 l 694 1389 l 347 1389 l 347 1215 l 521 1215 m 1042 1215 l 1042 1389 l 868 1389 l 868 1215 l 1042 1215 m 1215 1042 l 868 1042 l 868 694 l 694 694 l 694 868 l 521 868 l 521 1042 l 347 1042 l 347 1215 l 174 1215 l 174 1042 l 0 1042 l 0 174 l 347 174 l 347 521 l 521 521 l 521 347 l 694 347 l 694 174 l 1215 174 l 1215 1042 "},"O":{"ha":1389,"x_min":0,"x_max":1215,"o":"m 174 174 l 1042 174 l 1042 347 l 1215 347 l 1215 1215 l 1042 1215 l 1042 1389 l 174 1389 l 174 1215 l 0 1215 l 0 347 l 174 347 l 174 174 m 347 347 l 347 1215 l 868 1215 l 868 347 l 347 347 "},"Ó":{"ha":1389,"x_min":0,"x_max":1215,"o":"m 868 1215 l 868 1389 l 694 1389 l 694 1215 l 868 1215 m 1215 868 l 1042 868 l 1042 1042 l 694 1042 l 694 1215 l 521 1215 l 521 1042 l 174 1042 l 174 868 l 0 868 l 0 347 l 174 347 l 174 174 l 1042 174 l 1042 347 l 1215 347 l 1215 868 m 868 868 l 868 347 l 347 347 l 347 868 l 868 868 "},"Ŏ":{"ha":1389,"x_min":0,"x_max":1215,"o":"m 347 1389 l 174 1389 l 174 1215 l 347 1215 l 347 1389 m 1042 1215 l 1042 1389 l 868 1389 l 868 1215 l 1042 1215 m 1215 868 l 1042 868 l 1042 1042 l 868 1042 l 868 1215 l 347 1215 l 347 1042 l 174 1042 l 174 868 l 0 868 l 0 347 l 174 347 l 174 174 l 1042 174 l 1042 347 l 1215 347 l 1215 868 m 868 868 l 868 347 l 347 347 l 347 868 l 868 868 "},"Ô":{"ha":1389,"x_min":0,"x_max":1215,"o":"m 174 174 l 1042 174 l 1042 347 l 1215 347 l 1215 868 l 1042 868 l 1042 1215 l 868 1215 l 868 1389 l 347 1389 l 347 1215 l 174 1215 l 174 868 l 0 868 l 0 347 l 174 347 l 174 174 m 521 1042 l 521 1215 l 694 1215 l 694 1042 l 521 1042 m 347 347 l 347 868 l 868 868 l 868 347 l 347 347 "},"Ö":{"ha":1389,"x_min":0,"x_max":1215,"o":"m 174 1215 l 521 1215 l 521 1389 l 174 1389 l 174 1215 m 694 1215 l 1042 1215 l 1042 1389 l 694 1389 l 694 1215 m 174 174 l 1042 174 l 1042 347 l 1215 347 l 1215 868 l 1042 868 l 1042 1042 l 174 1042 l 174 868 l 0 868 l 0 347 l 174 347 l 174 174 m 347 347 l 347 868 l 868 868 l 868 347 l 347 347 "},"Ò":{"ha":1389,"x_min":0,"x_max":1215,"o":"m 521 1389 l 347 1389 l 347 1215 l 521 1215 l 521 1389 m 1215 868 l 1042 868 l 1042 1042 l 694 1042 l 694 1215 l 521 1215 l 521 1042 l 174 1042 l 174 868 l 0 868 l 0 347 l 174 347 l 174 174 l 1042 174 l 1042 347 l 1215 347 l 1215 868 m 868 868 l 868 347 l 347 347 l 347 868 l 868 868 "},"Ő":{"ha":1389,"x_min":0,"x_max":1215,"o":"m 521 1215 l 521 1389 l 347 1389 l 347 1215 l 521 1215 m 1042 1215 l 1042 1389 l 868 1389 l 868 1215 l 1042 1215 m 1215 868 l 1042 868 l 1042 1042 l 868 1042 l 868 1215 l 694 1215 l 694 1042 l 347 1042 l 347 1215 l 174 1215 l 174 868 l 0 868 l 0 347 l 174 347 l 174 174 l 1042 174 l 1042 347 l 1215 347 l 1215 868 m 868 868 l 868 347 l 347 347 l 347 868 l 868 868 "},"Ō":{"ha":1389,"x_min":0,"x_max":1215,"o":"m 174 1215 l 1042 1215 l 1042 1389 l 174 1389 l 174 1215 m 174 174 l 1042 174 l 1042 347 l 1215 347 l 1215 868 l 1042 868 l 1042 1042 l 174 1042 l 174 868 l 0 868 l 0 347 l 174 347 l 174 174 m 347 347 l 347 868 l 868 868 l 868 347 l 347 347 "},"Ø":{"ha":1389,"x_min":0,"x_max":1215,"o":"m 174 174 l 1042 174 l 1042 347 l 1215 347 l 1215 1215 l 1042 1215 l 1042 1389 l 174 1389 l 174 1215 l 0 1215 l 0 347 l 174 347 l 174 174 m 347 347 l 347 521 l 521 521 l 521 694 l 347 694 l 347 1215 l 868 1215 l 868 1042 l 694 1042 l 694 868 l 868 868 l 868 347 l 347 347 m 521 694 l 694 694 l 694 868 l 521 868 l 521 694 "},"Õ":{"ha":1389,"x_min":0,"x_max":1215,"o":"m 174 174 l 1042 174 l 1042 347 l 1215 347 l 1215 868 l 1042 868 l 1042 1042 l 868 1042 l 868 1215 l 1042 1215 l 1042 1389 l 868 1389 l 868 1215 l 694 1215 l 694 1389 l 347 1389 l 347 1215 l 174 1215 l 174 868 l 0 868 l 0 347 l 174 347 l 174 174 m 347 1042 l 347 1215 l 521 1215 l 521 1042 l 347 1042 m 347 347 l 347 868 l 868 868 l 868 347 l 347 347 "},"Œ":{"ha":1389,"x_min":0,"x_max":1215,"o":"m 174 174 l 1215 174 l 1215 347 l 868 347 l 868 694 l 1215 694 l 1215 868 l 868 868 l 868 1215 l 1215 1215 l 1215 1389 l 174 1389 l 174 1215 l 0 1215 l 0 347 l 174 347 l 174 174 m 347 347 l 347 1215 l 521 1215 l 521 347 l 347 347 "},"P":{"ha":1389,"x_min":0,"x_max":1215,"o":"m 0 174 l 347 174 l 347 521 l 1042 521 l 1042 694 l 1215 694 l 1215 1215 l 1042 1215 l 1042 1389 l 0 1389 l 0 174 m 347 694 l 347 1215 l 868 1215 l 868 694 l 347 694 "},"Þ":{"ha":1389,"x_min":0,"x_max":1215,"o":"m 0 174 l 347 174 l 347 347 l 1042 347 l 1042 521 l 1215 521 l 1215 1042 l 1042 1042 l 1042 1215 l 347 1215 l 347 1389 l 0 1389 l 0 174 m 347 521 l 347 1042 l 868 1042 l 868 521 l 347 521 "},"Q":{"ha":1389,"x_min":0,"x_max":1215,"o":"m 1215 1215 l 1042 1215 l 1042 1389 l 174 1389 l 174 1215 l 0 1215 l 0 347 l 174 347 l 174 174 l 868 174 l 868 347 l 1042 347 l 1042 521 l 1215 521 l 1215 1215 m 868 1215 l 868 694 l 521 694 l 521 521 l 694 521 l 694 347 l 347 347 l 347 1215 l 868 1215 m 1042 174 l 1215 174 l 1215 347 l 1042 347 l 1042 174 "},"R":{"ha":1389,"x_min":0,"x_max":1215,"o":"m 0 174 l 347 174 l 347 521 l 521 521 l 521 347 l 694 347 l 694 174 l 1215 174 l 1215 347 l 1042 347 l 1042 521 l 868 521 l 868 694 l 1215 694 l 1215 1215 l 1042 1215 l 1042 1389 l 0 1389 l 0 174 m 347 694 l 347 1215 l 868 1215 l 868 868 l 694 868 l 694 694 l 347 694 "},"Ŕ":{"ha":1389,"x_min":0,"x_max":1215,"o":"m 868 1215 l 868 1389 l 694 1389 l 694 1215 l 868 1215 m 1215 868 l 1042 868 l 1042 1042 l 694 1042 l 694 1215 l 521 1215 l 521 1042 l 0 1042 l 0 174 l 347 174 l 347 521 l 521 521 l 521 347 l 694 347 l 694 174 l 1215 174 l 1215 347 l 1042 347 l 1042 521 l 868 521 l 868 694 l 1215 694 l 1215 868 m 694 868 l 694 694 l 347 694 l 347 868 l 694 868 "},"Ř":{"ha":1389,"x_min":0,"x_max":1215,"o":"m 521 1389 l 347 1389 l 347 1215 l 521 1215 l 521 1389 m 868 1215 l 868 1389 l 694 1389 l 694 1215 l 868 1215 m 1215 868 l 1042 868 l 1042 1042 l 694 1042 l 694 1215 l 521 1215 l 521 1042 l 0 1042 l 0 174 l 347 174 l 347 521 l 521 521 l 521 347 l 694 347 l 694 174 l 1215 174 l 1215 347 l 1042 347 l 1042 521 l 868 521 l 868 694 l 1215 694 l 1215 868 m 694 868 l 694 694 l 347 694 l 347 868 l 694 868 "},"Ŗ":{"ha":1389,"x_min":0,"x_max":1215,"o":"m 347 0 l 694 0 l 694 174 l 868 174 l 868 347 l 1215 347 l 1215 521 l 1042 521 l 1042 694 l 868 694 l 868 868 l 1215 868 l 1215 1215 l 1042 1215 l 1042 1389 l 0 1389 l 0 347 l 347 347 l 347 694 l 521 694 l 521 521 l 694 521 l 694 347 l 521 347 l 521 174 l 347 174 l 347 0 m 347 868 l 347 1215 l 868 1215 l 868 1042 l 694 1042 l 694 868 l 347 868 "},"S":{"ha":1389,"x_min":0,"x_max":1215,"o":"m 174 174 l 1042 174 l 1042 347 l 1215 347 l 1215 694 l 1042 694 l 1042 868 l 347 868 l 347 1215 l 868 1215 l 868 1042 l 1215 1042 l 1215 1215 l 1042 1215 l 1042 1389 l 174 1389 l 174 1215 l 0 1215 l 0 868 l 174 868 l 174 694 l 868 694 l 868 347 l 347 347 l 347 521 l 0 521 l 0 347 l 174 347 l 174 174 "},"Ś":{"ha":1389,"x_min":0,"x_max":1215,"o":"m 868 1215 l 868 1389 l 694 1389 l 694 1215 l 868 1215 m 1215 521 l 1042 521 l 1042 694 l 347 694 l 347 868 l 1042 868 l 1042 1042 l 694 1042 l 694 1215 l 521 1215 l 521 1042 l 174 1042 l 174 868 l 0 868 l 0 694 l 174 694 l 174 521 l 868 521 l 868 347 l 0 347 l 0 174 l 1042 174 l 1042 347 l 1215 347 l 1215 521 "},"Š":{"ha":1389,"x_min":0,"x_max":1215,"o":"m 0 174 l 1042 174 l 1042 347 l 1215 347 l 1215 521 l 1042 521 l 1042 694 l 347 694 l 347 868 l 1042 868 l 1042 1042 l 868 1042 l 868 1215 l 1042 1215 l 1042 1389 l 694 1389 l 694 1215 l 521 1215 l 521 1389 l 174 1389 l 174 1215 l 347 1215 l 347 1042 l 174 1042 l 174 868 l 0 868 l 0 694 l 174 694 l 174 521 l 868 521 l 868 347 l 0 347 l 0 174 "},"Ş":{"ha":1389,"x_min":0,"x_max":1215,"o":"m 1215 868 l 1042 868 l 1042 1042 l 347 1042 l 347 1215 l 1042 1215 l 1042 1389 l 174 1389 l 174 1215 l 0 1215 l 0 1042 l 174 1042 l 174 868 l 868 868 l 868 521 l 347 521 l 347 694 l 0 694 l 0 521 l 174 521 l 174 347 l 694 347 l 694 174 l 868 174 l 868 347 l 1042 347 l 1042 521 l 1215 521 l 1215 868 m 347 174 l 347 0 l 694 0 l 694 174 l 347 174 "},"Ŝ":{"ha":1389,"x_min":0,"x_max":1215,"o":"m 0 174 l 1042 174 l 1042 347 l 1215 347 l 1215 521 l 1042 521 l 1042 694 l 347 694 l 347 868 l 1042 868 l 1042 1215 l 868 1215 l 868 1389 l 347 1389 l 347 1215 l 174 1215 l 174 868 l 0 868 l 0 694 l 174 694 l 174 521 l 868 521 l 868 347 l 0 347 l 0 174 m 521 1042 l 521 1215 l 694 1215 l 694 1042 l 521 1042 "},"T":{"ha":1389,"x_min":174,"x_max":1215,"o":"m 521 174 l 868 174 l 868 1215 l 1215 1215 l 1215 1389 l 174 1389 l 174 1215 l 521 1215 l 521 174 "},"Ŧ":{"ha":1389,"x_min":174,"x_max":1215,"o":"m 521 174 l 868 174 l 868 694 l 1042 694 l 1042 868 l 868 868 l 868 1215 l 1215 1215 l 1215 1389 l 174 1389 l 174 1215 l 521 1215 l 521 694 l 347 694 l 347 521 l 521 521 l 521 174 "},"Ť":{"ha":1389,"x_min":174,"x_max":1215,"o":"m 521 1389 l 347 1389 l 347 1215 l 521 1215 l 521 1389 m 1042 1215 l 1042 1389 l 868 1389 l 868 1215 l 1042 1215 m 1215 1042 l 868 1042 l 868 1215 l 521 1215 l 521 1042 l 174 1042 l 174 868 l 521 868 l 521 174 l 868 174 l 868 868 l 1215 868 l 1215 1042 "},"Ț":{"ha":1389,"x_min":174,"x_max":1215,"o":"m 1215 1389 l 174 1389 l 174 1215 l 521 1215 l 521 347 l 694 347 l 694 174 l 868 174 l 868 1215 l 1215 1215 l 1215 1389 m 347 174 l 347 0 l 694 0 l 694 174 l 347 174 "},"U":{"ha":1389,"x_min":0,"x_max":1215,"o":"m 174 174 l 1042 174 l 1042 347 l 1215 347 l 1215 1389 l 868 1389 l 868 347 l 347 347 l 347 1389 l 0 1389 l 0 347 l 174 347 l 174 174 "},"Ú":{"ha":1389,"x_min":0,"x_max":1215,"o":"m 868 1215 l 868 1389 l 694 1389 l 694 1215 l 868 1215 m 694 1042 l 694 1215 l 521 1215 l 521 1042 l 694 1042 m 1215 1042 l 868 1042 l 868 347 l 347 347 l 347 1042 l 0 1042 l 0 347 l 174 347 l 174 174 l 1042 174 l 1042 347 l 1215 347 l 1215 1042 "},"Ŭ":{"ha":1389,"x_min":0,"x_max":1215,"o":"m 347 1389 l 174 1389 l 174 1215 l 347 1215 l 347 1389 m 1042 1215 l 1042 1389 l 868 1389 l 868 1215 l 1042 1215 m 868 1042 l 868 1215 l 347 1215 l 347 1042 l 868 1042 m 1215 1042 l 868 1042 l 868 347 l 347 347 l 347 1042 l 0 1042 l 0 347 l 174 347 l 174 174 l 1042 174 l 1042 347 l 1215 347 l 1215 1042 "},"Û":{"ha":1389,"x_min":0,"x_max":1215,"o":"m 174 1042 l 521 1042 l 521 1215 l 694 1215 l 694 1042 l 1042 1042 l 1042 1215 l 868 1215 l 868 1389 l 347 1389 l 347 1215 l 174 1215 l 174 1042 m 174 174 l 1042 174 l 1042 347 l 1215 347 l 1215 868 l 868 868 l 868 347 l 347 347 l 347 868 l 0 868 l 0 347 l 174 347 l 174 174 "},"Ü":{"ha":1389,"x_min":0,"x_max":1215,"o":"m 174 1215 l 521 1215 l 521 1389 l 174 1389 l 174 1215 m 694 1215 l 1042 1215 l 1042 1389 l 694 1389 l 694 1215 m 174 174 l 1042 174 l 1042 347 l 1215 347 l 1215 1042 l 868 1042 l 868 347 l 347 347 l 347 1042 l 0 1042 l 0 347 l 174 347 l 174 174 "},"Ù":{"ha":1389,"x_min":0,"x_max":1215,"o":"m 521 1215 l 521 1389 l 347 1389 l 347 1215 l 521 1215 m 521 1042 l 694 1042 l 694 1215 l 521 1215 l 521 1042 m 1215 1042 l 868 1042 l 868 347 l 347 347 l 347 1042 l 0 1042 l 0 347 l 174 347 l 174 174 l 1042 174 l 1042 347 l 1215 347 l 1215 1042 "},"Ű":{"ha":1389,"x_min":0,"x_max":1215,"o":"m 521 1215 l 521 1389 l 347 1389 l 347 1215 l 521 1215 m 1042 1215 l 1042 1389 l 868 1389 l 868 1215 l 1042 1215 m 1215 1042 l 868 1042 l 868 347 l 347 347 l 347 1215 l 174 1215 l 174 1042 l 0 1042 l 0 347 l 174 347 l 174 174 l 1042 174 l 1042 347 l 1215 347 l 1215 1042 m 868 1215 l 694 1215 l 694 1042 l 868 1042 l 868 1215 "},"Ū":{"ha":1389,"x_min":0,"x_max":1215,"o":"m 174 1215 l 1042 1215 l 1042 1389 l 174 1389 l 174 1215 m 174 174 l 1042 174 l 1042 347 l 1215 347 l 1215 1042 l 868 1042 l 868 347 l 347 347 l 347 1042 l 0 1042 l 0 347 l 174 347 l 174 174 "},"Ų":{"ha":1389,"x_min":0,"x_max":1215,"o":"m 1215 1389 l 868 1389 l 868 694 l 347 694 l 347 1389 l 0 1389 l 0 694 l 174 694 l 174 521 l 521 521 l 521 347 l 694 347 l 694 521 l 1042 521 l 1042 694 l 1215 694 l 1215 1389 m 347 347 l 347 174 l 521 174 l 521 347 l 347 347 m 521 0 l 868 0 l 868 174 l 521 174 l 521 0 "},"Ů":{"ha":1389,"x_min":0,"x_max":1215,"o":"m 174 174 l 1042 174 l 1042 347 l 1215 347 l 1215 1042 l 1042 1042 l 1042 1215 l 868 1215 l 868 1389 l 347 1389 l 347 1215 l 174 1215 l 174 1042 l 0 1042 l 0 347 l 174 347 l 174 174 m 521 1042 l 521 1215 l 694 1215 l 694 1042 l 521 1042 m 347 347 l 347 868 l 174 868 l 174 1042 l 347 1042 l 347 868 l 868 868 l 868 1042 l 1042 1042 l 1042 868 l 868 868 l 868 347 l 347 347 "},"Ũ":{"ha":1389,"x_min":0,"x_max":1215,"o":"m 521 1215 l 521 1042 l 868 1042 l 868 1215 l 694 1215 l 694 1389 l 347 1389 l 347 1215 l 521 1215 m 1042 1215 l 1042 1389 l 868 1389 l 868 1215 l 1042 1215 m 1215 1042 l 868 1042 l 868 347 l 347 347 l 347 1215 l 174 1215 l 174 1042 l 0 1042 l 0 347 l 174 347 l 174 174 l 1042 174 l 1042 347 l 1215 347 l 1215 1042 "},"V":{"ha":1389,"x_min":0,"x_max":1215,"o":"m 521 174 l 694 174 l 694 347 l 868 347 l 868 521 l 1042 521 l 1042 694 l 1215 694 l 1215 1389 l 868 1389 l 868 868 l 694 868 l 694 694 l 521 694 l 521 868 l 347 868 l 347 1389 l 0 1389 l 0 694 l 174 694 l 174 521 l 347 521 l 347 347 l 521 347 l 521 174 "},"W":{"ha":1389,"x_min":0,"x_max":1215,"o":"m 174 174 l 347 174 l 347 347 l 521 347 l 521 521 l 694 521 l 694 347 l 868 347 l 868 174 l 1042 174 l 1042 347 l 1215 347 l 1215 1389 l 868 1389 l 868 694 l 694 694 l 694 1389 l 521 1389 l 521 694 l 347 694 l 347 1389 l 0 1389 l 0 347 l 174 347 l 174 174 "},"Ŵ":{"ha":1389,"x_min":0,"x_max":1215,"o":"m 0 174 l 521 174 l 521 347 l 694 347 l 694 174 l 1215 174 l 1215 1042 l 1042 1042 l 1042 1215 l 868 1215 l 868 1389 l 347 1389 l 347 1215 l 174 1215 l 174 1042 l 0 1042 l 0 174 m 347 694 l 347 1042 l 521 1042 l 521 1215 l 694 1215 l 694 1042 l 868 1042 l 868 694 l 694 694 l 694 868 l 521 868 l 521 694 l 347 694 "},"X":{"ha":1389,"x_min":0,"x_max":1215,"o":"m 0 174 l 347 174 l 347 521 l 521 521 l 521 694 l 694 694 l 694 521 l 868 521 l 868 174 l 1215 174 l 1215 521 l 1042 521 l 1042 694 l 868 694 l 868 868 l 1042 868 l 1042 1042 l 1215 1042 l 1215 1389 l 868 1389 l 868 1042 l 694 1042 l 694 868 l 521 868 l 521 1042 l 347 1042 l 347 1389 l 0 1389 l 0 1042 l 174 1042 l 174 868 l 347 868 l 347 694 l 174 694 l 174 521 l 0 521 l 0 174 "},"Y":{"ha":1389,"x_min":174,"x_max":1215,"o":"m 521 174 l 868 174 l 868 694 l 1042 694 l 1042 868 l 1215 868 l 1215 1389 l 868 1389 l 868 868 l 521 868 l 521 1389 l 174 1389 l 174 868 l 347 868 l 347 694 l 521 694 l 521 174 "},"Ý":{"ha":1389,"x_min":174,"x_max":1215,"o":"m 868 1215 l 868 1389 l 694 1389 l 694 1215 l 868 1215 m 694 1042 l 694 1215 l 521 1215 l 521 1042 l 694 1042 m 1215 1042 l 868 1042 l 868 694 l 521 694 l 521 1042 l 174 1042 l 174 694 l 347 694 l 347 521 l 521 521 l 521 174 l 868 174 l 868 521 l 1042 521 l 1042 694 l 1215 694 l 1215 1042 "},"Ŷ":{"ha":1389,"x_min":174,"x_max":1215,"o":"m 521 174 l 868 174 l 868 521 l 1042 521 l 1042 694 l 1215 694 l 1215 1042 l 1042 1042 l 1042 1215 l 868 1215 l 868 1389 l 521 1389 l 521 1215 l 347 1215 l 347 1042 l 174 1042 l 174 694 l 347 694 l 347 521 l 521 521 l 521 174 m 521 694 l 521 1215 l 868 1215 l 868 694 l 521 694 "},"Ÿ":{"ha":1389,"x_min":174,"x_max":1215,"o":"m 174 1215 l 521 1215 l 521 1389 l 174 1389 l 174 1215 m 868 1215 l 1215 1215 l 1215 1389 l 868 1389 l 868 1215 m 521 174 l 868 174 l 868 521 l 1042 521 l 1042 694 l 1215 694 l 1215 1042 l 868 1042 l 868 694 l 521 694 l 521 1042 l 174 1042 l 174 694 l 347 694 l 347 521 l 521 521 l 521 174 "},"Z":{"ha":1389,"x_min":0,"x_max":1215,"o":"m 0 174 l 1215 174 l 1215 347 l 521 347 l 521 521 l 694 521 l 694 694 l 868 694 l 868 868 l 1042 868 l 1042 1042 l 1215 1042 l 1215 1389 l 0 1389 l 0 1215 l 694 1215 l 694 1042 l 521 1042 l 521 868 l 347 868 l 347 694 l 174 694 l 174 521 l 0 521 l 0 174 "},"Ź":{"ha":1389,"x_min":0,"x_max":1215,"o":"m 868 1215 l 868 1389 l 694 1389 l 694 1215 l 868 1215 m 1215 1042 l 694 1042 l 694 1215 l 521 1215 l 521 1042 l 0 1042 l 0 868 l 521 868 l 521 694 l 347 694 l 347 521 l 174 521 l 174 347 l 0 347 l 0 174 l 1215 174 l 1215 347 l 694 347 l 694 521 l 868 521 l 868 694 l 1042 694 l 1042 868 l 1215 868 l 1215 1042 "},"Ž":{"ha":1389,"x_min":0,"x_max":1215,"o":"m 0 174 l 1215 174 l 1215 347 l 694 347 l 694 521 l 868 521 l 868 694 l 1042 694 l 1042 868 l 1215 868 l 1215 1042 l 868 1042 l 868 1215 l 1042 1215 l 1042 1389 l 694 1389 l 694 1215 l 521 1215 l 521 1389 l 174 1389 l 174 1215 l 347 1215 l 347 1042 l 0 1042 l 0 868 l 521 868 l 521 694 l 347 694 l 347 521 l 174 521 l 174 347 l 0 347 l 0 174 "},"Ż":{"ha":1389,"x_min":0,"x_max":1215,"o":"m 521 1215 l 868 1215 l 868 1389 l 521 1389 l 521 1215 m 0 174 l 1215 174 l 1215 347 l 694 347 l 694 521 l 868 521 l 868 694 l 1042 694 l 1042 868 l 1215 868 l 1215 1042 l 0 1042 l 0 868 l 521 868 l 521 694 l 347 694 l 347 521 l 174 521 l 174 347 l 0 347 l 0 174 "},"a":{"ha":1389,"x_min":0,"x_max":1215,"o":"m 174 174 l 1215 174 l 1215 868 l 1042 868 l 1042 1042 l 174 1042 l 174 868 l 868 868 l 868 694 l 174 694 l 174 521 l 0 521 l 0 347 l 174 347 l 174 174 m 347 347 l 347 521 l 868 521 l 868 347 l 347 347 "},"á":{"ha":1389,"x_min":0,"x_max":1215,"o":"m 868 1215 l 868 1389 l 694 1389 l 694 1215 l 868 1215 m 1215 868 l 1042 868 l 1042 1042 l 694 1042 l 694 1215 l 521 1215 l 521 1042 l 174 1042 l 174 868 l 868 868 l 868 694 l 174 694 l 174 521 l 0 521 l 0 347 l 174 347 l 174 174 l 1215 174 l 1215 868 m 868 521 l 868 347 l 347 347 l 347 521 l 868 521 "},"ă":{"ha":1389,"x_min":0,"x_max":1215,"o":"m 347 1389 l 174 1389 l 174 1215 l 347 1215 l 347 1389 m 1042 1215 l 1042 1389 l 868 1389 l 868 1215 l 1042 1215 m 1215 868 l 1042 868 l 1042 1042 l 868 1042 l 868 1215 l 347 1215 l 347 1042 l 174 1042 l 174 868 l 868 868 l 868 694 l 174 694 l 174 521 l 0 521 l 0 347 l 174 347 l 174 174 l 1215 174 l 1215 868 m 868 521 l 868 347 l 347 347 l 347 521 l 868 521 "},"â":{"ha":1389,"x_min":0,"x_max":1215,"o":"m 174 174 l 1215 174 l 1215 868 l 1042 868 l 1042 1215 l 868 1215 l 868 1389 l 347 1389 l 347 1215 l 174 1215 l 174 868 l 868 868 l 868 694 l 174 694 l 174 521 l 0 521 l 0 347 l 174 347 l 174 174 m 521 1042 l 521 1215 l 694 1215 l 694 1042 l 521 1042 m 347 347 l 347 521 l 868 521 l 868 347 l 347 347 "},"ä":{"ha":1389,"x_min":0,"x_max":1215,"o":"m 174 1215 l 521 1215 l 521 1389 l 174 1389 l 174 1215 m 694 1215 l 1042 1215 l 1042 1389 l 694 1389 l 694 1215 m 174 174 l 1215 174 l 1215 868 l 1042 868 l 1042 1042 l 174 1042 l 174 868 l 868 868 l 868 694 l 174 694 l 174 521 l 0 521 l 0 347 l 174 347 l 174 174 m 347 347 l 347 521 l 868 521 l 868 347 l 347 347 "},"à":{"ha":1389,"x_min":0,"x_max":1215,"o":"m 521 1389 l 347 1389 l 347 1215 l 521 1215 l 521 1389 m 1215 868 l 1042 868 l 1042 1042 l 694 1042 l 694 1215 l 521 1215 l 521 1042 l 174 1042 l 174 868 l 868 868 l 868 694 l 174 694 l 174 521 l 0 521 l 0 347 l 174 347 l 174 174 l 1215 174 l 1215 868 m 868 521 l 868 347 l 347 347 l 347 521 l 868 521 "},"ā":{"ha":1389,"x_min":0,"x_max":1215,"o":"m 174 1215 l 1042 1215 l 1042 1389 l 174 1389 l 174 1215 m 174 174 l 1215 174 l 1215 868 l 1042 868 l 1042 1042 l 174 1042 l 174 868 l 868 868 l 868 694 l 174 694 l 174 521 l 0 521 l 0 347 l 174 347 l 174 174 m 347 347 l 347 521 l 868 521 l 868 347 l 347 347 "},"ą":{"ha":1389,"x_min":0,"x_max":1215,"o":"m 1215 1215 l 1042 1215 l 1042 1389 l 174 1389 l 174 1215 l 868 1215 l 868 1042 l 174 1042 l 174 868 l 0 868 l 0 694 l 174 694 l 174 521 l 521 521 l 521 347 l 694 347 l 694 521 l 1215 521 l 1215 1215 m 868 868 l 868 694 l 347 694 l 347 868 l 868 868 m 347 347 l 347 174 l 521 174 l 521 347 l 347 347 m 521 0 l 868 0 l 868 174 l 521 174 l 521 0 "},"å":{"ha":1389,"x_min":0,"x_max":1215,"o":"m 174 174 l 1215 174 l 1215 868 l 1042 868 l 1042 1042 l 868 1042 l 868 1215 l 694 1215 l 694 1389 l 521 1389 l 521 1215 l 347 1215 l 347 1042 l 174 1042 l 174 868 l 868 868 l 868 694 l 174 694 l 174 521 l 0 521 l 0 347 l 174 347 l 174 174 m 521 1042 l 521 1215 l 694 1215 l 694 1042 l 521 1042 m 347 347 l 347 521 l 868 521 l 868 347 l 347 347 "},"ã":{"ha":1389,"x_min":0,"x_max":1215,"o":"m 174 174 l 1215 174 l 1215 868 l 1042 868 l 1042 1042 l 868 1042 l 868 1215 l 1042 1215 l 1042 1389 l 868 1389 l 868 1215 l 694 1215 l 694 1389 l 347 1389 l 347 1215 l 174 1215 l 174 868 l 868 868 l 868 694 l 174 694 l 174 521 l 0 521 l 0 347 l 174 347 l 174 174 m 347 1042 l 347 1215 l 521 1215 l 521 1042 l 347 1042 m 347 347 l 347 521 l 868 521 l 868 347 l 347 347 "},"æ":{"ha":1389,"x_min":0,"x_max":1215,"o":"m 174 174 l 1042 174 l 1042 347 l 694 347 l 694 521 l 1215 521 l 1215 868 l 1042 868 l 1042 1042 l 174 1042 l 174 868 l 521 868 l 521 694 l 174 694 l 174 521 l 0 521 l 0 347 l 174 347 l 174 174 m 694 694 l 694 868 l 868 868 l 868 694 l 694 694 m 347 347 l 347 521 l 521 521 l 521 347 l 347 347 "},"b":{"ha":1389,"x_min":0,"x_max":1215,"o":"m 174 174 l 1042 174 l 1042 347 l 1215 347 l 1215 868 l 1042 868 l 1042 1042 l 347 1042 l 347 1389 l 0 1389 l 0 347 l 174 347 l 174 174 m 347 347 l 347 868 l 868 868 l 868 347 l 347 347 "},"c":{"ha":1389,"x_min":0,"x_max":1215,"o":"m 174 174 l 1215 174 l 1215 347 l 347 347 l 347 868 l 1215 868 l 1215 1042 l 174 1042 l 174 868 l 0 868 l 0 347 l 174 347 l 174 174 "},"ć":{"ha":1389,"x_min":0,"x_max":1215,"o":"m 868 1215 l 868 1389 l 694 1389 l 694 1215 l 868 1215 m 1215 1042 l 694 1042 l 694 1215 l 521 1215 l 521 1042 l 174 1042 l 174 868 l 0 868 l 0 347 l 174 347 l 174 174 l 1215 174 l 1215 347 l 347 347 l 347 868 l 1215 868 l 1215 1042 "},"č":{"ha":1389,"x_min":0,"x_max":1215,"o":"m 174 174 l 1215 174 l 1215 347 l 347 347 l 347 868 l 1215 868 l 1215 1042 l 868 1042 l 868 1215 l 1042 1215 l 1042 1389 l 694 1389 l 694 1215 l 521 1215 l 521 1389 l 174 1389 l 174 1215 l 347 1215 l 347 1042 l 174 1042 l 174 868 l 0 868 l 0 347 l 174 347 l 174 174 "},"ç":{"ha":1389,"x_min":0,"x_max":1215,"o":"m 1215 1042 l 174 1042 l 174 868 l 0 868 l 0 521 l 174 521 l 174 347 l 694 347 l 694 174 l 868 174 l 868 347 l 1215 347 l 1215 521 l 347 521 l 347 868 l 1215 868 l 1215 1042 m 347 174 l 347 0 l 694 0 l 694 174 l 347 174 "},"ĉ":{"ha":1389,"x_min":0,"x_max":1215,"o":"m 174 174 l 1215 174 l 1215 347 l 347 347 l 347 868 l 1215 868 l 1215 1042 l 1042 1042 l 1042 1215 l 868 1215 l 868 1389 l 347 1389 l 347 1215 l 174 1215 l 174 868 l 0 868 l 0 347 l 174 347 l 174 174 m 521 1042 l 521 1215 l 694 1215 l 694 1042 l 521 1042 "},"ċ":{"ha":1389,"x_min":0,"x_max":1215,"o":"m 521 1215 l 868 1215 l 868 1389 l 521 1389 l 521 1215 m 174 174 l 1215 174 l 1215 347 l 347 347 l 347 868 l 1215 868 l 1215 1042 l 174 1042 l 174 868 l 0 868 l 0 347 l 174 347 l 174 174 "},"d":{"ha":1389,"x_min":0,"x_max":1215,"o":"m 174 174 l 1215 174 l 1215 1389 l 868 1389 l 868 1042 l 174 1042 l 174 868 l 0 868 l 0 347 l 174 347 l 174 174 m 347 347 l 347 868 l 868 868 l 868 347 l 347 347 "},"ð":{"ha":1389,"x_min":0,"x_max":1215,"o":"m 1215 694 l 1042 694 l 1042 868 l 868 868 l 868 1215 l 521 1215 l 521 1389 l 174 1389 l 174 1042 l 521 1042 l 521 868 l 174 868 l 174 694 l 0 694 l 0 347 l 174 347 l 174 174 l 1042 174 l 1042 347 l 1215 347 l 1215 694 m 1042 1215 l 1042 1389 l 868 1389 l 868 1215 l 1042 1215 m 174 1042 l 0 1042 l 0 868 l 174 868 l 174 1042 m 868 694 l 868 347 l 347 347 l 347 694 l 868 694 "},"ď":{"ha":1389,"x_min":0,"x_max":1389,"o":"m 174 174 l 868 174 l 868 1389 l 521 1389 l 521 1042 l 174 1042 l 174 868 l 0 868 l 0 347 l 174 347 l 174 174 m 1042 868 l 1215 868 l 1215 1042 l 1389 1042 l 1389 1389 l 1042 1389 l 1042 868 m 347 347 l 347 868 l 521 868 l 521 347 l 347 347 "},"đ":{"ha":1389,"x_min":0,"x_max":1215,"o":"m 174 174 l 1042 174 l 1042 1042 l 1215 1042 l 1215 1215 l 1042 1215 l 1042 1389 l 694 1389 l 694 1215 l 521 1215 l 521 1042 l 174 1042 l 174 868 l 0 868 l 0 347 l 174 347 l 174 174 m 347 347 l 347 868 l 694 868 l 694 347 l 347 347 "},"e":{"ha":1389,"x_min":0,"x_max":1215,"o":"m 174 174 l 1042 174 l 1042 347 l 347 347 l 347 521 l 1215 521 l 1215 868 l 1042 868 l 1042 1042 l 174 1042 l 174 868 l 0 868 l 0 347 l 174 347 l 174 174 m 347 694 l 347 868 l 868 868 l 868 694 l 347 694 "},"é":{"ha":1389,"x_min":0,"x_max":1215,"o":"m 868 1215 l 868 1389 l 694 1389 l 694 1215 l 868 1215 m 1215 868 l 1042 868 l 1042 1042 l 694 1042 l 694 1215 l 521 1215 l 521 1042 l 174 1042 l 174 868 l 0 868 l 0 347 l 174 347 l 174 174 l 1042 174 l 1042 347 l 347 347 l 347 521 l 1215 521 l 1215 868 m 868 868 l 868 694 l 347 694 l 347 868 l 868 868 "},"ĕ":{"ha":1389,"x_min":0,"x_max":1215,"o":"m 347 1389 l 174 1389 l 174 1215 l 347 1215 l 347 1389 m 1042 1215 l 1042 1389 l 868 1389 l 868 1215 l 1042 1215 m 1215 868 l 1042 868 l 1042 1042 l 868 1042 l 868 1215 l 347 1215 l 347 1042 l 174 1042 l 174 868 l 0 868 l 0 347 l 174 347 l 174 174 l 1042 174 l 1042 347 l 347 347 l 347 521 l 1215 521 l 1215 868 m 868 868 l 868 694 l 347 694 l 347 868 l 868 868 "},"ě":{"ha":1389,"x_min":0,"x_max":1215,"o":"m 174 174 l 1042 174 l 1042 347 l 347 347 l 347 521 l 1215 521 l 1215 868 l 1042 868 l 1042 1042 l 868 1042 l 868 1215 l 1042 1215 l 1042 1389 l 694 1389 l 694 1215 l 521 1215 l 521 1389 l 174 1389 l 174 1215 l 347 1215 l 347 1042 l 174 1042 l 174 868 l 0 868 l 0 347 l 174 347 l 174 174 m 347 694 l 347 868 l 868 868 l 868 694 l 347 694 "},"ê":{"ha":1389,"x_min":0,"x_max":1215,"o":"m 174 174 l 1042 174 l 1042 347 l 347 347 l 347 521 l 1215 521 l 1215 868 l 1042 868 l 1042 1215 l 868 1215 l 868 1389 l 347 1389 l 347 1215 l 174 1215 l 174 868 l 0 868 l 0 347 l 174 347 l 174 174 m 521 1042 l 521 1215 l 694 1215 l 694 1042 l 521 1042 m 347 694 l 347 868 l 868 868 l 868 694 l 347 694 "},"ë":{"ha":1389,"x_min":0,"x_max":1215,"o":"m 174 1215 l 521 1215 l 521 1389 l 174 1389 l 174 1215 m 694 1215 l 1042 1215 l 1042 1389 l 694 1389 l 694 1215 m 174 174 l 1042 174 l 1042 347 l 347 347 l 347 521 l 1215 521 l 1215 868 l 1042 868 l 1042 1042 l 174 1042 l 174 868 l 0 868 l 0 347 l 174 347 l 174 174 m 347 694 l 347 868 l 868 868 l 868 694 l 347 694 "},"ė":{"ha":1389,"x_min":0,"x_max":1215,"o":"m 521 1215 l 868 1215 l 868 1389 l 521 1389 l 521 1215 m 174 174 l 1042 174 l 1042 347 l 347 347 l 347 521 l 1215 521 l 1215 868 l 1042 868 l 1042 1042 l 174 1042 l 174 868 l 0 868 l 0 347 l 174 347 l 174 174 m 347 694 l 347 868 l 868 868 l 868 694 l 347 694 "},"è":{"ha":1389,"x_min":0,"x_max":1215,"o":"m 521 1389 l 347 1389 l 347 1215 l 521 1215 l 521 1389 m 1215 868 l 1042 868 l 1042 1042 l 694 1042 l 694 1215 l 521 1215 l 521 1042 l 174 1042 l 174 868 l 0 868 l 0 347 l 174 347 l 174 174 l 1042 174 l 1042 347 l 347 347 l 347 521 l 1215 521 l 1215 868 m 868 868 l 868 694 l 347 694 l 347 868 l 868 868 "},"ē":{"ha":1389,"x_min":0,"x_max":1215,"o":"m 174 1215 l 1042 1215 l 1042 1389 l 174 1389 l 174 1215 m 174 174 l 1042 174 l 1042 347 l 347 347 l 347 521 l 1215 521 l 1215 868 l 1042 868 l 1042 1042 l 174 1042 l 174 868 l 0 868 l 0 347 l 174 347 l 174 174 m 347 694 l 347 868 l 868 868 l 868 694 l 347 694 "},"ę":{"ha":1389,"x_min":0,"x_max":1215,"o":"m 1215 1215 l 1042 1215 l 1042 1389 l 174 1389 l 174 1215 l 0 1215 l 0 694 l 174 694 l 174 521 l 521 521 l 521 347 l 694 347 l 694 521 l 1042 521 l 1042 694 l 347 694 l 347 868 l 1215 868 l 1215 1215 m 868 1215 l 868 1042 l 347 1042 l 347 1215 l 868 1215 m 347 347 l 347 174 l 521 174 l 521 347 l 347 347 m 521 0 l 868 0 l 868 174 l 521 174 l 521 0 "},"f":{"ha":1389,"x_min":174,"x_max":1215,"o":"m 521 174 l 868 174 l 868 868 l 1215 868 l 1215 1042 l 868 1042 l 868 1215 l 1215 1215 l 1215 1389 l 694 1389 l 694 1215 l 521 1215 l 521 1042 l 174 1042 l 174 868 l 521 868 l 521 174 "},"g":{"ha":1389,"x_min":0,"x_max":1215,"o":"m 174 0 l 1042 0 l 1042 174 l 1215 174 l 1215 1042 l 174 1042 l 174 868 l 0 868 l 0 521 l 174 521 l 174 347 l 868 347 l 868 174 l 174 174 l 174 0 m 347 521 l 347 868 l 868 868 l 868 521 l 347 521 "},"ğ":{"ha":1389,"x_min":0,"x_max":1215,"o":"m 347 1389 l 174 1389 l 174 1215 l 347 1215 l 347 1389 m 1042 1215 l 1042 1389 l 868 1389 l 868 1215 l 1042 1215 m 1215 1042 l 868 1042 l 868 1215 l 347 1215 l 347 1042 l 174 1042 l 174 868 l 0 868 l 0 521 l 174 521 l 174 347 l 868 347 l 868 174 l 174 174 l 174 0 l 1042 0 l 1042 174 l 1215 174 l 1215 1042 m 868 868 l 868 521 l 347 521 l 347 868 l 868 868 "},"ĝ":{"ha":1389,"x_min":0,"x_max":1215,"o":"m 174 0 l 1042 0 l 1042 174 l 1215 174 l 1215 1042 l 1042 1042 l 1042 1215 l 868 1215 l 868 1389 l 347 1389 l 347 1215 l 174 1215 l 174 868 l 0 868 l 0 521 l 174 521 l 174 347 l 868 347 l 868 174 l 174 174 l 174 0 m 521 1042 l 521 1215 l 694 1215 l 694 1042 l 521 1042 m 347 521 l 347 868 l 868 868 l 868 521 l 347 521 "},"ģ":{"ha":1389,"x_min":0,"x_max":1215,"o":"m 174 0 l 1042 0 l 1042 174 l 1215 174 l 1215 1042 l 694 1042 l 694 1215 l 868 1215 l 868 1389 l 521 1389 l 521 1215 l 347 1215 l 347 1042 l 174 1042 l 174 868 l 0 868 l 0 521 l 174 521 l 174 347 l 868 347 l 868 174 l 174 174 l 174 0 m 347 521 l 347 868 l 868 868 l 868 521 l 347 521 "},"ġ":{"ha":1389,"x_min":0,"x_max":1215,"o":"m 521 1215 l 868 1215 l 868 1389 l 521 1389 l 521 1215 m 174 0 l 1042 0 l 1042 174 l 1215 174 l 1215 1042 l 174 1042 l 174 868 l 0 868 l 0 521 l 174 521 l 174 347 l 868 347 l 868 174 l 174 174 l 174 0 m 347 521 l 347 868 l 868 868 l 868 521 l 347 521 "},"h":{"ha":1389,"x_min":0,"x_max":1215,"o":"m 0 174 l 347 174 l 347 868 l 868 868 l 868 174 l 1215 174 l 1215 868 l 1042 868 l 1042 1042 l 347 1042 l 347 1389 l 0 1389 l 0 174 "},"ħ":{"ha":1389,"x_min":0,"x_max":1215,"o":"m 174 174 l 521 174 l 521 694 l 868 694 l 868 174 l 1215 174 l 1215 694 l 1042 694 l 1042 868 l 521 868 l 521 1042 l 868 1042 l 868 1215 l 521 1215 l 521 1389 l 174 1389 l 174 1215 l 0 1215 l 0 1042 l 174 1042 l 174 174 "},"ĥ":{"ha":1389,"x_min":0,"x_max":1215,"o":"m 0 174 l 347 174 l 347 694 l 868 694 l 868 174 l 1215 174 l 1215 694 l 1042 694 l 1042 868 l 347 868 l 347 1042 l 521 1042 l 521 1215 l 694 1215 l 694 1042 l 1042 1042 l 1042 1215 l 868 1215 l 868 1389 l 347 1389 l 347 1215 l 0 1215 l 0 174 "},"i":{"ha":1389,"x_min":174,"x_max":1215,"o":"m 521 1215 l 868 1215 l 868 1389 l 521 1389 l 521 1215 m 174 174 l 1215 174 l 1215 347 l 868 347 l 868 1042 l 347 1042 l 347 868 l 521 868 l 521 347 l 174 347 l 174 174 "},"ı":{"ha":1389,"x_min":174,"x_max":1215,"o":"m 174 174 l 1215 174 l 1215 347 l 868 347 l 868 1042 l 347 1042 l 347 868 l 521 868 l 521 347 l 174 347 l 174 174 "},"í":{"ha":1389,"x_min":174,"x_max":1215,"o":"m 868 1215 l 868 1389 l 694 1389 l 694 1215 l 868 1215 m 694 1042 l 694 1215 l 521 1215 l 521 1042 l 694 1042 m 1215 347 l 868 347 l 868 868 l 347 868 l 347 694 l 521 694 l 521 347 l 174 347 l 174 174 l 1215 174 l 1215 347 "},"ĭ":{"ha":1389,"x_min":174,"x_max":1215,"o":"m 347 1215 l 347 1389 l 174 1389 l 174 1215 l 347 1215 m 1042 1215 l 1042 1389 l 868 1389 l 868 1215 l 1042 1215 m 347 1042 l 868 1042 l 868 1215 l 347 1215 l 347 1042 m 1215 347 l 868 347 l 868 868 l 347 868 l 347 694 l 521 694 l 521 347 l 174 347 l 174 174 l 1215 174 l 1215 347 "},"î":{"ha":1389,"x_min":174,"x_max":1215,"o":"m 174 1042 l 521 1042 l 521 1215 l 694 1215 l 694 1042 l 1042 1042 l 1042 1215 l 868 1215 l 868 1389 l 347 1389 l 347 1215 l 174 1215 l 174 1042 m 174 174 l 1215 174 l 1215 347 l 868 347 l 868 868 l 347 868 l 347 694 l 521 694 l 521 347 l 174 347 l 174 174 "},"ï":{"ha":1389,"x_min":174,"x_max":1215,"o":"m 174 1215 l 521 1215 l 521 1389 l 174 1389 l 174 1215 m 694 1215 l 1042 1215 l 1042 1389 l 694 1389 l 694 1215 m 174 174 l 1215 174 l 1215 347 l 868 347 l 868 1042 l 347 1042 l 347 868 l 521 868 l 521 347 l 174 347 l 174 174 "},"ì":{"ha":1389,"x_min":174,"x_max":1215,"o":"m 521 1215 l 521 1389 l 347 1389 l 347 1215 l 521 1215 m 521 1042 l 694 1042 l 694 1215 l 521 1215 l 521 1042 m 1215 347 l 868 347 l 868 868 l 347 868 l 347 694 l 521 694 l 521 347 l 174 347 l 174 174 l 1215 174 l 1215 347 "},"ĳ":{"ha":1389,"x_min":0,"x_max":1215,"o":"m 174 1215 l 521 1215 l 521 1389 l 174 1389 l 174 1215 m 868 1215 l 1215 1215 l 1215 1389 l 868 1389 l 868 1215 m 174 347 l 521 347 l 521 1042 l 0 1042 l 0 868 l 174 868 l 174 347 m 347 0 l 1042 0 l 1042 174 l 1215 174 l 1215 1042 l 694 1042 l 694 868 l 868 868 l 868 174 l 347 174 l 347 0 "},"ī":{"ha":1389,"x_min":174,"x_max":1215,"o":"m 174 1215 l 1042 1215 l 1042 1389 l 174 1389 l 174 1215 m 174 174 l 1215 174 l 1215 347 l 868 347 l 868 1042 l 347 1042 l 347 868 l 521 868 l 521 347 l 174 347 l 174 174 "},"į":{"ha":1389,"x_min":174,"x_max":1215,"o":"m 868 1215 l 868 1389 l 521 1389 l 521 1215 l 868 1215 m 1215 694 l 868 694 l 868 1042 l 347 1042 l 347 868 l 521 868 l 521 694 l 174 694 l 174 521 l 521 521 l 521 347 l 694 347 l 694 521 l 1215 521 l 1215 694 m 347 347 l 347 174 l 521 174 l 521 347 l 347 347 m 521 0 l 868 0 l 868 174 l 521 174 l 521 0 "},"ĩ":{"ha":1389,"x_min":174,"x_max":1215,"o":"m 694 1389 l 347 1389 l 347 1215 l 694 1215 l 694 1389 m 1215 1389 l 1042 1389 l 1042 1215 l 1215 1215 l 1215 1389 m 174 1215 l 174 1042 l 347 1042 l 347 1215 l 174 1215 m 694 1215 l 694 1042 l 1042 1042 l 1042 1215 l 694 1215 m 868 347 l 868 868 l 347 868 l 347 694 l 521 694 l 521 347 l 174 347 l 174 174 l 1215 174 l 1215 347 l 868 347 "},"j":{"ha":1389,"x_min":174,"x_max":1042,"o":"m 694 1215 l 1042 1215 l 1042 1389 l 694 1389 l 694 1215 m 174 0 l 868 0 l 868 174 l 1042 174 l 1042 1042 l 521 1042 l 521 868 l 694 868 l 694 174 l 174 174 l 174 0 "},"ĵ":{"ha":1389,"x_min":174,"x_max":1215,"o":"m 347 1042 l 694 1042 l 694 1215 l 868 1215 l 868 1042 l 1215 1042 l 1215 1215 l 1042 1215 l 1042 1389 l 521 1389 l 521 1215 l 347 1215 l 347 1042 m 174 0 l 868 0 l 868 174 l 1042 174 l 1042 868 l 521 868 l 521 694 l 694 694 l 694 174 l 174 174 l 174 0 "},"k":{"ha":1389,"x_min":0,"x_max":1215,"o":"m 0 174 l 347 174 l 347 521 l 694 521 l 694 347 l 868 347 l 868 174 l 1215 174 l 1215 347 l 1042 347 l 1042 521 l 868 521 l 868 694 l 1042 694 l 1042 868 l 1215 868 l 1215 1042 l 868 1042 l 868 868 l 694 868 l 694 694 l 347 694 l 347 1389 l 0 1389 l 0 174 "},"ķ":{"ha":1389,"x_min":0,"x_max":1215,"o":"m 0 347 l 347 347 l 347 694 l 694 694 l 694 521 l 868 521 l 868 347 l 1215 347 l 1215 521 l 1042 521 l 1042 694 l 868 694 l 868 868 l 1042 868 l 1042 1042 l 1215 1042 l 1215 1215 l 868 1215 l 868 1042 l 694 1042 l 694 868 l 347 868 l 347 1389 l 0 1389 l 0 347 m 174 0 l 521 0 l 521 174 l 694 174 l 694 347 l 347 347 l 347 174 l 174 174 l 174 0 "},"ĸ":{"ha":1389,"x_min":0,"x_max":1215,"o":"m 0 174 l 347 174 l 347 521 l 694 521 l 694 347 l 868 347 l 868 174 l 1215 174 l 1215 347 l 1042 347 l 1042 521 l 868 521 l 868 694 l 1042 694 l 1042 868 l 1215 868 l 1215 1042 l 868 1042 l 868 868 l 694 868 l 694 694 l 347 694 l 347 1042 l 0 1042 l 0 174 "},"l":{"ha":1389,"x_min":174,"x_max":1215,"o":"m 174 174 l 1215 174 l 1215 347 l 868 347 l 868 1389 l 347 1389 l 347 1215 l 521 1215 l 521 347 l 174 347 l 174 174 "},"ĺ":{"ha":1389,"x_min":0,"x_max":1042,"o":"m 694 1215 l 694 1389 l 521 1389 l 521 1215 l 694 1215 m 1042 347 l 694 347 l 694 1042 l 521 1042 l 521 1215 l 347 1215 l 347 1042 l 174 1042 l 174 868 l 347 868 l 347 347 l 0 347 l 0 174 l 1042 174 l 1042 347 "},"ľ":{"ha":1389,"x_min":0,"x_max":1215,"o":"m 0 174 l 1042 174 l 1042 347 l 694 347 l 694 1389 l 174 1389 l 174 1215 l 347 1215 l 347 347 l 0 347 l 0 174 m 868 868 l 1042 868 l 1042 1042 l 1215 1042 l 1215 1389 l 868 1389 l 868 868 "},"ļ":{"ha":1389,"x_min":174,"x_max":1215,"o":"m 347 0 l 694 0 l 694 174 l 868 174 l 868 347 l 1215 347 l 1215 521 l 868 521 l 868 1389 l 347 1389 l 347 1215 l 521 1215 l 521 521 l 174 521 l 174 347 l 521 347 l 521 174 l 347 174 l 347 0 "},"ŀ":{"ha":1389,"x_min":0,"x_max":1215,"o":"m 0 174 l 1042 174 l 1042 347 l 694 347 l 694 1389 l 174 1389 l 174 1215 l 347 1215 l 347 347 l 0 347 l 0 174 m 868 694 l 1215 694 l 1215 1042 l 868 1042 l 868 694 "},"ł":{"ha":1389,"x_min":174,"x_max":1215,"o":"m 174 174 l 1215 174 l 1215 347 l 868 347 l 868 868 l 1042 868 l 1042 1042 l 868 1042 l 868 1389 l 347 1389 l 347 1215 l 521 1215 l 521 868 l 347 868 l 347 694 l 521 694 l 521 347 l 174 347 l 174 174 "},"m":{"ha":1389,"x_min":0,"x_max":1215,"o":"m 0 174 l 174 174 l 174 868 l 347 868 l 347 174 l 694 174 l 694 868 l 868 868 l 868 174 l 1215 174 l 1215 868 l 1042 868 l 1042 1042 l 0 1042 l 0 174 "},"n":{"ha":1389,"x_min":0,"x_max":1215,"o":"m 0 174 l 347 174 l 347 868 l 868 868 l 868 174 l 1215 174 l 1215 868 l 1042 868 l 1042 1042 l 0 1042 l 0 174 "},"ń":{"ha":1389,"x_min":0,"x_max":1215,"o":"m 868 1215 l 868 1389 l 694 1389 l 694 1215 l 868 1215 m 1215 868 l 1042 868 l 1042 1042 l 694 1042 l 694 1215 l 521 1215 l 521 1042 l 0 1042 l 0 174 l 347 174 l 347 868 l 868 868 l 868 174 l 1215 174 l 1215 868 "},"ň":{"ha":1389,"x_min":0,"x_max":1215,"o":"m 0 174 l 347 174 l 347 868 l 868 868 l 868 174 l 1215 174 l 1215 868 l 1042 868 l 1042 1042 l 868 1042 l 868 1215 l 1042 1215 l 1042 1389 l 694 1389 l 694 1215 l 521 1215 l 521 1389 l 174 1389 l 174 1215 l 347 1215 l 347 1042 l 0 1042 l 0 174 "},"ņ":{"ha":1389,"x_min":0,"x_max":1215,"o":"m 1215 1042 l 1042 1042 l 1042 1215 l 0 1215 l 0 347 l 347 347 l 347 1042 l 868 1042 l 868 347 l 1215 347 l 1215 1042 m 521 347 l 521 174 l 347 174 l 347 0 l 694 0 l 694 174 l 868 174 l 868 347 l 521 347 "},"ŋ":{"ha":1389,"x_min":0,"x_max":1215,"o":"m 347 0 l 1042 0 l 1042 174 l 1215 174 l 1215 1042 l 1042 1042 l 1042 1215 l 0 1215 l 0 347 l 347 347 l 347 1042 l 868 1042 l 868 174 l 347 174 l 347 0 "},"ñ":{"ha":1389,"x_min":0,"x_max":1215,"o":"m 0 174 l 347 174 l 347 868 l 868 868 l 868 174 l 1215 174 l 1215 868 l 1042 868 l 1042 1042 l 868 1042 l 868 1215 l 1042 1215 l 1042 1389 l 868 1389 l 868 1215 l 694 1215 l 694 1389 l 347 1389 l 347 1215 l 174 1215 l 174 1042 l 0 1042 l 0 174 m 347 1042 l 347 1215 l 521 1215 l 521 1042 l 347 1042 "},"o":{"ha":1389,"x_min":0,"x_max":1215,"o":"m 174 174 l 1042 174 l 1042 347 l 1215 347 l 1215 868 l 1042 868 l 1042 1042 l 174 1042 l 174 868 l 0 868 l 0 347 l 174 347 l 174 174 m 347 347 l 347 868 l 868 868 l 868 347 l 347 347 "},"ó":{"ha":1389,"x_min":0,"x_max":1215,"o":"m 868 1215 l 868 1389 l 694 1389 l 694 1215 l 868 1215 m 1215 868 l 1042 868 l 1042 1042 l 694 1042 l 694 1215 l 521 1215 l 521 1042 l 174 1042 l 174 868 l 0 868 l 0 347 l 174 347 l 174 174 l 1042 174 l 1042 347 l 1215 347 l 1215 868 m 868 868 l 868 347 l 347 347 l 347 868 l 868 868 "},"ŏ":{"ha":1389,"x_min":0,"x_max":1215,"o":"m 347 1389 l 174 1389 l 174 1215 l 347 1215 l 347 1389 m 1042 1215 l 1042 1389 l 868 1389 l 868 1215 l 1042 1215 m 1215 868 l 1042 868 l 1042 1042 l 868 1042 l 868 1215 l 347 1215 l 347 1042 l 174 1042 l 174 868 l 0 868 l 0 347 l 174 347 l 174 174 l 1042 174 l 1042 347 l 1215 347 l 1215 868 m 868 868 l 868 347 l 347 347 l 347 868 l 868 868 "},"ô":{"ha":1389,"x_min":0,"x_max":1215,"o":"m 174 174 l 1042 174 l 1042 347 l 1215 347 l 1215 868 l 1042 868 l 1042 1215 l 868 1215 l 868 1389 l 347 1389 l 347 1215 l 174 1215 l 174 868 l 0 868 l 0 347 l 174 347 l 174 174 m 521 1042 l 521 1215 l 694 1215 l 694 1042 l 521 1042 m 347 347 l 347 868 l 868 868 l 868 347 l 347 347 "},"ö":{"ha":1389,"x_min":0,"x_max":1215,"o":"m 174 1215 l 521 1215 l 521 1389 l 174 1389 l 174 1215 m 694 1215 l 1042 1215 l 1042 1389 l 694 1389 l 694 1215 m 174 174 l 1042 174 l 1042 347 l 1215 347 l 1215 868 l 1042 868 l 1042 1042 l 174 1042 l 174 868 l 0 868 l 0 347 l 174 347 l 174 174 m 347 347 l 347 868 l 868 868 l 868 347 l 347 347 "},"ò":{"ha":1389,"x_min":0,"x_max":1215,"o":"m 521 1389 l 347 1389 l 347 1215 l 521 1215 l 521 1389 m 1215 868 l 1042 868 l 1042 1042 l 694 1042 l 694 1215 l 521 1215 l 521 1042 l 174 1042 l 174 868 l 0 868 l 0 347 l 174 347 l 174 174 l 1042 174 l 1042 347 l 1215 347 l 1215 868 m 868 868 l 868 347 l 347 347 l 347 868 l 868 868 "},"ő":{"ha":1389,"x_min":0,"x_max":1215,"o":"m 521 1215 l 521 1389 l 347 1389 l 347 1215 l 521 1215 m 1042 1215 l 1042 1389 l 868 1389 l 868 1215 l 1042 1215 m 1215 868 l 1042 868 l 1042 1042 l 868 1042 l 868 1215 l 694 1215 l 694 1042 l 347 1042 l 347 1215 l 174 1215 l 174 868 l 0 868 l 0 347 l 174 347 l 174 174 l 1042 174 l 1042 347 l 1215 347 l 1215 868 m 868 868 l 868 347 l 347 347 l 347 868 l 868 868 "},"ō":{"ha":1389,"x_min":0,"x_max":1215,"o":"m 174 1215 l 1042 1215 l 1042 1389 l 174 1389 l 174 1215 m 174 174 l 1042 174 l 1042 347 l 1215 347 l 1215 868 l 1042 868 l 1042 1042 l 174 1042 l 174 868 l 0 868 l 0 347 l 174 347 l 174 174 m 347 347 l 347 868 l 868 868 l 868 347 l 347 347 "},"ø":{"ha":1389,"x_min":0,"x_max":1215,"o":"m 174 174 l 1042 174 l 1042 347 l 1215 347 l 1215 868 l 1042 868 l 1042 1042 l 174 1042 l 174 868 l 0 868 l 0 347 l 174 347 l 174 174 m 521 347 l 521 521 l 347 521 l 347 868 l 694 868 l 694 694 l 868 694 l 868 347 l 521 347 m 521 521 l 694 521 l 694 694 l 521 694 l 521 521 "},"õ":{"ha":1389,"x_min":0,"x_max":1215,"o":"m 174 174 l 1042 174 l 1042 347 l 1215 347 l 1215 868 l 1042 868 l 1042 1042 l 868 1042 l 868 1215 l 1042 1215 l 1042 1389 l 868 1389 l 868 1215 l 694 1215 l 694 1389 l 347 1389 l 347 1215 l 174 1215 l 174 868 l 0 868 l 0 347 l 174 347 l 174 174 m 347 1042 l 347 1215 l 521 1215 l 521 1042 l 347 1042 m 347 347 l 347 868 l 868 868 l 868 347 l 347 347 "},"œ":{"ha":1389,"x_min":0,"x_max":1215,"o":"m 174 174 l 1042 174 l 1042 347 l 694 347 l 694 521 l 1215 521 l 1215 868 l 1042 868 l 1042 1042 l 174 1042 l 174 868 l 0 868 l 0 347 l 174 347 l 174 174 m 347 347 l 347 868 l 521 868 l 521 347 l 347 347 m 694 694 l 694 868 l 868 868 l 868 694 l 694 694 "},"p":{"ha":1389,"x_min":0,"x_max":1215,"o":"m 0 0 l 347 0 l 347 347 l 1042 347 l 1042 521 l 1215 521 l 1215 868 l 1042 868 l 1042 1042 l 0 1042 l 0 0 m 347 521 l 347 868 l 868 868 l 868 521 l 347 521 "},"þ":{"ha":1389,"x_min":0,"x_max":1215,"o":"m 0 0 l 347 0 l 347 347 l 1042 347 l 1042 521 l 1215 521 l 1215 868 l 1042 868 l 1042 1042 l 347 1042 l 347 1389 l 0 1389 l 0 0 m 347 521 l 347 868 l 868 868 l 868 521 l 347 521 "},"q":{"ha":1389,"x_min":0,"x_max":1215,"o":"m 868 0 l 1215 0 l 1215 1042 l 174 1042 l 174 868 l 0 868 l 0 521 l 174 521 l 174 347 l 868 347 l 868 0 m 347 521 l 347 868 l 868 868 l 868 521 l 347 521 "},"r":{"ha":1389,"x_min":174,"x_max":1215,"o":"m 521 868 l 521 1042 l 174 1042 l 174 174 l 521 174 l 521 694 l 694 694 l 694 868 l 521 868 m 1215 1042 l 694 1042 l 694 868 l 1215 868 l 1215 1042 "},"ŕ":{"ha":1389,"x_min":174,"x_max":1215,"o":"m 868 1215 l 868 1389 l 694 1389 l 694 1215 l 868 1215 m 694 1042 l 694 1215 l 521 1215 l 521 1042 l 694 1042 m 521 868 l 521 1042 l 174 1042 l 174 174 l 521 174 l 521 694 l 694 694 l 694 868 l 521 868 m 1215 1042 l 694 1042 l 694 868 l 1215 868 l 1215 1042 "},"ř":{"ha":1389,"x_min":174,"x_max":1215,"o":"m 174 174 l 521 174 l 521 694 l 694 694 l 694 868 l 1215 868 l 1215 1042 l 1042 1042 l 1042 1215 l 1215 1215 l 1215 1389 l 868 1389 l 868 1215 l 694 1215 l 694 1389 l 347 1389 l 347 1215 l 521 1215 l 521 1042 l 174 1042 l 174 174 m 521 868 l 521 1042 l 694 1042 l 694 868 l 521 868 "},"ŗ":{"ha":1389,"x_min":174,"x_max":1215,"o":"m 521 1042 l 521 1215 l 174 1215 l 174 347 l 347 347 l 347 174 l 174 174 l 174 0 l 521 0 l 521 174 l 694 174 l 694 347 l 521 347 l 521 868 l 694 868 l 694 1042 l 521 1042 m 1215 1215 l 694 1215 l 694 1042 l 1215 1042 l 1215 1215 "},"s":{"ha":1389,"x_min":0,"x_max":1215,"o":"m 0 174 l 1042 174 l 1042 347 l 1215 347 l 1215 521 l 1042 521 l 1042 694 l 347 694 l 347 868 l 1042 868 l 1042 1042 l 174 1042 l 174 868 l 0 868 l 0 694 l 174 694 l 174 521 l 868 521 l 868 347 l 0 347 l 0 174 "},"ś":{"ha":1389,"x_min":0,"x_max":1215,"o":"m 868 1215 l 868 1389 l 694 1389 l 694 1215 l 868 1215 m 1215 521 l 1042 521 l 1042 694 l 347 694 l 347 868 l 1042 868 l 1042 1042 l 694 1042 l 694 1215 l 521 1215 l 521 1042 l 174 1042 l 174 868 l 0 868 l 0 694 l 174 694 l 174 521 l 868 521 l 868 347 l 0 347 l 0 174 l 1042 174 l 1042 347 l 1215 347 l 1215 521 "},"š":{"ha":1389,"x_min":0,"x_max":1215,"o":"m 0 174 l 1042 174 l 1042 347 l 1215 347 l 1215 521 l 1042 521 l 1042 694 l 347 694 l 347 868 l 1042 868 l 1042 1042 l 868 1042 l 868 1215 l 1042 1215 l 1042 1389 l 694 1389 l 694 1215 l 521 1215 l 521 1389 l 174 1389 l 174 1215 l 347 1215 l 347 1042 l 174 1042 l 174 868 l 0 868 l 0 694 l 174 694 l 174 521 l 868 521 l 868 347 l 0 347 l 0 174 "},"ş":{"ha":1389,"x_min":0,"x_max":1215,"o":"m 1215 694 l 1042 694 l 1042 868 l 347 868 l 347 1042 l 1042 1042 l 1042 1215 l 174 1215 l 174 1042 l 0 1042 l 0 868 l 174 868 l 174 694 l 868 694 l 868 521 l 0 521 l 0 347 l 694 347 l 694 174 l 868 174 l 868 347 l 1042 347 l 1042 521 l 1215 521 l 1215 694 m 347 174 l 347 0 l 694 0 l 694 174 l 347 174 "},"ŝ":{"ha":1389,"x_min":0,"x_max":1215,"o":"m 0 174 l 1042 174 l 1042 347 l 1215 347 l 1215 521 l 1042 521 l 1042 694 l 347 694 l 347 868 l 1042 868 l 1042 1215 l 868 1215 l 868 1389 l 347 1389 l 347 1215 l 174 1215 l 174 868 l 0 868 l 0 694 l 174 694 l 174 521 l 868 521 l 868 347 l 0 347 l 0 174 m 521 1042 l 521 1215 l 694 1215 l 694 1042 l 521 1042 "},"ß":{"ha":1389,"x_min":174,"x_max":1215,"o":"m 1215 1215 l 1042 1215 l 1042 1389 l 347 1389 l 347 1215 l 174 1215 l 174 174 l 521 174 l 521 347 l 694 347 l 694 521 l 521 521 l 521 1215 l 868 1215 l 868 868 l 694 868 l 694 694 l 868 694 l 868 347 l 694 347 l 694 174 l 1042 174 l 1042 347 l 1215 347 l 1215 694 l 1042 694 l 1042 868 l 1215 868 l 1215 1215 "},"ſ":{"ha":1389,"x_min":521,"x_max":1215,"o":"m 521 174 l 868 174 l 868 1215 l 1215 1215 l 1215 1389 l 694 1389 l 694 1215 l 521 1215 l 521 174 "},"t":{"ha":1389,"x_min":174,"x_max":1215,"o":"m 521 174 l 868 174 l 868 868 l 1215 868 l 1215 1042 l 868 1042 l 868 1389 l 521 1389 l 521 1042 l 174 1042 l 174 868 l 521 868 l 521 174 "},"ŧ":{"ha":1389,"x_min":174,"x_max":1215,"o":"m 521 174 l 868 174 l 868 521 l 1042 521 l 1042 694 l 868 694 l 868 868 l 1215 868 l 1215 1042 l 868 1042 l 868 1389 l 521 1389 l 521 1042 l 174 1042 l 174 868 l 521 868 l 521 521 l 347 521 l 347 347 l 521 347 l 521 174 "},"ť":{"ha":1389,"x_min":174,"x_max":1215,"o":"m 521 1389 l 347 1389 l 347 1215 l 521 1215 l 521 1389 m 1042 1215 l 1042 1389 l 868 1389 l 868 1215 l 1042 1215 m 1215 868 l 868 868 l 868 1215 l 521 1215 l 521 868 l 174 868 l 174 694 l 521 694 l 521 174 l 868 174 l 868 694 l 1215 694 l 1215 868 "},"ț":{"ha":1389,"x_min":174,"x_max":1215,"o":"m 1215 1042 l 868 1042 l 868 1389 l 521 1389 l 521 1042 l 174 1042 l 174 868 l 521 868 l 521 347 l 694 347 l 694 174 l 868 174 l 868 868 l 1215 868 l 1215 1042 m 347 174 l 347 0 l 694 0 l 694 174 l 347 174 "},"u":{"ha":1389,"x_min":0,"x_max":1215,"o":"m 174 174 l 1215 174 l 1215 1042 l 868 1042 l 868 347 l 347 347 l 347 1042 l 0 1042 l 0 347 l 174 347 l 174 174 "},"ú":{"ha":1389,"x_min":0,"x_max":1215,"o":"m 868 1215 l 868 1389 l 694 1389 l 694 1215 l 868 1215 m 694 1042 l 694 1215 l 521 1215 l 521 1042 l 694 1042 m 1215 1042 l 868 1042 l 868 347 l 347 347 l 347 1042 l 0 1042 l 0 347 l 174 347 l 174 174 l 1215 174 l 1215 1042 "},"ŭ":{"ha":1389,"x_min":0,"x_max":1215,"o":"m 347 1389 l 174 1389 l 174 1215 l 347 1215 l 347 1389 m 1042 1215 l 1042 1389 l 868 1389 l 868 1215 l 1042 1215 m 868 1042 l 868 1215 l 347 1215 l 347 1042 l 868 1042 m 1215 1042 l 868 1042 l 868 347 l 347 347 l 347 1042 l 0 1042 l 0 347 l 174 347 l 174 174 l 1215 174 l 1215 1042 "},"û":{"ha":1389,"x_min":0,"x_max":1215,"o":"m 174 1042 l 521 1042 l 521 1215 l 694 1215 l 694 1042 l 1042 1042 l 1042 1215 l 868 1215 l 868 1389 l 347 1389 l 347 1215 l 174 1215 l 174 1042 m 174 174 l 1215 174 l 1215 868 l 868 868 l 868 347 l 347 347 l 347 868 l 0 868 l 0 347 l 174 347 l 174 174 "},"ü":{"ha":1389,"x_min":0,"x_max":1215,"o":"m 174 1215 l 521 1215 l 521 1389 l 174 1389 l 174 1215 m 694 1215 l 1042 1215 l 1042 1389 l 694 1389 l 694 1215 m 174 174 l 1215 174 l 1215 1042 l 868 1042 l 868 347 l 347 347 l 347 1042 l 0 1042 l 0 347 l 174 347 l 174 174 "},"ù":{"ha":1389,"x_min":0,"x_max":1215,"o":"m 521 1215 l 521 1389 l 347 1389 l 347 1215 l 521 1215 m 521 1042 l 694 1042 l 694 1215 l 521 1215 l 521 1042 m 1215 1042 l 868 1042 l 868 347 l 347 347 l 347 1042 l 0 1042 l 0 347 l 174 347 l 174 174 l 1215 174 l 1215 1042 "},"ű":{"ha":1389,"x_min":0,"x_max":1215,"o":"m 521 1215 l 521 1389 l 347 1389 l 347 1215 l 521 1215 m 1042 1215 l 1042 1389 l 868 1389 l 868 1215 l 1042 1215 m 1215 1042 l 868 1042 l 868 347 l 347 347 l 347 1215 l 174 1215 l 174 1042 l 0 1042 l 0 347 l 174 347 l 174 174 l 1215 174 l 1215 1042 m 868 1215 l 694 1215 l 694 1042 l 868 1042 l 868 1215 "},"ū":{"ha":1389,"x_min":0,"x_max":1215,"o":"m 174 1215 l 1042 1215 l 1042 1389 l 174 1389 l 174 1215 m 174 174 l 1215 174 l 1215 1042 l 868 1042 l 868 347 l 347 347 l 347 1042 l 0 1042 l 0 347 l 174 347 l 174 174 "},"ų":{"ha":1389,"x_min":0,"x_max":1215,"o":"m 1215 1389 l 868 1389 l 868 694 l 347 694 l 347 1389 l 0 1389 l 0 694 l 174 694 l 174 521 l 521 521 l 521 347 l 694 347 l 694 521 l 1215 521 l 1215 1389 m 347 347 l 347 174 l 521 174 l 521 347 l 347 347 m 521 0 l 868 0 l 868 174 l 521 174 l 521 0 "},"ů":{"ha":1389,"x_min":0,"x_max":1215,"o":"m 174 174 l 1215 174 l 1215 1042 l 1042 1042 l 1042 1215 l 868 1215 l 868 1389 l 347 1389 l 347 1215 l 174 1215 l 174 1042 l 0 1042 l 0 347 l 174 347 l 174 174 m 521 1042 l 521 1215 l 694 1215 l 694 1042 l 521 1042 m 347 347 l 347 868 l 174 868 l 174 1042 l 347 1042 l 347 868 l 868 868 l 868 1042 l 1042 1042 l 1042 868 l 868 868 l 868 347 l 347 347 "},"ũ":{"ha":1389,"x_min":0,"x_max":1215,"o":"m 521 1215 l 521 1042 l 868 1042 l 868 1215 l 694 1215 l 694 1389 l 347 1389 l 347 1215 l 521 1215 m 1042 1215 l 1042 1389 l 868 1389 l 868 1215 l 1042 1215 m 1215 1042 l 868 1042 l 868 347 l 347 347 l 347 1215 l 174 1215 l 174 1042 l 0 1042 l 0 347 l 174 347 l 174 174 l 1215 174 l 1215 1042 "},"v":{"ha":1389,"x_min":174,"x_max":1215,"o":"m 521 174 l 868 174 l 868 347 l 1042 347 l 1042 521 l 1215 521 l 1215 1042 l 868 1042 l 868 521 l 521 521 l 521 1042 l 174 1042 l 174 521 l 347 521 l 347 347 l 521 347 l 521 174 "},"w":{"ha":1389,"x_min":0,"x_max":1215,"o":"m 347 347 l 347 1042 l 0 1042 l 0 347 l 174 347 l 174 174 l 521 174 l 521 347 l 347 347 m 694 1042 l 521 1042 l 521 347 l 694 347 l 694 1042 m 1215 1042 l 868 1042 l 868 347 l 694 347 l 694 174 l 1042 174 l 1042 347 l 1215 347 l 1215 1042 "},"ŵ":{"ha":1389,"x_min":0,"x_max":1215,"o":"m 521 1042 l 521 1215 l 694 1215 l 694 1042 l 1042 1042 l 1042 1215 l 868 1215 l 868 1389 l 347 1389 l 347 1215 l 174 1215 l 174 1042 l 521 1042 m 347 347 l 347 868 l 0 868 l 0 347 l 174 347 l 174 174 l 521 174 l 521 347 l 347 347 m 694 868 l 521 868 l 521 347 l 694 347 l 694 868 m 1215 868 l 868 868 l 868 347 l 694 347 l 694 174 l 1042 174 l 1042 347 l 1215 347 l 1215 868 "},"x":{"ha":1389,"x_min":0,"x_max":1215,"o":"m 0 174 l 347 174 l 347 347 l 521 347 l 521 521 l 694 521 l 694 347 l 868 347 l 868 174 l 1215 174 l 1215 347 l 1042 347 l 1042 521 l 868 521 l 868 694 l 1042 694 l 1042 868 l 1215 868 l 1215 1042 l 868 1042 l 868 868 l 694 868 l 694 694 l 521 694 l 521 868 l 347 868 l 347 1042 l 0 1042 l 0 868 l 174 868 l 174 694 l 347 694 l 347 521 l 174 521 l 174 347 l 0 347 l 0 174 "},"y":{"ha":1389,"x_min":0,"x_max":1215,"o":"m 174 0 l 1042 0 l 1042 174 l 1215 174 l 1215 1042 l 868 1042 l 868 521 l 347 521 l 347 1042 l 0 1042 l 0 521 l 174 521 l 174 347 l 868 347 l 868 174 l 174 174 l 174 0 "},"ý":{"ha":1389,"x_min":0,"x_max":1215,"o":"m 868 1215 l 868 1389 l 694 1389 l 694 1215 l 868 1215 m 694 1042 l 694 1215 l 521 1215 l 521 1042 l 694 1042 m 1215 1042 l 868 1042 l 868 521 l 347 521 l 347 1042 l 0 1042 l 0 521 l 174 521 l 174 347 l 868 347 l 868 174 l 174 174 l 174 0 l 1042 0 l 1042 174 l 1215 174 l 1215 1042 "},"ŷ":{"ha":1389,"x_min":0,"x_max":1215,"o":"m 174 1042 l 521 1042 l 521 1215 l 694 1215 l 694 1042 l 1042 1042 l 1042 1215 l 868 1215 l 868 1389 l 347 1389 l 347 1215 l 174 1215 l 174 1042 m 174 0 l 1042 0 l 1042 174 l 1215 174 l 1215 868 l 868 868 l 868 521 l 347 521 l 347 868 l 0 868 l 0 521 l 174 521 l 174 347 l 868 347 l 868 174 l 174 174 l 174 0 "},"ÿ":{"ha":1389,"x_min":0,"x_max":1215,"o":"m 174 1215 l 521 1215 l 521 1389 l 174 1389 l 174 1215 m 694 1215 l 1042 1215 l 1042 1389 l 694 1389 l 694 1215 m 174 0 l 1042 0 l 1042 174 l 1215 174 l 1215 1042 l 868 1042 l 868 521 l 347 521 l 347 1042 l 0 1042 l 0 521 l 174 521 l 174 347 l 868 347 l 868 174 l 174 174 l 174 0 "},"z":{"ha":1389,"x_min":0,"x_max":1215,"o":"m 0 174 l 1215 174 l 1215 347 l 694 347 l 694 521 l 868 521 l 868 694 l 1042 694 l 1042 868 l 1215 868 l 1215 1042 l 0 1042 l 0 868 l 521 868 l 521 694 l 347 694 l 347 521 l 174 521 l 174 347 l 0 347 l 0 174 "},"ź":{"ha":1389,"x_min":0,"x_max":1215,"o":"m 868 1215 l 868 1389 l 694 1389 l 694 1215 l 868 1215 m 1215 1042 l 694 1042 l 694 1215 l 521 1215 l 521 1042 l 0 1042 l 0 868 l 521 868 l 521 694 l 347 694 l 347 521 l 174 521 l 174 347 l 0 347 l 0 174 l 1215 174 l 1215 347 l 694 347 l 694 521 l 868 521 l 868 694 l 1042 694 l 1042 868 l 1215 868 l 1215 1042 "},"ž":{"ha":1389,"x_min":0,"x_max":1215,"o":"m 0 174 l 1215 174 l 1215 347 l 694 347 l 694 521 l 868 521 l 868 694 l 1042 694 l 1042 868 l 1215 868 l 1215 1042 l 868 1042 l 868 1215 l 1042 1215 l 1042 1389 l 694 1389 l 694 1215 l 521 1215 l 521 1389 l 174 1389 l 174 1215 l 347 1215 l 347 1042 l 0 1042 l 0 868 l 521 868 l 521 694 l 347 694 l 347 521 l 174 521 l 174 347 l 0 347 l 0 174 "},"ż":{"ha":1389,"x_min":0,"x_max":1215,"o":"m 521 1215 l 868 1215 l 868 1389 l 521 1389 l 521 1215 m 0 174 l 1215 174 l 1215 347 l 694 347 l 694 521 l 868 521 l 868 694 l 1042 694 l 1042 868 l 1215 868 l 1215 1042 l 0 1042 l 0 868 l 521 868 l 521 694 l 347 694 l 347 521 l 174 521 l 174 347 l 0 347 l 0 174 "},"ﬁ":{"ha":1389,"x_min":0,"x_max":1215,"o":"m 174 174 l 521 174 l 521 868 l 868 868 l 868 174 l 1215 174 l 1215 1042 l 521 1042 l 521 1215 l 868 1215 l 868 1389 l 347 1389 l 347 1215 l 174 1215 l 174 1042 l 0 1042 l 0 868 l 174 868 l 174 174 "},"ﬂ":{"ha":1389,"x_min":0,"x_max":1215,"o":"m 174 174 l 521 174 l 521 868 l 868 868 l 868 174 l 1215 174 l 1215 1389 l 347 1389 l 347 1215 l 174 1215 l 174 1042 l 0 1042 l 0 868 l 174 868 l 174 174 m 521 1042 l 521 1215 l 868 1215 l 868 1042 l 521 1042 "},"ª":{"ha":1389,"x_min":174,"x_max":1042,"o":"m 347 694 l 1042 694 l 1042 1215 l 868 1215 l 868 1389 l 174 1389 l 174 1215 l 347 1215 l 347 1042 l 174 1042 l 174 868 l 347 868 l 347 694 m 521 868 l 521 1042 l 694 1042 l 694 868 l 521 868 "},"º":{"ha":1389,"x_min":174,"x_max":1042,"o":"m 347 694 l 868 694 l 868 868 l 1042 868 l 1042 1215 l 868 1215 l 868 1389 l 347 1389 l 347 1215 l 174 1215 l 174 868 l 347 868 l 347 694 m 521 868 l 521 1215 l 694 1215 l 694 868 l 521 868 "},"А":{"ha":1389,"x_min":0,"x_max":1215,"o":"m 0 174 l 347 174 l 347 521 l 868 521 l 868 174 l 1215 174 l 1215 1042 l 1042 1042 l 1042 1215 l 868 1215 l 868 1389 l 347 1389 l 347 1215 l 174 1215 l 174 1042 l 0 1042 l 0 174 m 347 694 l 347 1042 l 521 1042 l 521 1215 l 694 1215 l 694 1042 l 868 1042 l 868 694 l 347 694 "},"Б":{"ha":1389,"x_min":0,"x_max":1215,"o":"m 0 174 l 1042 174 l 1042 347 l 1215 347 l 1215 694 l 1042 694 l 1042 868 l 347 868 l 347 1215 l 1042 1215 l 1042 1389 l 0 1389 l 0 174 m 347 347 l 347 694 l 868 694 l 868 347 l 347 347 "},"В":{"ha":1389,"x_min":0,"x_max":1215,"o":"m 0 174 l 1042 174 l 1042 347 l 1215 347 l 1215 694 l 1042 694 l 1042 868 l 1215 868 l 1215 1215 l 1042 1215 l 1042 1389 l 0 1389 l 0 174 m 347 868 l 347 1215 l 868 1215 l 868 868 l 347 868 m 347 347 l 347 694 l 868 694 l 868 347 l 347 347 "},"Г":{"ha":1389,"x_min":174,"x_max":1215,"o":"m 174 174 l 521 174 l 521 1215 l 1042 1215 l 1042 1042 l 1215 1042 l 1215 1389 l 174 1389 l 174 174 "},"Ѓ":{"ha":1389,"x_min":174,"x_max":1215,"o":"m 868 1215 l 868 1389 l 694 1389 l 694 1215 l 868 1215 m 1215 1042 l 694 1042 l 694 1215 l 521 1215 l 521 1042 l 174 1042 l 174 174 l 521 174 l 521 868 l 1042 868 l 1042 694 l 1215 694 l 1215 1042 "},"Ґ":{"ha":1389,"x_min":174,"x_max":1215,"o":"m 868 1389 l 868 1215 l 174 1215 l 174 174 l 521 174 l 521 1042 l 1215 1042 l 1215 1389 l 868 1389 "},"Д":{"ha":1389,"x_min":0,"x_max":1389,"o":"m 0 0 l 347 0 l 347 174 l 1042 174 l 1042 0 l 1389 0 l 1389 347 l 1215 347 l 1215 1389 l 347 1389 l 347 694 l 174 694 l 174 347 l 0 347 l 0 0 m 521 347 l 521 1215 l 868 1215 l 868 347 l 521 347 "},"Е":{"ha":1389,"x_min":0,"x_max":1215,"o":"m 0 174 l 1215 174 l 1215 347 l 347 347 l 347 694 l 1042 694 l 1042 868 l 347 868 l 347 1215 l 1215 1215 l 1215 1389 l 0 1389 l 0 174 "},"Ѐ":{"ha":1389,"x_min":0,"x_max":1215,"o":"m 521 1389 l 347 1389 l 347 1215 l 521 1215 l 521 1389 m 1215 1042 l 694 1042 l 694 1215 l 521 1215 l 521 1042 l 0 1042 l 0 174 l 1215 174 l 1215 347 l 347 347 l 347 521 l 1042 521 l 1042 694 l 347 694 l 347 868 l 1215 868 l 1215 1042 "},"Ё":{"ha":1389,"x_min":0,"x_max":1215,"o":"m 174 1215 l 521 1215 l 521 1389 l 174 1389 l 174 1215 m 694 1215 l 1042 1215 l 1042 1389 l 694 1389 l 694 1215 m 0 174 l 1215 174 l 1215 347 l 347 347 l 347 521 l 1042 521 l 1042 694 l 347 694 l 347 868 l 1215 868 l 1215 1042 l 0 1042 l 0 174 "},"Ж":{"ha":1389,"x_min":0,"x_max":1215,"o":"m 347 1389 l 0 1389 l 0 1042 l 174 1042 l 174 868 l 347 868 l 347 1389 m 694 868 l 694 1389 l 521 1389 l 521 868 l 347 868 l 347 694 l 521 694 l 521 174 l 694 174 l 694 694 l 868 694 l 868 868 l 694 868 m 1215 1389 l 868 1389 l 868 868 l 1042 868 l 1042 1042 l 1215 1042 l 1215 1389 m 174 694 l 174 521 l 0 521 l 0 174 l 347 174 l 347 694 l 174 694 m 868 174 l 1215 174 l 1215 521 l 1042 521 l 1042 694 l 868 694 l 868 174 "},"З":{"ha":1389,"x_min":0,"x_max":1215,"o":"m 174 174 l 1042 174 l 1042 347 l 1215 347 l 1215 694 l 1042 694 l 1042 868 l 1215 868 l 1215 1215 l 1042 1215 l 1042 1389 l 174 1389 l 174 1215 l 0 1215 l 0 1042 l 347 1042 l 347 1215 l 868 1215 l 868 868 l 347 868 l 347 694 l 868 694 l 868 347 l 347 347 l 347 521 l 0 521 l 0 347 l 174 347 l 174 174 "},"И":{"ha":1389,"x_min":0,"x_max":1215,"o":"m 0 174 l 347 174 l 347 347 l 521 347 l 521 521 l 694 521 l 694 694 l 868 694 l 868 174 l 1215 174 l 1215 1389 l 868 1389 l 868 1042 l 694 1042 l 694 868 l 521 868 l 521 694 l 347 694 l 347 1389 l 0 1389 l 0 174 "},"Й":{"ha":1389,"x_min":0,"x_max":1215,"o":"m 174 1215 l 1042 1215 l 1042 1389 l 174 1389 l 174 1215 m 0 174 l 521 174 l 521 347 l 694 347 l 694 521 l 868 521 l 868 174 l 1215 174 l 1215 1042 l 868 1042 l 868 868 l 694 868 l 694 694 l 521 694 l 521 521 l 347 521 l 347 1042 l 0 1042 l 0 174 "},"Ѝ":{"ha":1389,"x_min":0,"x_max":1215,"o":"m 521 1215 l 521 1389 l 347 1389 l 347 1215 l 521 1215 m 521 1042 l 694 1042 l 694 1215 l 521 1215 l 521 1042 m 1215 1042 l 868 1042 l 868 868 l 694 868 l 694 694 l 521 694 l 521 521 l 347 521 l 347 1042 l 0 1042 l 0 174 l 521 174 l 521 347 l 694 347 l 694 521 l 868 521 l 868 174 l 1215 174 l 1215 1042 "},"К":{"ha":1389,"x_min":0,"x_max":1215,"o":"m 521 1042 l 521 868 l 347 868 l 347 1389 l 0 1389 l 0 174 l 347 174 l 347 694 l 694 694 l 694 347 l 868 347 l 868 174 l 1215 174 l 1215 347 l 1042 347 l 1042 694 l 868 694 l 868 868 l 694 868 l 694 1042 l 521 1042 m 1215 1389 l 868 1389 l 868 1215 l 694 1215 l 694 1042 l 1042 1042 l 1042 1215 l 1215 1215 l 1215 1389 "},"Ќ":{"ha":1389,"x_min":0,"x_max":1215,"o":"m 868 1215 l 868 1389 l 694 1389 l 694 1215 l 868 1215 m 694 1042 l 694 1215 l 521 1215 l 521 1042 l 694 1042 m 694 868 l 694 694 l 347 694 l 347 1042 l 0 1042 l 0 174 l 347 174 l 347 521 l 868 521 l 868 174 l 1215 174 l 1215 521 l 1042 521 l 1042 694 l 868 694 l 868 868 l 694 868 m 1215 1042 l 868 1042 l 868 868 l 1215 868 l 1215 1042 "},"Л":{"ha":1389,"x_min":0,"x_max":1215,"o":"m 0 174 l 347 174 l 347 347 l 521 347 l 521 1215 l 868 1215 l 868 174 l 1215 174 l 1215 1389 l 347 1389 l 347 694 l 174 694 l 174 521 l 0 521 l 0 174 "},"М":{"ha":1389,"x_min":0,"x_max":1215,"o":"m 0 174 l 347 174 l 347 868 l 521 868 l 521 521 l 694 521 l 694 868 l 868 868 l 868 174 l 1215 174 l 1215 1389 l 868 1389 l 868 1215 l 694 1215 l 694 1042 l 521 1042 l 521 1215 l 347 1215 l 347 1389 l 0 1389 l 0 174 "},"Н":{"ha":1389,"x_min":0,"x_max":1215,"o":"m 0 174 l 347 174 l 347 694 l 868 694 l 868 174 l 1215 174 l 1215 1389 l 868 1389 l 868 868 l 347 868 l 347 1389 l 0 1389 l 0 174 "},"О":{"ha":1389,"x_min":0,"x_max":1215,"o":"m 174 174 l 1042 174 l 1042 347 l 1215 347 l 1215 1215 l 1042 1215 l 1042 1389 l 174 1389 l 174 1215 l 0 1215 l 0 347 l 174 347 l 174 174 m 347 347 l 347 1215 l 868 1215 l 868 347 l 347 347 "},"П":{"ha":1389,"x_min":0,"x_max":1215,"o":"m 0 174 l 347 174 l 347 1215 l 868 1215 l 868 174 l 1215 174 l 1215 1389 l 0 1389 l 0 174 "},"Р":{"ha":1389,"x_min":0,"x_max":1215,"o":"m 0 174 l 347 174 l 347 521 l 1042 521 l 1042 694 l 1215 694 l 1215 1215 l 1042 1215 l 1042 1389 l 0 1389 l 0 174 m 347 694 l 347 1215 l 868 1215 l 868 694 l 347 694 "},"С":{"ha":1389,"x_min":0,"x_max":1215,"o":"m 347 174 l 1042 174 l 1042 347 l 1215 347 l 1215 521 l 868 521 l 868 347 l 521 347 l 521 521 l 347 521 l 347 1042 l 521 1042 l 521 1215 l 868 1215 l 868 1042 l 1215 1042 l 1215 1215 l 1042 1215 l 1042 1389 l 347 1389 l 347 1215 l 174 1215 l 174 1042 l 0 1042 l 0 521 l 174 521 l 174 347 l 347 347 l 347 174 "},"Т":{"ha":1389,"x_min":174,"x_max":1215,"o":"m 521 174 l 868 174 l 868 1215 l 1215 1215 l 1215 1389 l 174 1389 l 174 1215 l 521 1215 l 521 174 "},"У":{"ha":1389,"x_min":0,"x_max":1215,"o":"m 174 174 l 1042 174 l 1042 347 l 1215 347 l 1215 1389 l 868 1389 l 868 868 l 347 868 l 347 1389 l 0 1389 l 0 868 l 174 868 l 174 694 l 868 694 l 868 347 l 347 347 l 347 521 l 0 521 l 0 347 l 174 347 l 174 174 "},"Ў":{"ha":1389,"x_min":0,"x_max":1215,"o":"m 174 1215 l 1042 1215 l 1042 1389 l 174 1389 l 174 1215 m 174 0 l 1042 0 l 1042 174 l 1215 174 l 1215 1042 l 868 1042 l 868 521 l 347 521 l 347 1042 l 0 1042 l 0 521 l 174 521 l 174 347 l 868 347 l 868 174 l 174 174 l 174 0 "},"Ф":{"ha":1389,"x_min":0,"x_max":1215,"o":"m 521 174 l 694 174 l 694 347 l 1042 347 l 1042 521 l 1215 521 l 1215 1042 l 1042 1042 l 1042 1215 l 694 1215 l 694 1389 l 521 1389 l 521 1215 l 174 1215 l 174 1042 l 0 1042 l 0 521 l 174 521 l 174 347 l 521 347 l 521 174 m 347 521 l 347 1042 l 521 1042 l 521 521 l 347 521 m 694 521 l 694 1042 l 868 1042 l 868 521 l 694 521 "},"Х":{"ha":1389,"x_min":0,"x_max":1215,"o":"m 0 174 l 347 174 l 347 521 l 521 521 l 521 694 l 694 694 l 694 521 l 868 521 l 868 174 l 1215 174 l 1215 521 l 1042 521 l 1042 694 l 868 694 l 868 868 l 1042 868 l 1042 1042 l 1215 1042 l 1215 1389 l 868 1389 l 868 1042 l 694 1042 l 694 868 l 521 868 l 521 1042 l 347 1042 l 347 1389 l 0 1389 l 0 1042 l 174 1042 l 174 868 l 347 868 l 347 694 l 174 694 l 174 521 l 0 521 l 0 174 "},"Ч":{"ha":1389,"x_min":0,"x_max":1215,"o":"m 868 174 l 1215 174 l 1215 1389 l 868 1389 l 868 868 l 347 868 l 347 1389 l 0 1389 l 0 868 l 174 868 l 174 694 l 868 694 l 868 174 "},"Ц":{"ha":1389,"x_min":0,"x_max":1215,"o":"m 868 0 l 1215 0 l 1215 347 l 1042 347 l 1042 1389 l 694 1389 l 694 347 l 347 347 l 347 1389 l 0 1389 l 0 174 l 868 174 l 868 0 "},"Ш":{"ha":1389,"x_min":0,"x_max":1215,"o":"m 0 174 l 1215 174 l 1215 1389 l 868 1389 l 868 347 l 694 347 l 694 1389 l 521 1389 l 521 347 l 347 347 l 347 1389 l 0 1389 l 0 174 "},"Щ":{"ha":1389,"x_min":0,"x_max":1389,"o":"m 1042 0 l 1389 0 l 1389 347 l 1215 347 l 1215 1389 l 868 1389 l 868 347 l 694 347 l 694 1389 l 521 1389 l 521 347 l 347 347 l 347 1389 l 0 1389 l 0 174 l 1042 174 l 1042 0 "},"Џ":{"ha":1389,"x_min":0,"x_max":1215,"o":"m 521 0 l 694 0 l 694 174 l 1215 174 l 1215 1389 l 868 1389 l 868 347 l 347 347 l 347 1389 l 0 1389 l 0 174 l 521 174 l 521 0 "},"Ь":{"ha":1389,"x_min":0,"x_max":1215,"o":"m 0 174 l 1042 174 l 1042 347 l 1215 347 l 1215 868 l 1042 868 l 1042 1042 l 347 1042 l 347 1389 l 0 1389 l 0 174 m 347 347 l 347 868 l 868 868 l 868 347 l 347 347 "},"Ъ":{"ha":1389,"x_min":0,"x_max":1215,"o":"m 174 174 l 1042 174 l 1042 347 l 1215 347 l 1215 868 l 1042 868 l 1042 1042 l 521 1042 l 521 1389 l 0 1389 l 0 1215 l 174 1215 l 174 174 m 521 347 l 521 868 l 868 868 l 868 347 l 521 347 "},"Ы":{"ha":1389,"x_min":0,"x_max":1215,"o":"m 0 174 l 694 174 l 694 1042 l 347 1042 l 347 1389 l 0 1389 l 0 174 m 868 174 l 1215 174 l 1215 1389 l 868 1389 l 868 174 m 347 347 l 347 868 l 521 868 l 521 347 l 347 347 "},"Љ":{"ha":1389,"x_min":0,"x_max":1215,"o":"m 0 174 l 347 174 l 347 1215 l 521 1215 l 521 174 l 1215 174 l 1215 1042 l 868 1042 l 868 1389 l 174 1389 l 174 521 l 0 521 l 0 174 m 868 347 l 868 868 l 1042 868 l 1042 347 l 868 347 "},"Њ":{"ha":1389,"x_min":0,"x_max":1215,"o":"m 0 174 l 347 174 l 347 694 l 521 694 l 521 174 l 1215 174 l 1215 1042 l 868 1042 l 868 1389 l 521 1389 l 521 868 l 347 868 l 347 1389 l 0 1389 l 0 174 m 868 347 l 868 868 l 1042 868 l 1042 347 l 868 347 "},"Ѕ":{"ha":1389,"x_min":0,"x_max":1215,"o":"m 174 174 l 1042 174 l 1042 347 l 1215 347 l 1215 694 l 1042 694 l 1042 868 l 347 868 l 347 1215 l 868 1215 l 868 1042 l 1215 1042 l 1215 1215 l 1042 1215 l 1042 1389 l 174 1389 l 174 1215 l 0 1215 l 0 868 l 174 868 l 174 694 l 868 694 l 868 347 l 347 347 l 347 521 l 0 521 l 0 347 l 174 347 l 174 174 "},"Є":{"ha":1389,"x_min":0,"x_max":1215,"o":"m 347 174 l 1042 174 l 1042 347 l 1215 347 l 1215 521 l 868 521 l 868 347 l 521 347 l 521 521 l 347 521 l 347 694 l 1042 694 l 1042 868 l 347 868 l 347 1042 l 521 1042 l 521 1215 l 868 1215 l 868 1042 l 1215 1042 l 1215 1215 l 1042 1215 l 1042 1389 l 347 1389 l 347 1215 l 174 1215 l 174 1042 l 0 1042 l 0 521 l 174 521 l 174 347 l 347 347 l 347 174 "},"Э":{"ha":1389,"x_min":0,"x_max":1215,"o":"m 174 174 l 868 174 l 868 347 l 1042 347 l 1042 521 l 1215 521 l 1215 1042 l 1042 1042 l 1042 1215 l 868 1215 l 868 1389 l 174 1389 l 174 1215 l 0 1215 l 0 1042 l 347 1042 l 347 1215 l 694 1215 l 694 1042 l 868 1042 l 868 868 l 174 868 l 174 694 l 868 694 l 868 521 l 694 521 l 694 347 l 347 347 l 347 521 l 0 521 l 0 347 l 174 347 l 174 174 "},"І":{"ha":1389,"x_min":174,"x_max":1215,"o":"m 174 174 l 1215 174 l 1215 347 l 868 347 l 868 1215 l 1215 1215 l 1215 1389 l 174 1389 l 174 1215 l 521 1215 l 521 347 l 174 347 l 174 174 "},"Ї":{"ha":1389,"x_min":174,"x_max":1215,"o":"m 174 1215 l 521 1215 l 521 1389 l 174 1389 l 174 1215 m 868 1215 l 1215 1215 l 1215 1389 l 868 1389 l 868 1215 m 174 174 l 1215 174 l 1215 347 l 868 347 l 868 868 l 1215 868 l 1215 1042 l 174 1042 l 174 868 l 521 868 l 521 347 l 174 347 l 174 174 "},"Ј":{"ha":1389,"x_min":0,"x_max":1215,"o":"m 174 174 l 1042 174 l 1042 347 l 1215 347 l 1215 1389 l 868 1389 l 868 347 l 347 347 l 347 521 l 0 521 l 0 347 l 174 347 l 174 174 "},"Ћ":{"ha":1389,"x_min":0,"x_max":1215,"o":"m 174 174 l 521 174 l 521 868 l 868 868 l 868 174 l 1215 174 l 1215 868 l 1042 868 l 1042 1042 l 521 1042 l 521 1215 l 868 1215 l 868 1389 l 0 1389 l 0 1215 l 174 1215 l 174 174 "},"Ю":{"ha":1389,"x_min":0,"x_max":1215,"o":"m 0 174 l 174 174 l 174 694 l 347 694 l 347 347 l 521 347 l 521 174 l 1042 174 l 1042 347 l 1215 347 l 1215 1215 l 1042 1215 l 1042 1389 l 521 1389 l 521 1215 l 347 1215 l 347 868 l 174 868 l 174 1389 l 0 1389 l 0 174 m 694 347 l 694 1215 l 868 1215 l 868 347 l 694 347 "},"Я":{"ha":1389,"x_min":0,"x_max":1215,"o":"m 0 174 l 521 174 l 521 521 l 868 521 l 868 174 l 1215 174 l 1215 1389 l 174 1389 l 174 1215 l 0 1215 l 0 694 l 347 694 l 347 521 l 174 521 l 174 347 l 0 347 l 0 174 m 521 694 l 521 868 l 347 868 l 347 1215 l 868 1215 l 868 694 l 521 694 "},"Ђ":{"ha":1389,"x_min":0,"x_max":1215,"o":"m 694 0 l 1042 0 l 1042 174 l 1215 174 l 1215 868 l 1042 868 l 1042 1042 l 521 1042 l 521 1215 l 868 1215 l 868 1389 l 0 1389 l 0 1215 l 174 1215 l 174 174 l 521 174 l 521 868 l 868 868 l 868 174 l 694 174 l 694 0 "},"Ѣ":{"ha":1389,"x_min":0,"x_max":1215,"o":"m 1215 694 l 1042 694 l 1042 868 l 521 868 l 521 1042 l 868 1042 l 868 1215 l 521 1215 l 521 1389 l 174 1389 l 174 1215 l 0 1215 l 0 1042 l 174 1042 l 174 174 l 1042 174 l 1042 347 l 1215 347 l 1215 694 m 868 694 l 868 347 l 521 347 l 521 694 l 868 694 "},"Ѫ":{"ha":1389,"x_min":0,"x_max":1215,"o":"m 1215 1389 l 0 1389 l 0 1042 l 174 1042 l 174 1215 l 1042 1215 l 1042 1042 l 1215 1042 l 1215 1389 m 174 1042 l 174 868 l 347 868 l 347 1042 l 174 1042 m 868 868 l 1042 868 l 1042 1042 l 868 1042 l 868 868 m 347 868 l 347 694 l 521 694 l 521 174 l 694 174 l 694 694 l 868 694 l 868 868 l 347 868 m 174 694 l 174 521 l 0 521 l 0 174 l 347 174 l 347 694 l 174 694 m 868 174 l 1215 174 l 1215 521 l 1042 521 l 1042 694 l 868 694 l 868 174 "},"Ѳ":{"ha":1389,"x_min":0,"x_max":1215,"o":"m 174 174 l 1042 174 l 1042 347 l 1215 347 l 1215 1215 l 1042 1215 l 1042 1389 l 174 1389 l 174 1215 l 0 1215 l 0 347 l 174 347 l 174 174 m 347 347 l 347 1215 l 868 1215 l 868 347 l 347 347 m 174 694 l 174 868 l 1042 868 l 1042 694 l 174 694 "},"Ѵ":{"ha":1389,"x_min":0,"x_max":1215,"o":"m 521 174 l 694 174 l 694 347 l 868 347 l 868 521 l 1042 521 l 1042 1042 l 1215 1042 l 1215 1389 l 868 1389 l 868 694 l 694 694 l 694 521 l 521 521 l 521 694 l 347 694 l 347 1389 l 0 1389 l 0 694 l 174 694 l 174 521 l 347 521 l 347 347 l 521 347 l 521 174 "},"Ғ":{"ha":1389,"x_min":0,"x_max":1215,"o":"m 1215 1389 l 174 1389 l 174 868 l 0 868 l 0 694 l 174 694 l 174 174 l 521 174 l 521 694 l 868 694 l 868 868 l 521 868 l 521 1215 l 1042 1215 l 1042 1042 l 1215 1042 l 1215 1389 "},"Ҕ":{"ha":1389,"x_min":174,"x_max":1215,"o":"m 1215 1389 l 174 1389 l 174 174 l 521 174 l 521 694 l 868 694 l 868 174 l 694 174 l 694 0 l 1042 0 l 1042 174 l 1215 174 l 1215 694 l 1042 694 l 1042 868 l 521 868 l 521 1215 l 1042 1215 l 1042 1042 l 1215 1042 l 1215 1389 "},"Җ":{"ha":1389,"x_min":0,"x_max":1389,"o":"m 347 1389 l 0 1389 l 0 1042 l 174 1042 l 174 868 l 347 868 l 347 1389 m 868 868 l 694 868 l 694 1389 l 521 1389 l 521 868 l 347 868 l 347 694 l 521 694 l 521 174 l 694 174 l 694 694 l 868 694 l 868 868 m 1042 868 l 1042 1042 l 1215 1042 l 1215 1389 l 868 1389 l 868 868 l 1042 868 m 174 694 l 174 521 l 0 521 l 0 174 l 347 174 l 347 694 l 174 694 m 1215 347 l 1215 521 l 1042 521 l 1042 694 l 868 694 l 868 174 l 1042 174 l 1042 0 l 1389 0 l 1389 347 l 1215 347 "},"Ҙ":{"ha":1389,"x_min":0,"x_max":1215,"o":"m 1215 1215 l 1042 1215 l 1042 1389 l 174 1389 l 174 1215 l 0 1215 l 0 1042 l 347 1042 l 347 1215 l 868 1215 l 868 868 l 347 868 l 347 694 l 868 694 l 868 347 l 347 347 l 347 521 l 0 521 l 0 347 l 174 347 l 174 174 l 521 174 l 521 0 l 694 0 l 694 174 l 1042 174 l 1042 347 l 1215 347 l 1215 694 l 1042 694 l 1042 868 l 1215 868 l 1215 1215 "},"Қ":{"ha":1389,"x_min":0,"x_max":1215,"o":"m 521 1042 l 521 868 l 347 868 l 347 1389 l 0 1389 l 0 174 l 347 174 l 347 694 l 694 694 l 694 347 l 868 347 l 868 0 l 1215 0 l 1215 347 l 1042 347 l 1042 694 l 868 694 l 868 868 l 694 868 l 694 1042 l 521 1042 m 1215 1389 l 868 1389 l 868 1215 l 694 1215 l 694 1042 l 1042 1042 l 1042 1215 l 1215 1215 l 1215 1389 "},"Ҝ":{"ha":1389,"x_min":0,"x_max":1215,"o":"m 694 868 l 694 1042 l 521 1042 l 521 868 l 347 868 l 347 1389 l 0 1389 l 0 174 l 347 174 l 347 694 l 521 694 l 521 521 l 694 521 l 694 694 l 868 694 l 868 868 l 694 868 m 1042 1215 l 1215 1215 l 1215 1389 l 868 1389 l 868 868 l 1042 868 l 1042 1215 m 1215 174 l 1215 521 l 1042 521 l 1042 694 l 868 694 l 868 174 l 1215 174 "},"Ҡ":{"ha":1389,"x_min":0,"x_max":1215,"o":"m 868 1042 l 694 1042 l 694 868 l 521 868 l 521 1389 l 0 1389 l 0 1215 l 174 1215 l 174 174 l 521 174 l 521 694 l 694 694 l 694 347 l 868 347 l 868 174 l 1215 174 l 1215 347 l 1042 347 l 1042 694 l 868 694 l 868 1042 m 1042 1215 l 1215 1215 l 1215 1389 l 868 1389 l 868 1042 l 1042 1042 l 1042 1215 "},"Ң":{"ha":1389,"x_min":0,"x_max":1389,"o":"m 1215 347 l 1215 1389 l 868 1389 l 868 868 l 347 868 l 347 1389 l 0 1389 l 0 174 l 347 174 l 347 694 l 868 694 l 868 174 l 1042 174 l 1042 0 l 1389 0 l 1389 347 l 1215 347 "},"Ԥ":{"ha":1389,"x_min":0,"x_max":1389,"o":"m 1215 347 l 1215 1389 l 0 1389 l 0 174 l 347 174 l 347 1215 l 868 1215 l 868 174 l 1042 174 l 1042 0 l 1389 0 l 1389 347 l 1215 347 "},"Ҫ":{"ha":1389,"x_min":0,"x_max":1215,"o":"m 1215 1215 l 1042 1215 l 1042 1389 l 347 1389 l 347 1215 l 174 1215 l 174 1042 l 0 1042 l 0 521 l 174 521 l 174 347 l 347 347 l 347 174 l 521 174 l 521 0 l 868 0 l 868 174 l 1042 174 l 1042 347 l 1215 347 l 1215 521 l 868 521 l 868 347 l 521 347 l 521 521 l 347 521 l 347 1042 l 521 1042 l 521 1215 l 868 1215 l 868 1042 l 1215 1042 l 1215 1215 "},"Ҭ":{"ha":1389,"x_min":174,"x_max":1215,"o":"m 1215 1389 l 174 1389 l 174 1215 l 521 1215 l 521 174 l 694 174 l 694 0 l 1042 0 l 1042 347 l 868 347 l 868 1215 l 1215 1215 l 1215 1389 "},"Ү":{"ha":1389,"x_min":174,"x_max":1215,"o":"m 521 174 l 868 174 l 868 694 l 1042 694 l 1042 868 l 1215 868 l 1215 1389 l 868 1389 l 868 868 l 521 868 l 521 1389 l 174 1389 l 174 868 l 347 868 l 347 694 l 521 694 l 521 174 "},"Ұ":{"ha":1389,"x_min":174,"x_max":1215,"o":"m 1215 1389 l 868 1389 l 868 868 l 521 868 l 521 1389 l 174 1389 l 174 868 l 347 868 l 347 694 l 521 694 l 521 521 l 347 521 l 347 347 l 521 347 l 521 174 l 868 174 l 868 347 l 1042 347 l 1042 521 l 868 521 l 868 694 l 1042 694 l 1042 868 l 1215 868 l 1215 1389 "},"Ҷ":{"ha":1389,"x_min":0,"x_max":1389,"o":"m 1215 347 l 1215 1389 l 868 1389 l 868 868 l 347 868 l 347 1389 l 0 1389 l 0 868 l 174 868 l 174 694 l 868 694 l 868 174 l 1042 174 l 1042 0 l 1389 0 l 1389 347 l 1215 347 "},"Ҹ":{"ha":1389,"x_min":0,"x_max":1215,"o":"m 1215 1389 l 868 1389 l 868 868 l 694 868 l 694 1042 l 521 1042 l 521 868 l 347 868 l 347 1389 l 0 1389 l 0 868 l 174 868 l 174 694 l 521 694 l 521 521 l 694 521 l 694 694 l 868 694 l 868 174 l 1215 174 l 1215 1389 "},"Һ":{"ha":1389,"x_min":174,"x_max":1389,"o":"m 174 174 l 521 174 l 521 694 l 1042 694 l 1042 174 l 1389 174 l 1389 694 l 1215 694 l 1215 868 l 521 868 l 521 1389 l 174 1389 l 174 174 "},"Ӏ":{"ha":1389,"x_min":174,"x_max":1215,"o":"m 174 174 l 1215 174 l 1215 347 l 868 347 l 868 1215 l 1215 1215 l 1215 1389 l 174 1389 l 174 1215 l 521 1215 l 521 347 l 174 347 l 174 174 "},"Ӂ":{"ha":1389,"x_min":0,"x_max":1215,"o":"m 174 1215 l 1042 1215 l 1042 1389 l 174 1389 l 174 1215 m 0 174 l 347 174 l 347 521 l 521 521 l 521 174 l 694 174 l 694 521 l 868 521 l 868 174 l 1215 174 l 1215 521 l 1042 521 l 1042 694 l 1215 694 l 1215 1042 l 868 1042 l 868 694 l 694 694 l 694 1042 l 521 1042 l 521 694 l 347 694 l 347 1042 l 0 1042 l 0 694 l 174 694 l 174 521 l 0 521 l 0 174 "},"Ӌ":{"ha":1389,"x_min":0,"x_max":1389,"o":"m 1215 347 l 1215 1389 l 868 1389 l 868 868 l 347 868 l 347 1389 l 0 1389 l 0 868 l 174 868 l 174 694 l 868 694 l 868 174 l 1042 174 l 1042 0 l 1389 0 l 1389 347 l 1215 347 "},"Ӑ":{"ha":1389,"x_min":0,"x_max":1215,"o":"m 174 1215 l 1042 1215 l 1042 1389 l 174 1389 l 174 1215 m 0 174 l 347 174 l 347 347 l 868 347 l 868 174 l 1215 174 l 1215 694 l 1042 694 l 1042 868 l 868 868 l 868 1042 l 347 1042 l 347 868 l 174 868 l 174 694 l 0 694 l 0 174 m 347 521 l 347 694 l 521 694 l 521 868 l 694 868 l 694 694 l 868 694 l 868 521 l 347 521 "},"Ӓ":{"ha":1389,"x_min":0,"x_max":1215,"o":"m 174 1215 l 521 1215 l 521 1389 l 174 1389 l 174 1215 m 694 1215 l 1042 1215 l 1042 1389 l 694 1389 l 694 1215 m 0 174 l 347 174 l 347 347 l 868 347 l 868 174 l 1215 174 l 1215 694 l 1042 694 l 1042 868 l 868 868 l 868 1042 l 347 1042 l 347 868 l 174 868 l 174 694 l 0 694 l 0 174 m 347 521 l 347 694 l 521 694 l 521 868 l 694 868 l 694 694 l 868 694 l 868 521 l 347 521 "},"Ӗ":{"ha":1389,"x_min":0,"x_max":1215,"o":"m 174 1215 l 1042 1215 l 1042 1389 l 174 1389 l 174 1215 m 0 174 l 1215 174 l 1215 347 l 347 347 l 347 521 l 1042 521 l 1042 694 l 347 694 l 347 868 l 1215 868 l 1215 1042 l 0 1042 l 0 174 "},"Ә":{"ha":1389,"x_min":0,"x_max":1215,"o":"m 1215 1215 l 1042 1215 l 1042 1389 l 174 1389 l 174 1215 l 0 1215 l 0 1042 l 347 1042 l 347 1215 l 868 1215 l 868 868 l 0 868 l 0 347 l 174 347 l 174 174 l 1042 174 l 1042 347 l 1215 347 l 1215 1215 m 868 347 l 347 347 l 347 694 l 868 694 l 868 347 "},"Ӝ":{"ha":1389,"x_min":0,"x_max":1215,"o":"m 174 1215 l 521 1215 l 521 1389 l 174 1389 l 174 1215 m 694 1215 l 1042 1215 l 1042 1389 l 694 1389 l 694 1215 m 0 174 l 347 174 l 347 521 l 521 521 l 521 174 l 694 174 l 694 521 l 868 521 l 868 174 l 1215 174 l 1215 521 l 1042 521 l 1042 694 l 1215 694 l 1215 1042 l 868 1042 l 868 694 l 694 694 l 694 1042 l 521 1042 l 521 694 l 347 694 l 347 1042 l 0 1042 l 0 694 l 174 694 l 174 521 l 0 521 l 0 174 "},"Ӟ":{"ha":1389,"x_min":0,"x_max":1215,"o":"m 174 1215 l 521 1215 l 521 1389 l 174 1389 l 174 1215 m 694 1215 l 1042 1215 l 1042 1389 l 694 1389 l 694 1215 m 174 174 l 1042 174 l 1042 347 l 1215 347 l 1215 521 l 1042 521 l 1042 694 l 1215 694 l 1215 868 l 1042 868 l 1042 1042 l 174 1042 l 174 868 l 0 868 l 0 694 l 347 694 l 347 868 l 868 868 l 868 694 l 521 694 l 521 521 l 868 521 l 868 347 l 347 347 l 347 521 l 0 521 l 0 347 l 174 347 l 174 174 "},"Ӣ":{"ha":1389,"x_min":0,"x_max":1215,"o":"m 174 1215 l 1042 1215 l 1042 1389 l 174 1389 l 174 1215 m 0 174 l 521 174 l 521 347 l 694 347 l 694 521 l 868 521 l 868 174 l 1215 174 l 1215 1042 l 868 1042 l 868 868 l 694 868 l 694 694 l 521 694 l 521 521 l 347 521 l 347 1042 l 0 1042 l 0 174 "},"Ӥ":{"ha":1389,"x_min":0,"x_max":1215,"o":"m 174 1215 l 521 1215 l 521 1389 l 174 1389 l 174 1215 m 694 1215 l 1042 1215 l 1042 1389 l 694 1389 l 694 1215 m 0 174 l 521 174 l 521 347 l 694 347 l 694 521 l 868 521 l 868 174 l 1215 174 l 1215 1042 l 868 1042 l 868 868 l 694 868 l 694 694 l 521 694 l 521 521 l 347 521 l 347 1042 l 0 1042 l 0 174 "},"Ӧ":{"ha":1389,"x_min":0,"x_max":1215,"o":"m 174 1215 l 521 1215 l 521 1389 l 174 1389 l 174 1215 m 694 1215 l 1042 1215 l 1042 1389 l 694 1389 l 694 1215 m 174 174 l 1042 174 l 1042 347 l 1215 347 l 1215 868 l 1042 868 l 1042 1042 l 174 1042 l 174 868 l 0 868 l 0 347 l 174 347 l 174 174 m 347 347 l 347 868 l 868 868 l 868 347 l 347 347 "},"Ө":{"ha":1389,"x_min":0,"x_max":1215,"o":"m 174 174 l 1042 174 l 1042 347 l 1215 347 l 1215 1215 l 1042 1215 l 1042 1389 l 174 1389 l 174 1215 l 0 1215 l 0 347 l 174 347 l 174 174 m 347 347 l 347 1215 l 868 1215 l 868 347 l 347 347 m 174 694 l 174 868 l 1042 868 l 1042 694 l 174 694 "},"Ӯ":{"ha":1389,"x_min":0,"x_max":1215,"o":"m 174 1215 l 1042 1215 l 1042 1389 l 174 1389 l 174 1215 m 174 174 l 1042 174 l 1042 347 l 1215 347 l 1215 1042 l 868 1042 l 868 694 l 347 694 l 347 1042 l 0 1042 l 0 694 l 174 694 l 174 521 l 868 521 l 868 347 l 174 347 l 174 174 "},"Ӱ":{"ha":1389,"x_min":0,"x_max":1215,"o":"m 174 1215 l 521 1215 l 521 1389 l 174 1389 l 174 1215 m 694 1215 l 1042 1215 l 1042 1389 l 694 1389 l 694 1215 m 174 174 l 1042 174 l 1042 347 l 1215 347 l 1215 1042 l 868 1042 l 868 694 l 347 694 l 347 1042 l 0 1042 l 0 694 l 174 694 l 174 521 l 868 521 l 868 347 l 174 347 l 174 174 "},"Ӳ":{"ha":1389,"x_min":0,"x_max":1215,"o":"m 521 1215 l 521 1389 l 347 1389 l 347 1215 l 521 1215 m 1042 1215 l 1042 1389 l 868 1389 l 868 1215 l 1042 1215 m 868 1042 l 868 694 l 347 694 l 347 1215 l 174 1215 l 174 1042 l 0 1042 l 0 694 l 174 694 l 174 521 l 868 521 l 868 347 l 174 347 l 174 174 l 1042 174 l 1042 347 l 1215 347 l 1215 1042 l 868 1042 m 868 1215 l 694 1215 l 694 1042 l 868 1042 l 868 1215 "},"Ӵ":{"ha":1389,"x_min":0,"x_max":1215,"o":"m 174 1215 l 521 1215 l 521 1389 l 174 1389 l 174 1215 m 694 1215 l 1042 1215 l 1042 1389 l 694 1389 l 694 1215 m 868 174 l 1215 174 l 1215 1042 l 868 1042 l 868 694 l 347 694 l 347 1042 l 0 1042 l 0 694 l 174 694 l 174 521 l 868 521 l 868 174 "},"Ӷ":{"ha":1389,"x_min":174,"x_max":1215,"o":"m 1215 1389 l 174 1389 l 174 174 l 347 174 l 347 0 l 694 0 l 694 347 l 521 347 l 521 1215 l 1042 1215 l 1042 1042 l 1215 1042 l 1215 1389 "},"Ӹ":{"ha":1389,"x_min":0,"x_max":1215,"o":"m 174 1215 l 521 1215 l 521 1389 l 174 1389 l 174 1215 m 694 1215 l 1042 1215 l 1042 1389 l 694 1389 l 694 1215 m 0 174 l 694 174 l 694 868 l 347 868 l 347 1042 l 0 1042 l 0 174 m 868 174 l 1215 174 l 1215 1042 l 868 1042 l 868 174 m 347 347 l 347 694 l 521 694 l 521 347 l 347 347 "},"Ԛ":{"ha":1389,"x_min":0,"x_max":1215,"o":"m 1215 1215 l 1042 1215 l 1042 1389 l 174 1389 l 174 1215 l 0 1215 l 0 347 l 174 347 l 174 174 l 868 174 l 868 347 l 1042 347 l 1042 521 l 1215 521 l 1215 1215 m 868 1215 l 868 694 l 521 694 l 521 521 l 694 521 l 694 347 l 347 347 l 347 1215 l 868 1215 m 1042 174 l 1215 174 l 1215 347 l 1042 347 l 1042 174 "},"Ԝ":{"ha":1389,"x_min":0,"x_max":1215,"o":"m 174 174 l 347 174 l 347 347 l 521 347 l 521 521 l 694 521 l 694 347 l 868 347 l 868 174 l 1042 174 l 1042 347 l 1215 347 l 1215 1389 l 868 1389 l 868 694 l 694 694 l 694 1389 l 521 1389 l 521 694 l 347 694 l 347 1389 l 0 1389 l 0 347 l 174 347 l 174 174 "},"а":{"ha":1389,"x_min":0,"x_max":1215,"o":"m 174 174 l 1215 174 l 1215 868 l 1042 868 l 1042 1042 l 174 1042 l 174 868 l 868 868 l 868 694 l 174 694 l 174 521 l 0 521 l 0 347 l 174 347 l 174 174 m 347 347 l 347 521 l 868 521 l 868 347 l 347 347 "},"б":{"ha":1389,"x_min":0,"x_max":1215,"o":"m 1215 1389 l 174 1389 l 174 1215 l 0 1215 l 0 347 l 174 347 l 174 174 l 1042 174 l 1042 347 l 1215 347 l 1215 868 l 1042 868 l 1042 1042 l 521 1042 l 521 868 l 868 868 l 868 347 l 347 347 l 347 694 l 521 694 l 521 868 l 347 868 l 347 1215 l 1215 1215 l 1215 1389 "},"в":{"ha":1389,"x_min":0,"x_max":1215,"o":"m 0 174 l 1042 174 l 1042 347 l 1215 347 l 1215 521 l 1042 521 l 1042 694 l 1215 694 l 1215 868 l 1042 868 l 1042 1042 l 0 1042 l 0 174 m 347 694 l 347 868 l 868 868 l 868 694 l 347 694 m 347 347 l 347 521 l 868 521 l 868 347 l 347 347 "},"г":{"ha":1389,"x_min":174,"x_max":1215,"o":"m 174 174 l 521 174 l 521 868 l 1042 868 l 1042 694 l 1215 694 l 1215 1042 l 174 1042 l 174 174 "},"ѓ":{"ha":1389,"x_min":174,"x_max":1215,"o":"m 1042 1215 l 1042 1389 l 868 1389 l 868 1215 l 1042 1215 m 1215 1042 l 868 1042 l 868 1215 l 694 1215 l 694 1042 l 174 1042 l 174 174 l 521 174 l 521 868 l 1042 868 l 1042 694 l 1215 694 l 1215 1042 "},"ґ":{"ha":1389,"x_min":174,"x_max":1215,"o":"m 868 1215 l 868 1042 l 174 1042 l 174 174 l 521 174 l 521 868 l 1215 868 l 1215 1215 l 868 1215 "},"д":{"ha":1389,"x_min":0,"x_max":1389,"o":"m 1215 347 l 1215 1042 l 347 1042 l 347 521 l 174 521 l 174 347 l 0 347 l 0 0 l 347 0 l 347 174 l 1042 174 l 1042 0 l 1389 0 l 1389 347 l 1215 347 m 521 347 l 521 868 l 868 868 l 868 347 l 521 347 "},"е":{"ha":1389,"x_min":0,"x_max":1215,"o":"m 174 174 l 1042 174 l 1042 347 l 347 347 l 347 521 l 1215 521 l 1215 868 l 1042 868 l 1042 1042 l 174 1042 l 174 868 l 0 868 l 0 347 l 174 347 l 174 174 m 347 694 l 347 868 l 868 868 l 868 694 l 347 694 "},"ѐ":{"ha":1389,"x_min":0,"x_max":1215,"o":"m 521 1389 l 347 1389 l 347 1215 l 521 1215 l 521 1389 m 1215 868 l 1042 868 l 1042 1042 l 694 1042 l 694 1215 l 521 1215 l 521 1042 l 174 1042 l 174 868 l 0 868 l 0 347 l 174 347 l 174 174 l 1042 174 l 1042 347 l 347 347 l 347 521 l 1215 521 l 1215 868 m 868 868 l 868 694 l 347 694 l 347 868 l 868 868 "},"ё":{"ha":1389,"x_min":0,"x_max":1215,"o":"m 174 1215 l 521 1215 l 521 1389 l 174 1389 l 174 1215 m 694 1215 l 1042 1215 l 1042 1389 l 694 1389 l 694 1215 m 174 174 l 1042 174 l 1042 347 l 347 347 l 347 521 l 1215 521 l 1215 868 l 1042 868 l 1042 1042 l 174 1042 l 174 868 l 0 868 l 0 347 l 174 347 l 174 174 m 347 694 l 347 868 l 868 868 l 868 694 l 347 694 "},"ж":{"ha":1389,"x_min":0,"x_max":1215,"o":"m 0 174 l 347 174 l 347 521 l 521 521 l 521 174 l 694 174 l 694 521 l 868 521 l 868 174 l 1215 174 l 1215 521 l 1042 521 l 1042 694 l 1215 694 l 1215 1042 l 868 1042 l 868 694 l 694 694 l 694 1042 l 521 1042 l 521 694 l 347 694 l 347 1042 l 0 1042 l 0 694 l 174 694 l 174 521 l 0 521 l 0 174 "},"з":{"ha":1389,"x_min":0,"x_max":1215,"o":"m 174 174 l 1042 174 l 1042 347 l 1215 347 l 1215 521 l 1042 521 l 1042 694 l 1215 694 l 1215 868 l 1042 868 l 1042 1042 l 174 1042 l 174 868 l 0 868 l 0 694 l 347 694 l 347 868 l 868 868 l 868 694 l 521 694 l 521 521 l 868 521 l 868 347 l 347 347 l 347 521 l 0 521 l 0 347 l 174 347 l 174 174 "},"и":{"ha":1389,"x_min":0,"x_max":1215,"o":"m 347 521 l 347 1042 l 0 1042 l 0 174 l 347 174 l 347 347 l 521 347 l 521 521 l 347 521 m 1215 1042 l 868 1042 l 868 868 l 694 868 l 694 694 l 868 694 l 868 174 l 1215 174 l 1215 1042 m 521 694 l 521 521 l 694 521 l 694 694 l 521 694 "},"й":{"ha":1389,"x_min":0,"x_max":1215,"o":"m 1042 1389 l 174 1389 l 174 1215 l 1042 1215 l 1042 1389 m 347 521 l 347 1042 l 0 1042 l 0 174 l 347 174 l 347 347 l 521 347 l 521 521 l 347 521 m 1215 1042 l 868 1042 l 868 868 l 694 868 l 694 694 l 868 694 l 868 174 l 1215 174 l 1215 1042 m 521 694 l 521 521 l 694 521 l 694 694 l 521 694 "},"ѝ":{"ha":1389,"x_min":0,"x_max":1215,"o":"m 521 1215 l 521 1389 l 347 1389 l 347 1215 l 521 1215 m 521 1042 l 694 1042 l 694 1215 l 521 1215 l 521 1042 m 347 521 l 347 1042 l 0 1042 l 0 174 l 347 174 l 347 347 l 521 347 l 521 521 l 347 521 m 1215 1042 l 868 1042 l 868 868 l 694 868 l 694 694 l 868 694 l 868 174 l 1215 174 l 1215 1042 m 521 694 l 521 521 l 694 521 l 694 694 l 521 694 "},"к":{"ha":1389,"x_min":0,"x_max":1215,"o":"m 694 868 l 694 694 l 347 694 l 347 1042 l 0 1042 l 0 174 l 347 174 l 347 521 l 868 521 l 868 174 l 1215 174 l 1215 521 l 1042 521 l 1042 694 l 868 694 l 868 868 l 694 868 m 1215 1042 l 868 1042 l 868 868 l 1215 868 l 1215 1042 "},"ќ":{"ha":1389,"x_min":0,"x_max":1215,"o":"m 868 1215 l 868 1389 l 694 1389 l 694 1215 l 868 1215 m 694 1042 l 694 1215 l 521 1215 l 521 1042 l 694 1042 m 694 868 l 694 694 l 347 694 l 347 1042 l 0 1042 l 0 174 l 347 174 l 347 521 l 868 521 l 868 174 l 1215 174 l 1215 521 l 1042 521 l 1042 694 l 868 694 l 868 868 l 694 868 m 1215 1042 l 868 1042 l 868 868 l 1215 868 l 1215 1042 "},"л":{"ha":1389,"x_min":0,"x_max":1215,"o":"m 1215 1042 l 347 1042 l 347 694 l 174 694 l 174 521 l 0 521 l 0 174 l 347 174 l 347 347 l 521 347 l 521 868 l 868 868 l 868 174 l 1215 174 l 1215 1042 "},"м":{"ha":1389,"x_min":0,"x_max":1215,"o":"m 521 868 l 347 868 l 347 1042 l 0 1042 l 0 174 l 347 174 l 347 694 l 521 694 l 521 868 m 1215 1042 l 868 1042 l 868 868 l 694 868 l 694 694 l 868 694 l 868 174 l 1215 174 l 1215 1042 m 521 694 l 521 347 l 694 347 l 694 694 l 521 694 "},"н":{"ha":1389,"x_min":0,"x_max":1215,"o":"m 0 174 l 347 174 l 347 521 l 868 521 l 868 174 l 1215 174 l 1215 1042 l 868 1042 l 868 694 l 347 694 l 347 1042 l 0 1042 l 0 174 "},"о":{"ha":1389,"x_min":0,"x_max":1215,"o":"m 174 174 l 1042 174 l 1042 347 l 1215 347 l 1215 868 l 1042 868 l 1042 1042 l 174 1042 l 174 868 l 0 868 l 0 347 l 174 347 l 174 174 m 347 347 l 347 868 l 868 868 l 868 347 l 347 347 "},"п":{"ha":1389,"x_min":0,"x_max":1215,"o":"m 0 174 l 347 174 l 347 868 l 868 868 l 868 174 l 1215 174 l 1215 1042 l 0 1042 l 0 174 "},"р":{"ha":1389,"x_min":0,"x_max":1215,"o":"m 1215 868 l 1042 868 l 1042 1042 l 521 1042 l 521 868 l 868 868 l 868 347 l 347 347 l 347 694 l 521 694 l 521 868 l 347 868 l 347 1042 l 0 1042 l 0 0 l 347 0 l 347 174 l 1042 174 l 1042 347 l 1215 347 l 1215 868 "},"с":{"ha":1389,"x_min":0,"x_max":1215,"o":"m 174 174 l 1042 174 l 1042 347 l 1215 347 l 1215 521 l 868 521 l 868 347 l 347 347 l 347 868 l 868 868 l 868 694 l 1215 694 l 1215 868 l 1042 868 l 1042 1042 l 174 1042 l 174 868 l 0 868 l 0 347 l 174 347 l 174 174 "},"т":{"ha":1389,"x_min":174,"x_max":1215,"o":"m 521 174 l 868 174 l 868 868 l 1215 868 l 1215 1042 l 174 1042 l 174 868 l 521 868 l 521 174 "},"у":{"ha":1389,"x_min":0,"x_max":1215,"o":"m 174 0 l 1042 0 l 1042 174 l 1215 174 l 1215 1042 l 868 1042 l 868 521 l 347 521 l 347 1042 l 0 1042 l 0 521 l 174 521 l 174 347 l 868 347 l 868 174 l 174 174 l 174 0 "},"ў":{"ha":1389,"x_min":0,"x_max":1215,"o":"m 174 1215 l 1042 1215 l 1042 1389 l 174 1389 l 174 1215 m 174 0 l 1042 0 l 1042 174 l 1215 174 l 1215 1042 l 868 1042 l 868 521 l 347 521 l 347 1042 l 0 1042 l 0 521 l 174 521 l 174 347 l 868 347 l 868 174 l 174 174 l 174 0 "},"ф":{"ha":1389,"x_min":0,"x_max":1215,"o":"m 521 0 l 694 0 l 694 174 l 1042 174 l 1042 347 l 1215 347 l 1215 868 l 1042 868 l 1042 1042 l 694 1042 l 694 1215 l 521 1215 l 521 1042 l 174 1042 l 174 868 l 0 868 l 0 347 l 174 347 l 174 174 l 521 174 l 521 0 m 347 347 l 347 868 l 521 868 l 521 347 l 347 347 m 694 347 l 694 868 l 868 868 l 868 347 l 694 347 "},"х":{"ha":1389,"x_min":0,"x_max":1215,"o":"m 0 174 l 347 174 l 347 347 l 521 347 l 521 521 l 694 521 l 694 347 l 868 347 l 868 174 l 1215 174 l 1215 347 l 1042 347 l 1042 521 l 868 521 l 868 694 l 1042 694 l 1042 868 l 1215 868 l 1215 1042 l 868 1042 l 868 868 l 694 868 l 694 694 l 521 694 l 521 868 l 347 868 l 347 1042 l 0 1042 l 0 868 l 174 868 l 174 694 l 347 694 l 347 521 l 174 521 l 174 347 l 0 347 l 0 174 "},"ч":{"ha":1389,"x_min":0,"x_max":1215,"o":"m 868 174 l 1215 174 l 1215 1042 l 868 1042 l 868 694 l 347 694 l 347 1042 l 0 1042 l 0 694 l 174 694 l 174 521 l 868 521 l 868 174 "},"ц":{"ha":1389,"x_min":0,"x_max":1215,"o":"m 868 0 l 1215 0 l 1215 347 l 1042 347 l 1042 1042 l 694 1042 l 694 347 l 347 347 l 347 1042 l 0 1042 l 0 174 l 868 174 l 868 0 "},"ш":{"ha":1389,"x_min":0,"x_max":1215,"o":"m 0 174 l 1215 174 l 1215 1042 l 868 1042 l 868 347 l 694 347 l 694 1042 l 521 1042 l 521 347 l 347 347 l 347 1042 l 0 1042 l 0 174 "},"щ":{"ha":1389,"x_min":0,"x_max":1389,"o":"m 1042 0 l 1389 0 l 1389 347 l 1215 347 l 1215 1042 l 868 1042 l 868 347 l 694 347 l 694 1042 l 521 1042 l 521 347 l 347 347 l 347 1042 l 0 1042 l 0 174 l 1042 174 l 1042 0 "},"џ":{"ha":1389,"x_min":0,"x_max":1215,"o":"m 521 0 l 694 0 l 694 174 l 1215 174 l 1215 1042 l 868 1042 l 868 347 l 347 347 l 347 1042 l 0 1042 l 0 174 l 521 174 l 521 0 "},"ь":{"ha":1389,"x_min":0,"x_max":1215,"o":"m 0 174 l 1042 174 l 1042 347 l 1215 347 l 1215 521 l 1042 521 l 1042 694 l 347 694 l 347 1042 l 0 1042 l 0 174 m 347 347 l 347 521 l 868 521 l 868 347 l 347 347 "},"ъ":{"ha":1389,"x_min":0,"x_max":1215,"o":"m 174 174 l 1042 174 l 1042 347 l 1215 347 l 1215 521 l 1042 521 l 1042 694 l 521 694 l 521 1042 l 0 1042 l 0 868 l 174 868 l 174 174 m 521 347 l 521 521 l 868 521 l 868 347 l 521 347 "},"ы":{"ha":1389,"x_min":0,"x_max":1215,"o":"m 0 174 l 694 174 l 694 694 l 347 694 l 347 1042 l 0 1042 l 0 174 m 868 174 l 1215 174 l 1215 1042 l 868 1042 l 868 174 m 347 347 l 347 521 l 521 521 l 521 347 l 347 347 "},"љ":{"ha":1389,"x_min":0,"x_max":1215,"o":"m 0 174 l 347 174 l 347 868 l 521 868 l 521 174 l 1215 174 l 1215 868 l 868 868 l 868 1042 l 174 1042 l 174 521 l 0 521 l 0 174 m 868 347 l 868 694 l 1042 694 l 1042 347 l 868 347 "},"њ":{"ha":1389,"x_min":0,"x_max":1215,"o":"m 0 174 l 347 174 l 347 521 l 521 521 l 521 174 l 1215 174 l 1215 868 l 868 868 l 868 1042 l 521 1042 l 521 694 l 347 694 l 347 1042 l 0 1042 l 0 174 m 868 347 l 868 694 l 1042 694 l 1042 347 l 868 347 "},"ѕ":{"ha":1389,"x_min":0,"x_max":1215,"o":"m 0 174 l 1042 174 l 1042 347 l 1215 347 l 1215 521 l 1042 521 l 1042 694 l 347 694 l 347 868 l 1042 868 l 1042 1042 l 174 1042 l 174 868 l 0 868 l 0 694 l 174 694 l 174 521 l 868 521 l 868 347 l 0 347 l 0 174 "},"є":{"ha":1389,"x_min":0,"x_max":1215,"o":"m 174 174 l 1042 174 l 1042 347 l 1215 347 l 1215 521 l 868 521 l 868 347 l 347 347 l 347 521 l 694 521 l 694 694 l 347 694 l 347 868 l 868 868 l 868 694 l 1215 694 l 1215 868 l 1042 868 l 1042 1042 l 174 1042 l 174 868 l 0 868 l 0 347 l 174 347 l 174 174 "},"э":{"ha":1389,"x_min":0,"x_max":1215,"o":"m 174 174 l 1042 174 l 1042 347 l 1215 347 l 1215 868 l 1042 868 l 1042 1042 l 174 1042 l 174 868 l 0 868 l 0 694 l 347 694 l 347 868 l 868 868 l 868 694 l 521 694 l 521 521 l 868 521 l 868 347 l 347 347 l 347 521 l 0 521 l 0 347 l 174 347 l 174 174 "},"і":{"ha":1389,"x_min":174,"x_max":1215,"o":"m 521 1215 l 868 1215 l 868 1389 l 521 1389 l 521 1215 m 174 174 l 1215 174 l 1215 347 l 868 347 l 868 1042 l 347 1042 l 347 868 l 521 868 l 521 347 l 174 347 l 174 174 "},"ї":{"ha":1389,"x_min":174,"x_max":1215,"o":"m 174 1215 l 521 1215 l 521 1389 l 174 1389 l 174 1215 m 694 1215 l 1042 1215 l 1042 1389 l 694 1389 l 694 1215 m 174 174 l 1215 174 l 1215 347 l 868 347 l 868 1042 l 347 1042 l 347 868 l 521 868 l 521 347 l 174 347 l 174 174 "},"ј":{"ha":1389,"x_min":174,"x_max":1042,"o":"m 694 1215 l 1042 1215 l 1042 1389 l 694 1389 l 694 1215 m 174 0 l 868 0 l 868 174 l 1042 174 l 1042 1042 l 521 1042 l 521 868 l 694 868 l 694 174 l 174 174 l 174 0 "},"ћ":{"ha":1389,"x_min":0,"x_max":1215,"o":"m 174 174 l 521 174 l 521 694 l 868 694 l 868 174 l 1215 174 l 1215 694 l 1042 694 l 1042 868 l 521 868 l 521 1042 l 868 1042 l 868 1215 l 521 1215 l 521 1389 l 174 1389 l 174 1215 l 0 1215 l 0 1042 l 174 1042 l 174 174 "},"ю":{"ha":1389,"x_min":0,"x_max":1215,"o":"m 0 174 l 174 174 l 174 521 l 347 521 l 347 347 l 521 347 l 521 174 l 1042 174 l 1042 347 l 1215 347 l 1215 868 l 1042 868 l 1042 1042 l 521 1042 l 521 868 l 347 868 l 347 694 l 174 694 l 174 1042 l 0 1042 l 0 174 m 694 347 l 694 868 l 868 868 l 868 347 l 694 347 "},"я":{"ha":1389,"x_min":0,"x_max":1215,"o":"m 0 174 l 347 174 l 347 521 l 868 521 l 868 174 l 1215 174 l 1215 1042 l 174 1042 l 174 868 l 0 868 l 0 694 l 174 694 l 174 521 l 0 521 l 0 174 m 347 694 l 347 868 l 868 868 l 868 694 l 347 694 "},"ђ":{"ha":1389,"x_min":0,"x_max":1215,"o":"m 694 0 l 1042 0 l 1042 174 l 1215 174 l 1215 694 l 1042 694 l 1042 868 l 521 868 l 521 1042 l 868 1042 l 868 1215 l 521 1215 l 521 1389 l 174 1389 l 174 1215 l 0 1215 l 0 1042 l 174 1042 l 174 174 l 521 174 l 521 694 l 868 694 l 868 174 l 694 174 l 694 0 "},"ѣ":{"ha":1389,"x_min":0,"x_max":1215,"o":"m 1215 521 l 1042 521 l 1042 694 l 521 694 l 521 868 l 868 868 l 868 1042 l 521 1042 l 521 1389 l 174 1389 l 174 1042 l 0 1042 l 0 868 l 174 868 l 174 174 l 1042 174 l 1042 347 l 1215 347 l 1215 521 m 868 521 l 868 347 l 521 347 l 521 521 l 868 521 "},"ѫ":{"ha":1389,"x_min":0,"x_max":1215,"o":"m 868 868 l 868 694 l 1042 694 l 1042 868 l 1215 868 l 1215 1042 l 0 1042 l 0 868 l 174 868 l 174 694 l 347 694 l 347 868 l 868 868 m 347 694 l 347 521 l 521 521 l 521 174 l 694 174 l 694 521 l 868 521 l 868 694 l 347 694 m 0 174 l 347 174 l 347 521 l 0 521 l 0 174 m 1215 174 l 1215 521 l 868 521 l 868 174 l 1215 174 "},"ѳ":{"ha":1389,"x_min":0,"x_max":1215,"o":"m 174 174 l 1042 174 l 1042 347 l 1215 347 l 1215 868 l 1042 868 l 1042 1042 l 174 1042 l 174 868 l 0 868 l 0 347 l 174 347 l 174 174 m 347 347 l 347 868 l 868 868 l 868 347 l 347 347 m 174 521 l 174 694 l 1042 694 l 1042 521 l 174 521 "},"ѵ":{"ha":1389,"x_min":174,"x_max":1215,"o":"m 521 174 l 868 174 l 868 347 l 1042 347 l 1042 868 l 1215 868 l 1215 1042 l 868 1042 l 868 521 l 521 521 l 521 1042 l 174 1042 l 174 521 l 347 521 l 347 347 l 521 347 l 521 174 "},"ғ":{"ha":1389,"x_min":0,"x_max":1215,"o":"m 1215 1042 l 174 1042 l 174 694 l 0 694 l 0 521 l 174 521 l 174 174 l 521 174 l 521 521 l 868 521 l 868 694 l 521 694 l 521 868 l 1042 868 l 1042 694 l 1215 694 l 1215 1042 "},"ҕ":{"ha":1389,"x_min":174,"x_max":1215,"o":"m 521 868 l 1215 868 l 1215 1042 l 174 1042 l 174 174 l 521 174 l 521 521 l 868 521 l 868 174 l 694 174 l 694 0 l 1042 0 l 1042 174 l 1215 174 l 1215 521 l 1042 521 l 1042 694 l 521 694 l 521 868 "},"җ":{"ha":1389,"x_min":0,"x_max":1389,"o":"m 1215 347 l 1215 521 l 1042 521 l 1042 694 l 1215 694 l 1215 1042 l 868 1042 l 868 694 l 694 694 l 694 1042 l 521 1042 l 521 694 l 347 694 l 347 1042 l 0 1042 l 0 694 l 174 694 l 174 521 l 0 521 l 0 174 l 347 174 l 347 521 l 521 521 l 521 174 l 694 174 l 694 521 l 868 521 l 868 174 l 1042 174 l 1042 0 l 1389 0 l 1389 347 l 1215 347 "},"ҙ":{"ha":1389,"x_min":0,"x_max":1215,"o":"m 1215 694 l 1215 868 l 1042 868 l 1042 1042 l 174 1042 l 174 868 l 0 868 l 0 694 l 347 694 l 347 868 l 868 868 l 868 694 l 521 694 l 521 521 l 868 521 l 868 347 l 347 347 l 347 521 l 0 521 l 0 347 l 174 347 l 174 174 l 521 174 l 521 0 l 694 0 l 694 174 l 1042 174 l 1042 347 l 1215 347 l 1215 521 l 1042 521 l 1042 694 l 1215 694 "},"қ":{"ha":1389,"x_min":0,"x_max":1389,"o":"m 1215 347 l 1215 521 l 1042 521 l 1042 694 l 868 694 l 868 868 l 694 868 l 694 694 l 347 694 l 347 1042 l 0 1042 l 0 174 l 347 174 l 347 521 l 868 521 l 868 174 l 1042 174 l 1042 0 l 1389 0 l 1389 347 l 1215 347 m 1215 1042 l 868 1042 l 868 868 l 1215 868 l 1215 1042 "},"ҝ":{"ha":1389,"x_min":0,"x_max":1215,"o":"m 694 694 l 694 868 l 521 868 l 521 694 l 347 694 l 347 1042 l 0 1042 l 0 174 l 347 174 l 347 521 l 521 521 l 521 347 l 694 347 l 694 521 l 868 521 l 868 694 l 694 694 m 1042 868 l 1215 868 l 1215 1042 l 868 1042 l 868 694 l 1042 694 l 1042 868 m 1215 174 l 1215 521 l 868 521 l 868 174 l 1215 174 "},"ҡ":{"ha":1389,"x_min":0,"x_max":1215,"o":"m 694 868 l 694 694 l 521 694 l 521 1042 l 0 1042 l 0 868 l 174 868 l 174 174 l 521 174 l 521 521 l 868 521 l 868 174 l 1215 174 l 1215 521 l 1042 521 l 1042 694 l 868 694 l 868 868 l 694 868 m 1215 1042 l 868 1042 l 868 868 l 1215 868 l 1215 1042 "},"ң":{"ha":1389,"x_min":0,"x_max":1389,"o":"m 1215 347 l 1215 1042 l 868 1042 l 868 694 l 347 694 l 347 1042 l 0 1042 l 0 174 l 347 174 l 347 521 l 868 521 l 868 174 l 1042 174 l 1042 0 l 1389 0 l 1389 347 l 1215 347 "},"ԥ":{"ha":1389,"x_min":0,"x_max":1389,"o":"m 1215 347 l 1215 1042 l 0 1042 l 0 174 l 347 174 l 347 868 l 868 868 l 868 174 l 1042 174 l 1042 0 l 1389 0 l 1389 347 l 1215 347 "},"ҫ":{"ha":1389,"x_min":0,"x_max":1215,"o":"m 1215 694 l 1215 868 l 1042 868 l 1042 1042 l 174 1042 l 174 868 l 0 868 l 0 347 l 174 347 l 174 174 l 521 174 l 521 0 l 694 0 l 694 174 l 1042 174 l 1042 347 l 1215 347 l 1215 521 l 868 521 l 868 347 l 347 347 l 347 868 l 868 868 l 868 694 l 1215 694 "},"ҭ":{"ha":1389,"x_min":174,"x_max":1215,"o":"m 1215 1042 l 174 1042 l 174 868 l 521 868 l 521 174 l 694 174 l 694 0 l 1042 0 l 1042 347 l 868 347 l 868 868 l 1215 868 l 1215 1042 "},"ү":{"ha":1389,"x_min":174,"x_max":1215,"o":"m 1215 1042 l 868 1042 l 868 521 l 521 521 l 521 1042 l 174 1042 l 174 521 l 347 521 l 347 347 l 521 347 l 521 0 l 868 0 l 868 347 l 1042 347 l 1042 521 l 1215 521 l 1215 1042 "},"ұ":{"ha":1389,"x_min":174,"x_max":1215,"o":"m 1215 1042 l 868 1042 l 868 694 l 521 694 l 521 1042 l 174 1042 l 174 694 l 347 694 l 347 521 l 521 521 l 521 347 l 347 347 l 347 174 l 521 174 l 521 0 l 868 0 l 868 174 l 1042 174 l 1042 347 l 868 347 l 868 521 l 1042 521 l 1042 694 l 1215 694 l 1215 1042 "},"ҷ":{"ha":1389,"x_min":0,"x_max":1389,"o":"m 1215 347 l 1215 1042 l 868 1042 l 868 694 l 347 694 l 347 1042 l 0 1042 l 0 694 l 174 694 l 174 521 l 868 521 l 868 174 l 1042 174 l 1042 0 l 1389 0 l 1389 347 l 1215 347 "},"ҹ":{"ha":1389,"x_min":0,"x_max":1215,"o":"m 1215 1042 l 868 1042 l 868 694 l 694 694 l 694 868 l 521 868 l 521 694 l 347 694 l 347 1042 l 0 1042 l 0 694 l 174 694 l 174 521 l 521 521 l 521 347 l 694 347 l 694 521 l 868 521 l 868 174 l 1215 174 l 1215 1042 "},"һ":{"ha":1389,"x_min":0,"x_max":1215,"o":"m 347 868 l 347 1389 l 0 1389 l 0 174 l 347 174 l 347 694 l 521 694 l 521 868 l 347 868 m 1215 868 l 1042 868 l 1042 1042 l 521 1042 l 521 868 l 868 868 l 868 174 l 1215 174 l 1215 868 "},"ӏ":{"ha":1389,"x_min":174,"x_max":1215,"o":"m 174 174 l 1215 174 l 1215 347 l 868 347 l 868 1389 l 347 1389 l 347 1215 l 521 1215 l 521 347 l 174 347 l 174 174 "},"ӂ":{"ha":1389,"x_min":0,"x_max":1215,"o":"m 174 1215 l 1042 1215 l 1042 1389 l 174 1389 l 174 1215 m 0 174 l 347 174 l 347 521 l 521 521 l 521 174 l 694 174 l 694 521 l 868 521 l 868 174 l 1215 174 l 1215 521 l 1042 521 l 1042 694 l 1215 694 l 1215 1042 l 868 1042 l 868 694 l 694 694 l 694 1042 l 521 1042 l 521 694 l 347 694 l 347 1042 l 0 1042 l 0 694 l 174 694 l 174 521 l 0 521 l 0 174 "},"ӌ":{"ha":1389,"x_min":0,"x_max":1389,"o":"m 1215 347 l 1215 1042 l 868 1042 l 868 694 l 347 694 l 347 1042 l 0 1042 l 0 694 l 174 694 l 174 521 l 868 521 l 868 174 l 1042 174 l 1042 0 l 1389 0 l 1389 347 l 1215 347 "},"ӑ":{"ha":1389,"x_min":0,"x_max":1215,"o":"m 174 1215 l 1042 1215 l 1042 1389 l 174 1389 l 174 1215 m 174 174 l 1215 174 l 1215 868 l 1042 868 l 1042 1042 l 174 1042 l 174 868 l 868 868 l 868 694 l 174 694 l 174 521 l 0 521 l 0 347 l 174 347 l 174 174 m 347 347 l 347 521 l 868 521 l 868 347 l 347 347 "},"ӓ":{"ha":1389,"x_min":0,"x_max":1215,"o":"m 174 1215 l 521 1215 l 521 1389 l 174 1389 l 174 1215 m 694 1215 l 1042 1215 l 1042 1389 l 694 1389 l 694 1215 m 174 174 l 1215 174 l 1215 868 l 1042 868 l 1042 1042 l 174 1042 l 174 868 l 868 868 l 868 694 l 174 694 l 174 521 l 0 521 l 0 347 l 174 347 l 174 174 m 347 347 l 347 521 l 868 521 l 868 347 l 347 347 "},"ӗ":{"ha":1389,"x_min":0,"x_max":1215,"o":"m 174 1215 l 1042 1215 l 1042 1389 l 174 1389 l 174 1215 m 174 174 l 1042 174 l 1042 347 l 347 347 l 347 521 l 1215 521 l 1215 868 l 1042 868 l 1042 1042 l 174 1042 l 174 868 l 0 868 l 0 347 l 174 347 l 174 174 m 347 694 l 347 868 l 868 868 l 868 694 l 347 694 "},"ә":{"ha":1389,"x_min":0,"x_max":1215,"o":"m 174 174 l 1042 174 l 1042 347 l 1215 347 l 1215 868 l 1042 868 l 1042 1042 l 174 1042 l 174 868 l 868 868 l 868 694 l 0 694 l 0 347 l 174 347 l 174 174 m 347 347 l 347 521 l 868 521 l 868 347 l 347 347 "},"ӝ":{"ha":1389,"x_min":0,"x_max":1215,"o":"m 174 1215 l 521 1215 l 521 1389 l 174 1389 l 174 1215 m 694 1215 l 1042 1215 l 1042 1389 l 694 1389 l 694 1215 m 0 174 l 347 174 l 347 521 l 521 521 l 521 174 l 694 174 l 694 521 l 868 521 l 868 174 l 1215 174 l 1215 521 l 1042 521 l 1042 694 l 1215 694 l 1215 1042 l 868 1042 l 868 694 l 694 694 l 694 1042 l 521 1042 l 521 694 l 347 694 l 347 1042 l 0 1042 l 0 694 l 174 694 l 174 521 l 0 521 l 0 174 "},"ӟ":{"ha":1389,"x_min":0,"x_max":1215,"o":"m 174 1215 l 521 1215 l 521 1389 l 174 1389 l 174 1215 m 694 1215 l 1042 1215 l 1042 1389 l 694 1389 l 694 1215 m 174 174 l 1042 174 l 1042 347 l 1215 347 l 1215 521 l 1042 521 l 1042 694 l 1215 694 l 1215 868 l 1042 868 l 1042 1042 l 174 1042 l 174 868 l 0 868 l 0 694 l 347 694 l 347 868 l 868 868 l 868 694 l 521 694 l 521 521 l 868 521 l 868 347 l 347 347 l 347 521 l 0 521 l 0 347 l 174 347 l 174 174 "},"ӣ":{"ha":1389,"x_min":0,"x_max":1215,"o":"m 1042 1215 l 1042 1389 l 174 1389 l 174 1215 l 1042 1215 m 347 521 l 347 1042 l 0 1042 l 0 174 l 347 174 l 347 347 l 521 347 l 521 521 l 347 521 m 1215 1042 l 868 1042 l 868 868 l 694 868 l 694 694 l 868 694 l 868 174 l 1215 174 l 1215 1042 m 521 694 l 521 521 l 694 521 l 694 694 l 521 694 "},"ӥ":{"ha":1389,"x_min":0,"x_max":1215,"o":"m 521 1215 l 521 1389 l 174 1389 l 174 1215 l 521 1215 m 1042 1215 l 1042 1389 l 694 1389 l 694 1215 l 1042 1215 m 347 521 l 347 1042 l 0 1042 l 0 174 l 347 174 l 347 347 l 521 347 l 521 521 l 347 521 m 1215 1042 l 868 1042 l 868 868 l 694 868 l 694 694 l 868 694 l 868 174 l 1215 174 l 1215 1042 m 521 694 l 521 521 l 694 521 l 694 694 l 521 694 "},"ӧ":{"ha":1389,"x_min":0,"x_max":1215,"o":"m 174 1215 l 521 1215 l 521 1389 l 174 1389 l 174 1215 m 694 1215 l 1042 1215 l 1042 1389 l 694 1389 l 694 1215 m 174 174 l 1042 174 l 1042 347 l 1215 347 l 1215 868 l 1042 868 l 1042 1042 l 174 1042 l 174 868 l 0 868 l 0 347 l 174 347 l 174 174 m 347 347 l 347 868 l 868 868 l 868 347 l 347 347 "},"ө":{"ha":1389,"x_min":0,"x_max":1215,"o":"m 174 174 l 1042 174 l 1042 347 l 1215 347 l 1215 868 l 1042 868 l 1042 1042 l 174 1042 l 174 868 l 0 868 l 0 347 l 174 347 l 174 174 m 347 347 l 347 868 l 868 868 l 868 347 l 347 347 m 174 521 l 174 694 l 1042 694 l 1042 521 l 174 521 "},"ӯ":{"ha":1389,"x_min":0,"x_max":1215,"o":"m 174 1215 l 1042 1215 l 1042 1389 l 174 1389 l 174 1215 m 174 0 l 1042 0 l 1042 174 l 1215 174 l 1215 1042 l 868 1042 l 868 521 l 347 521 l 347 1042 l 0 1042 l 0 521 l 174 521 l 174 347 l 868 347 l 868 174 l 174 174 l 174 0 "},"ӱ":{"ha":1389,"x_min":0,"x_max":1215,"o":"m 174 1215 l 521 1215 l 521 1389 l 174 1389 l 174 1215 m 694 1215 l 1042 1215 l 1042 1389 l 694 1389 l 694 1215 m 174 0 l 1042 0 l 1042 174 l 1215 174 l 1215 1042 l 868 1042 l 868 521 l 347 521 l 347 1042 l 0 1042 l 0 521 l 174 521 l 174 347 l 868 347 l 868 174 l 174 174 l 174 0 "},"ӳ":{"ha":1389,"x_min":0,"x_max":1215,"o":"m 521 1215 l 521 1389 l 347 1389 l 347 1215 l 521 1215 m 1042 1215 l 1042 1389 l 868 1389 l 868 1215 l 1042 1215 m 1215 1042 l 868 1042 l 868 521 l 347 521 l 347 1215 l 174 1215 l 174 1042 l 0 1042 l 0 521 l 174 521 l 174 347 l 868 347 l 868 174 l 174 174 l 174 0 l 1042 0 l 1042 174 l 1215 174 l 1215 1042 m 868 1215 l 694 1215 l 694 1042 l 868 1042 l 868 1215 "},"ӵ":{"ha":1389,"x_min":0,"x_max":1215,"o":"m 174 1215 l 521 1215 l 521 1389 l 174 1389 l 174 1215 m 694 1215 l 1042 1215 l 1042 1389 l 694 1389 l 694 1215 m 868 174 l 1215 174 l 1215 1042 l 868 1042 l 868 694 l 347 694 l 347 1042 l 0 1042 l 0 694 l 174 694 l 174 521 l 868 521 l 868 174 "},"ӷ":{"ha":1389,"x_min":174,"x_max":1215,"o":"m 1215 1042 l 174 1042 l 174 174 l 347 174 l 347 0 l 694 0 l 694 347 l 521 347 l 521 868 l 1042 868 l 1042 694 l 1215 694 l 1215 1042 "},"ӹ":{"ha":1389,"x_min":0,"x_max":1215,"o":"m 174 1215 l 521 1215 l 521 1389 l 174 1389 l 174 1215 m 694 1215 l 1042 1215 l 1042 1389 l 694 1389 l 694 1215 m 0 174 l 694 174 l 694 694 l 347 694 l 347 1042 l 0 1042 l 0 174 m 868 174 l 1215 174 l 1215 1042 l 868 1042 l 868 174 m 347 347 l 347 521 l 521 521 l 521 347 l 347 347 "},"ԛ":{"ha":1389,"x_min":0,"x_max":1215,"o":"m 868 0 l 1215 0 l 1215 1042 l 174 1042 l 174 868 l 0 868 l 0 521 l 174 521 l 174 347 l 868 347 l 868 0 m 347 521 l 347 868 l 868 868 l 868 521 l 347 521 "},"ԝ":{"ha":1389,"x_min":0,"x_max":1215,"o":"m 347 347 l 347 1042 l 0 1042 l 0 347 l 174 347 l 174 174 l 521 174 l 521 347 l 347 347 m 694 1042 l 521 1042 l 521 347 l 694 347 l 694 1042 m 1215 1042 l 868 1042 l 868 347 l 694 347 l 694 174 l 1042 174 l 1042 347 l 1215 347 l 1215 1042 "},"Ҥ":{"ha":1389,"x_min":0,"x_max":1215,"o":"m 521 1389 l 521 868 l 347 868 l 347 1389 l 0 1389 l 0 174 l 347 174 l 347 694 l 521 694 l 521 174 l 868 174 l 868 1215 l 1042 1215 l 1042 1042 l 1215 1042 l 1215 1389 l 521 1389 "},"ҥ":{"ha":1389,"x_min":0,"x_max":1215,"o":"m 521 1042 l 521 694 l 347 694 l 347 1042 l 0 1042 l 0 174 l 347 174 l 347 521 l 521 521 l 521 174 l 868 174 l 868 868 l 1042 868 l 1042 694 l 1215 694 l 1215 1042 l 521 1042 "},"Ӕ":{"ha":1389,"x_min":0,"x_max":1215,"o":"m 0 174 l 347 174 l 347 521 l 521 521 l 521 174 l 1215 174 l 1215 347 l 868 347 l 868 694 l 1215 694 l 1215 868 l 868 868 l 868 1215 l 1215 1215 l 1215 1389 l 347 1389 l 347 1215 l 174 1215 l 174 1042 l 0 1042 l 0 174 m 347 694 l 347 1042 l 521 1042 l 521 694 l 347 694 "},"ӕ":{"ha":1389,"x_min":0,"x_max":1215,"o":"m 174 174 l 1042 174 l 1042 347 l 694 347 l 694 521 l 1042 521 l 1042 694 l 1215 694 l 1215 868 l 1042 868 l 1042 1042 l 174 1042 l 174 868 l 521 868 l 521 694 l 174 694 l 174 521 l 0 521 l 0 347 l 174 347 l 174 174 m 694 694 l 694 868 l 868 868 l 868 694 l 694 694 m 347 347 l 347 521 l 521 521 l 521 347 l 347 347 "},"Α":{"ha":1389,"x_min":0,"x_max":1215,"o":"m 0 174 l 347 174 l 347 521 l 868 521 l 868 174 l 1215 174 l 1215 1042 l 1042 1042 l 1042 1215 l 868 1215 l 868 1389 l 347 1389 l 347 1215 l 174 1215 l 174 1042 l 0 1042 l 0 174 m 347 694 l 347 1042 l 521 1042 l 521 1215 l 694 1215 l 694 1042 l 868 1042 l 868 694 l 347 694 "},"Β":{"ha":1389,"x_min":0,"x_max":1215,"o":"m 0 174 l 1042 174 l 1042 347 l 1215 347 l 1215 694 l 1042 694 l 1042 868 l 1215 868 l 1215 1215 l 1042 1215 l 1042 1389 l 0 1389 l 0 174 m 347 868 l 347 1215 l 868 1215 l 868 868 l 347 868 m 347 347 l 347 694 l 868 694 l 868 347 l 347 347 "},"Γ":{"ha":1389,"x_min":174,"x_max":1215,"o":"m 174 174 l 521 174 l 521 1215 l 1215 1215 l 1215 1389 l 174 1389 l 174 174 "},"Δ":{"ha":1389,"x_min":0,"x_max":1215,"o":"m 0 174 l 1215 174 l 1215 1042 l 1042 1042 l 1042 1215 l 868 1215 l 868 1389 l 347 1389 l 347 1215 l 174 1215 l 174 1042 l 0 1042 l 0 174 m 347 347 l 347 1042 l 521 1042 l 521 1215 l 694 1215 l 694 1042 l 868 1042 l 868 347 l 347 347 "},"Ε":{"ha":1389,"x_min":0,"x_max":1215,"o":"m 0 174 l 1215 174 l 1215 347 l 347 347 l 347 694 l 1042 694 l 1042 868 l 347 868 l 347 1215 l 1215 1215 l 1215 1389 l 0 1389 l 0 174 "},"Ζ":{"ha":1389,"x_min":0,"x_max":1215,"o":"m 0 174 l 1215 174 l 1215 347 l 521 347 l 521 521 l 694 521 l 694 694 l 868 694 l 868 868 l 1042 868 l 1042 1042 l 1215 1042 l 1215 1389 l 0 1389 l 0 1215 l 694 1215 l 694 1042 l 521 1042 l 521 868 l 347 868 l 347 694 l 174 694 l 174 521 l 0 521 l 0 174 "},"Η":{"ha":1389,"x_min":0,"x_max":1215,"o":"m 0 174 l 347 174 l 347 694 l 868 694 l 868 174 l 1215 174 l 1215 1389 l 868 1389 l 868 868 l 347 868 l 347 1389 l 0 1389 l 0 174 "},"Θ":{"ha":1389,"x_min":0,"x_max":1215,"o":"m 174 174 l 1042 174 l 1042 347 l 1215 347 l 1215 1215 l 1042 1215 l 1042 1389 l 174 1389 l 174 1215 l 0 1215 l 0 347 l 174 347 l 174 174 m 347 868 l 347 1215 l 868 1215 l 868 868 l 347 868 m 347 347 l 347 694 l 868 694 l 868 347 l 347 347 "},"Ι":{"ha":1389,"x_min":174,"x_max":1215,"o":"m 174 174 l 1215 174 l 1215 347 l 868 347 l 868 1215 l 1215 1215 l 1215 1389 l 174 1389 l 174 1215 l 521 1215 l 521 347 l 174 347 l 174 174 "},"Κ":{"ha":1389,"x_min":0,"x_max":1215,"o":"m 0 174 l 347 174 l 347 521 l 521 521 l 521 347 l 694 347 l 694 174 l 1215 174 l 1215 347 l 1042 347 l 1042 521 l 868 521 l 868 694 l 694 694 l 694 868 l 868 868 l 868 1042 l 1042 1042 l 1042 1215 l 1215 1215 l 1215 1389 l 868 1389 l 868 1215 l 694 1215 l 694 1042 l 521 1042 l 521 868 l 347 868 l 347 1389 l 0 1389 l 0 174 "},"Λ":{"ha":1389,"x_min":0,"x_max":1215,"o":"m 0 174 l 347 174 l 347 1042 l 521 1042 l 521 1215 l 694 1215 l 694 1042 l 868 1042 l 868 174 l 1215 174 l 1215 1042 l 1042 1042 l 1042 1215 l 868 1215 l 868 1389 l 347 1389 l 347 1215 l 174 1215 l 174 1042 l 0 1042 l 0 174 "},"Μ":{"ha":1389,"x_min":0,"x_max":1215,"o":"m 0 174 l 347 174 l 347 868 l 521 868 l 521 521 l 694 521 l 694 868 l 868 868 l 868 174 l 1215 174 l 1215 1389 l 868 1389 l 868 1215 l 694 1215 l 694 1042 l 521 1042 l 521 1215 l 347 1215 l 347 1389 l 0 1389 l 0 174 "},"Ν":{"ha":1389,"x_min":0,"x_max":1215,"o":"m 0 174 l 347 174 l 347 868 l 521 868 l 521 694 l 694 694 l 694 521 l 868 521 l 868 174 l 1215 174 l 1215 1389 l 868 1389 l 868 868 l 694 868 l 694 1042 l 521 1042 l 521 1215 l 347 1215 l 347 1389 l 0 1389 l 0 174 "},"Ξ":{"ha":1389,"x_min":0,"x_max":1215,"o":"m 0 1215 l 1215 1215 l 1215 1389 l 0 1389 l 0 1215 m 174 694 l 1042 694 l 1042 868 l 174 868 l 174 694 m 0 174 l 1215 174 l 1215 347 l 0 347 l 0 174 "},"Ο":{"ha":1389,"x_min":0,"x_max":1215,"o":"m 174 174 l 1042 174 l 1042 347 l 1215 347 l 1215 1215 l 1042 1215 l 1042 1389 l 174 1389 l 174 1215 l 0 1215 l 0 347 l 174 347 l 174 174 m 347 347 l 347 1215 l 868 1215 l 868 347 l 347 347 "},"Π":{"ha":1389,"x_min":0,"x_max":1215,"o":"m 0 174 l 347 174 l 347 1215 l 868 1215 l 868 174 l 1215 174 l 1215 1389 l 0 1389 l 0 174 "},"Ρ":{"ha":1389,"x_min":0,"x_max":1215,"o":"m 0 174 l 347 174 l 347 521 l 1042 521 l 1042 694 l 1215 694 l 1215 1215 l 1042 1215 l 1042 1389 l 0 1389 l 0 174 m 347 694 l 347 1215 l 868 1215 l 868 694 l 347 694 "},"Σ":{"ha":1389,"x_min":0,"x_max":1215,"o":"m 0 174 l 1215 174 l 1215 521 l 868 521 l 868 347 l 521 347 l 521 521 l 694 521 l 694 694 l 1042 694 l 1042 868 l 694 868 l 694 1042 l 521 1042 l 521 1215 l 868 1215 l 868 1042 l 1215 1042 l 1215 1389 l 0 1389 l 0 1215 l 174 1215 l 174 1042 l 347 1042 l 347 868 l 521 868 l 521 694 l 347 694 l 347 521 l 174 521 l 174 347 l 0 347 l 0 174 "},"Τ":{"ha":1389,"x_min":174,"x_max":1215,"o":"m 521 174 l 868 174 l 868 1215 l 1215 1215 l 1215 1389 l 174 1389 l 174 1215 l 521 1215 l 521 174 "},"Υ":{"ha":1389,"x_min":174,"x_max":1215,"o":"m 521 174 l 868 174 l 868 694 l 1042 694 l 1042 868 l 1215 868 l 1215 1389 l 868 1389 l 868 868 l 521 868 l 521 1389 l 174 1389 l 174 868 l 347 868 l 347 694 l 521 694 l 521 174 "},"Φ":{"ha":1389,"x_min":0,"x_max":1215,"o":"m 521 174 l 694 174 l 694 347 l 1042 347 l 1042 521 l 1215 521 l 1215 1042 l 1042 1042 l 1042 1215 l 694 1215 l 694 1389 l 521 1389 l 521 1215 l 174 1215 l 174 1042 l 0 1042 l 0 521 l 174 521 l 174 347 l 521 347 l 521 174 m 347 521 l 347 1042 l 521 1042 l 521 521 l 347 521 m 694 521 l 694 1042 l 868 1042 l 868 521 l 694 521 "},"Χ":{"ha":1389,"x_min":0,"x_max":1215,"o":"m 0 174 l 347 174 l 347 521 l 521 521 l 521 694 l 694 694 l 694 521 l 868 521 l 868 174 l 1215 174 l 1215 521 l 1042 521 l 1042 694 l 868 694 l 868 868 l 1042 868 l 1042 1042 l 1215 1042 l 1215 1389 l 868 1389 l 868 1042 l 694 1042 l 694 868 l 521 868 l 521 1042 l 347 1042 l 347 1389 l 0 1389 l 0 1042 l 174 1042 l 174 868 l 347 868 l 347 694 l 174 694 l 174 521 l 0 521 l 0 174 "},"Ψ":{"ha":1389,"x_min":0,"x_max":1389,"o":"m 347 174 l 1042 174 l 1042 347 l 868 347 l 868 694 l 1215 694 l 1215 868 l 1389 868 l 1389 1389 l 1042 1389 l 1042 868 l 868 868 l 868 1389 l 521 1389 l 521 868 l 347 868 l 347 1389 l 0 1389 l 0 868 l 174 868 l 174 694 l 521 694 l 521 347 l 347 347 l 347 174 "},"Ω":{"ha":1389,"x_min":0,"x_max":1215,"o":"m 0 174 l 521 174 l 521 521 l 347 521 l 347 1042 l 521 1042 l 521 1215 l 694 1215 l 694 1042 l 868 1042 l 868 521 l 694 521 l 694 174 l 1215 174 l 1215 347 l 1042 347 l 1042 521 l 1215 521 l 1215 1042 l 1042 1042 l 1042 1215 l 868 1215 l 868 1389 l 347 1389 l 347 1215 l 174 1215 l 174 1042 l 0 1042 l 0 521 l 174 521 l 174 347 l 0 347 l 0 174 "},"Ά":{"ha":1389,"x_min":0,"x_max":1215,"o":"m 1215 1042 l 1042 1042 l 1042 1215 l 868 1215 l 868 1389 l 521 1389 l 521 1215 l 347 1215 l 347 1042 l 174 1042 l 174 174 l 521 174 l 521 521 l 868 521 l 868 174 l 1215 174 l 1215 1042 m 347 1215 l 347 1389 l 174 1389 l 174 1215 l 347 1215 m 174 1215 l 0 1215 l 0 1042 l 174 1042 l 174 1215 m 868 1042 l 868 694 l 521 694 l 521 1042 l 868 1042 "},"Έ":{"ha":1389,"x_min":0,"x_max":1389,"o":"m 1389 1389 l 174 1389 l 174 1215 l 347 1215 l 347 174 l 1389 174 l 1389 347 l 694 347 l 694 694 l 1042 694 l 1042 868 l 694 868 l 694 1215 l 1389 1215 l 1389 1389 m 0 1215 l 0 1042 l 174 1042 l 174 1215 l 0 1215 "},"Ή":{"ha":1389,"x_min":0,"x_max":1389,"o":"m 1389 1389 l 1042 1389 l 1042 868 l 694 868 l 694 1389 l 174 1389 l 174 1215 l 347 1215 l 347 174 l 694 174 l 694 694 l 1042 694 l 1042 174 l 1389 174 l 1389 1389 m 0 1215 l 0 1042 l 174 1042 l 174 1215 l 0 1215 "},"Ί":{"ha":1389,"x_min":0,"x_max":1215,"o":"m 174 1389 l 174 1215 l 347 1215 l 347 1389 l 174 1389 m 1215 1389 l 521 1389 l 521 1215 l 694 1215 l 694 347 l 521 347 l 521 174 l 1215 174 l 1215 347 l 1042 347 l 1042 1215 l 1215 1215 l 1215 1389 m 0 1215 l 0 1042 l 174 1042 l 174 1215 l 0 1215 "},"Ό":{"ha":1389,"x_min":0,"x_max":1389,"o":"m 347 1389 l 174 1389 l 174 1215 l 347 1215 l 347 1389 m 1389 1215 l 1215 1215 l 1215 1389 l 521 1389 l 521 1215 l 347 1215 l 347 347 l 521 347 l 521 174 l 1215 174 l 1215 347 l 1389 347 l 1389 1215 m 0 1215 l 0 1042 l 174 1042 l 174 1215 l 0 1215 m 1042 1215 l 1042 347 l 694 347 l 694 1215 l 1042 1215 "},"Ύ":{"ha":1389,"x_min":0,"x_max":1389,"o":"m 1389 1389 l 1042 1389 l 1042 868 l 694 868 l 694 1389 l 174 1389 l 174 1215 l 347 1215 l 347 868 l 521 868 l 521 694 l 694 694 l 694 174 l 1042 174 l 1042 694 l 1215 694 l 1215 868 l 1389 868 l 1389 1389 m 0 1215 l 0 1042 l 174 1042 l 174 1215 l 0 1215 "},"Ώ":{"ha":1389,"x_min":0,"x_max":1389,"o":"m 1389 1042 l 1215 1042 l 1215 1215 l 1042 1215 l 1042 1389 l 521 1389 l 521 1215 l 347 1215 l 347 1042 l 174 1042 l 174 521 l 347 521 l 347 347 l 174 347 l 174 174 l 694 174 l 694 521 l 521 521 l 521 1042 l 694 1042 l 694 1215 l 868 1215 l 868 1042 l 1042 1042 l 1042 521 l 868 521 l 868 174 l 1389 174 l 1389 347 l 1215 347 l 1215 521 l 1389 521 l 1389 1042 m 347 1215 l 347 1389 l 174 1389 l 174 1215 l 347 1215 m 174 1215 l 0 1215 l 0 1042 l 174 1042 l 174 1215 "},"Ϊ":{"ha":1389,"x_min":174,"x_max":1215,"o":"m 174 1215 l 521 1215 l 521 1389 l 174 1389 l 174 1215 m 868 1215 l 1215 1215 l 1215 1389 l 868 1389 l 868 1215 m 174 174 l 1215 174 l 1215 347 l 868 347 l 868 868 l 1215 868 l 1215 1042 l 174 1042 l 174 868 l 521 868 l 521 347 l 174 347 l 174 174 "},"Ϋ":{"ha":1389,"x_min":174,"x_max":1215,"o":"m 174 1215 l 521 1215 l 521 1389 l 174 1389 l 174 1215 m 868 1215 l 1215 1215 l 1215 1389 l 868 1389 l 868 1215 m 521 174 l 868 174 l 868 521 l 1042 521 l 1042 694 l 1215 694 l 1215 1042 l 868 1042 l 868 694 l 521 694 l 521 1042 l 174 1042 l 174 694 l 347 694 l 347 521 l 521 521 l 521 174 "},"α":{"ha":1389,"x_min":0,"x_max":1215,"o":"m 174 174 l 1215 174 l 1215 1042 l 174 1042 l 174 868 l 0 868 l 0 347 l 174 347 l 174 174 m 347 347 l 347 868 l 868 868 l 868 347 l 347 347 "},"β":{"ha":1389,"x_min":0,"x_max":1215,"o":"m 0 0 l 347 0 l 347 174 l 1042 174 l 1042 347 l 1215 347 l 1215 694 l 1042 694 l 1042 868 l 1215 868 l 1215 1215 l 1042 1215 l 1042 1389 l 174 1389 l 174 1215 l 0 1215 l 0 0 m 347 868 l 347 1215 l 868 1215 l 868 868 l 347 868 m 347 347 l 347 694 l 868 694 l 868 347 l 347 347 "},"γ":{"ha":1389,"x_min":0,"x_max":1215,"o":"m 521 0 l 868 0 l 868 347 l 1042 347 l 1042 521 l 1215 521 l 1215 1042 l 868 1042 l 868 521 l 521 521 l 521 868 l 347 868 l 347 1042 l 0 1042 l 0 868 l 174 868 l 174 521 l 347 521 l 347 347 l 521 347 l 521 0 "},"δ":{"ha":1389,"x_min":0,"x_max":1215,"o":"m 174 174 l 1042 174 l 1042 347 l 1215 347 l 1215 868 l 1042 868 l 1042 1042 l 868 1042 l 868 1215 l 1215 1215 l 1215 1389 l 694 1389 l 694 1215 l 521 1215 l 521 1042 l 694 1042 l 694 868 l 174 868 l 174 694 l 0 694 l 0 347 l 174 347 l 174 174 m 347 347 l 347 694 l 868 694 l 868 347 l 347 347 "},"ε":{"ha":1389,"x_min":0,"x_max":1215,"o":"m 174 174 l 1215 174 l 1215 347 l 347 347 l 347 521 l 1042 521 l 1042 694 l 347 694 l 347 868 l 1215 868 l 1215 1042 l 174 1042 l 174 868 l 0 868 l 0 694 l 174 694 l 174 521 l 0 521 l 0 347 l 174 347 l 174 174 "},"ζ":{"ha":1389,"x_min":0,"x_max":1215,"o":"m 694 0 l 1042 0 l 1042 174 l 1215 174 l 1215 347 l 1042 347 l 1042 521 l 347 521 l 347 868 l 521 868 l 521 1042 l 694 1042 l 694 1215 l 1042 1215 l 1042 1389 l 174 1389 l 174 1215 l 347 1215 l 347 1042 l 174 1042 l 174 868 l 0 868 l 0 521 l 174 521 l 174 347 l 868 347 l 868 174 l 694 174 l 694 0 "},"η":{"ha":1389,"x_min":0,"x_max":1215,"o":"m 347 868 l 347 1042 l 0 1042 l 0 868 l 174 868 l 174 174 l 521 174 l 521 868 l 347 868 m 1215 868 l 1042 868 l 1042 1042 l 521 1042 l 521 868 l 868 868 l 868 0 l 1215 0 l 1215 868 "},"θ":{"ha":1389,"x_min":0,"x_max":1215,"o":"m 347 174 l 868 174 l 868 347 l 1042 347 l 1042 521 l 1215 521 l 1215 1042 l 1042 1042 l 1042 1215 l 868 1215 l 868 1389 l 347 1389 l 347 1215 l 174 1215 l 174 1042 l 0 1042 l 0 521 l 174 521 l 174 347 l 347 347 l 347 174 m 347 868 l 347 1042 l 521 1042 l 521 1215 l 694 1215 l 694 1042 l 868 1042 l 868 868 l 347 868 m 521 347 l 521 521 l 347 521 l 347 694 l 868 694 l 868 521 l 694 521 l 694 347 l 521 347 "},"ι":{"ha":1389,"x_min":174,"x_max":1042,"o":"m 521 174 l 1042 174 l 1042 347 l 694 347 l 694 1042 l 174 1042 l 174 868 l 347 868 l 347 347 l 521 347 l 521 174 "},"κ":{"ha":1389,"x_min":0,"x_max":1215,"o":"m 0 174 l 347 174 l 347 521 l 694 521 l 694 347 l 868 347 l 868 174 l 1215 174 l 1215 347 l 1042 347 l 1042 521 l 868 521 l 868 694 l 1042 694 l 1042 868 l 1215 868 l 1215 1042 l 868 1042 l 868 868 l 694 868 l 694 694 l 347 694 l 347 1042 l 0 1042 l 0 174 "},"λ":{"ha":1389,"x_min":0,"x_max":1215,"o":"m 0 174 l 347 174 l 347 521 l 521 521 l 521 694 l 694 694 l 694 521 l 868 521 l 868 174 l 1215 174 l 1215 521 l 1042 521 l 1042 694 l 868 694 l 868 868 l 694 868 l 694 1042 l 521 1042 l 521 1215 l 347 1215 l 347 1389 l 0 1389 l 0 1215 l 174 1215 l 174 1042 l 347 1042 l 347 694 l 174 694 l 174 521 l 0 521 l 0 174 "},"μ":{"ha":1389,"x_min":0,"x_max":1215,"o":"m 347 347 l 347 1042 l 0 1042 l 0 0 l 347 0 l 347 174 l 694 174 l 694 347 l 347 347 m 1215 347 l 1042 347 l 1042 1042 l 694 1042 l 694 347 l 868 347 l 868 174 l 1215 174 l 1215 347 "},"ν":{"ha":1389,"x_min":0,"x_max":1215,"o":"m 521 174 l 868 174 l 868 347 l 1042 347 l 1042 521 l 1215 521 l 1215 1042 l 868 1042 l 868 521 l 521 521 l 521 868 l 347 868 l 347 1042 l 0 1042 l 0 868 l 174 868 l 174 521 l 347 521 l 347 347 l 521 347 l 521 174 "},"ξ":{"ha":1389,"x_min":0,"x_max":1042,"o":"m 521 0 l 868 0 l 868 174 l 1042 174 l 1042 347 l 868 347 l 868 521 l 347 521 l 347 694 l 521 694 l 521 868 l 868 868 l 868 1042 l 521 1042 l 521 1215 l 1042 1215 l 1042 1389 l 0 1389 l 0 1215 l 174 1215 l 174 1042 l 347 1042 l 347 868 l 174 868 l 174 694 l 0 694 l 0 521 l 174 521 l 174 347 l 694 347 l 694 174 l 521 174 l 521 0 "},"ο":{"ha":1389,"x_min":0,"x_max":1215,"o":"m 174 174 l 1042 174 l 1042 347 l 1215 347 l 1215 868 l 1042 868 l 1042 1042 l 174 1042 l 174 868 l 0 868 l 0 347 l 174 347 l 174 174 m 347 347 l 347 868 l 868 868 l 868 347 l 347 347 "},"π":{"ha":1389,"x_min":0,"x_max":1215,"o":"m 0 174 l 521 174 l 521 868 l 694 868 l 694 347 l 868 347 l 868 174 l 1215 174 l 1215 347 l 1042 347 l 1042 868 l 1215 868 l 1215 1042 l 0 1042 l 0 868 l 174 868 l 174 347 l 0 347 l 0 174 "},"ρ":{"ha":1389,"x_min":0,"x_max":1215,"o":"m 0 0 l 347 0 l 347 347 l 1042 347 l 1042 521 l 1215 521 l 1215 868 l 1042 868 l 1042 1042 l 174 1042 l 174 868 l 0 868 l 0 0 m 347 521 l 347 868 l 868 868 l 868 521 l 347 521 "},"ς":{"ha":1389,"x_min":0,"x_max":1215,"o":"m 174 0 l 1042 0 l 1042 174 l 1215 174 l 1215 347 l 1042 347 l 1042 521 l 347 521 l 347 868 l 1042 868 l 1042 1042 l 174 1042 l 174 868 l 0 868 l 0 521 l 174 521 l 174 347 l 868 347 l 868 174 l 174 174 l 174 0 "},"σ":{"ha":1389,"x_min":0,"x_max":1215,"o":"m 174 174 l 868 174 l 868 347 l 1042 347 l 1042 694 l 868 694 l 868 868 l 1215 868 l 1215 1042 l 174 1042 l 174 868 l 0 868 l 0 347 l 174 347 l 174 174 m 347 347 l 347 868 l 521 868 l 521 694 l 694 694 l 694 347 l 347 347 "},"τ":{"ha":1389,"x_min":174,"x_max":1215,"o":"m 694 174 l 1215 174 l 1215 347 l 868 347 l 868 868 l 1215 868 l 1215 1042 l 174 1042 l 174 868 l 521 868 l 521 347 l 694 347 l 694 174 "},"υ":{"ha":1389,"x_min":0,"x_max":1215,"o":"m 347 174 l 1042 174 l 1042 347 l 1215 347 l 1215 868 l 1042 868 l 1042 1042 l 694 1042 l 694 868 l 868 868 l 868 347 l 521 347 l 521 868 l 347 868 l 347 1042 l 0 1042 l 0 868 l 174 868 l 174 347 l 347 347 l 347 174 "},"φ":{"ha":1389,"x_min":0,"x_max":1215,"o":"m 1215 868 l 1042 868 l 1042 1042 l 694 1042 l 694 868 l 868 868 l 868 347 l 694 347 l 694 868 l 521 868 l 521 347 l 347 347 l 347 1042 l 174 1042 l 174 868 l 0 868 l 0 347 l 174 347 l 174 174 l 521 174 l 521 0 l 694 0 l 694 174 l 1042 174 l 1042 347 l 1215 347 l 1215 868 "},"χ":{"ha":1389,"x_min":0,"x_max":1215,"o":"m 0 0 l 347 0 l 347 347 l 521 347 l 521 521 l 694 521 l 694 347 l 868 347 l 868 0 l 1215 0 l 1215 347 l 1042 347 l 1042 521 l 868 521 l 868 694 l 1042 694 l 1042 868 l 1215 868 l 1215 1042 l 868 1042 l 868 868 l 694 868 l 694 694 l 521 694 l 521 868 l 347 868 l 347 1042 l 0 1042 l 0 868 l 174 868 l 174 694 l 347 694 l 347 521 l 174 521 l 174 347 l 0 347 l 0 0 "},"ψ":{"ha":1389,"x_min":0,"x_max":1389,"o":"m 521 0 l 868 0 l 868 174 l 1215 174 l 1215 347 l 1389 347 l 1389 1042 l 1042 1042 l 1042 347 l 868 347 l 868 1215 l 521 1215 l 521 347 l 347 347 l 347 1042 l 0 1042 l 0 347 l 174 347 l 174 174 l 521 174 l 521 0 "},"ω":{"ha":1389,"x_min":0,"x_max":1215,"o":"m 347 347 l 347 1042 l 174 1042 l 174 868 l 0 868 l 0 347 l 174 347 l 174 174 l 521 174 l 521 347 l 347 347 m 1215 868 l 1042 868 l 1042 1042 l 868 1042 l 868 347 l 694 347 l 694 174 l 1042 174 l 1042 347 l 1215 347 l 1215 868 m 694 868 l 521 868 l 521 347 l 694 347 l 694 868 "},"ί":{"ha":1389,"x_min":174,"x_max":1042,"o":"m 694 1215 l 694 1389 l 521 1389 l 521 1215 l 694 1215 m 1042 347 l 694 347 l 694 1042 l 521 1042 l 521 1215 l 347 1215 l 347 1042 l 174 1042 l 174 868 l 347 868 l 347 347 l 521 347 l 521 174 l 1042 174 l 1042 347 "},"ϊ":{"ha":1389,"x_min":0,"x_max":1042,"o":"m 0 1215 l 347 1215 l 347 1389 l 0 1389 l 0 1215 m 521 1215 l 868 1215 l 868 1389 l 521 1389 l 521 1215 m 521 174 l 1042 174 l 1042 347 l 694 347 l 694 1042 l 174 1042 l 174 868 l 347 868 l 347 347 l 521 347 l 521 174 "},"ΐ":{"ha":1389,"x_min":0,"x_max":1042,"o":"m 174 1215 l 174 1389 l 0 1389 l 0 1215 l 174 1215 m 694 1215 l 694 1389 l 521 1389 l 521 1215 l 694 1215 m 1042 1389 l 868 1389 l 868 1215 l 1042 1215 l 1042 1389 m 694 347 l 694 1042 l 521 1042 l 521 1215 l 347 1215 l 347 1042 l 174 1042 l 174 868 l 347 868 l 347 347 l 521 347 l 521 174 l 1042 174 l 1042 347 l 694 347 "},"ύ":{"ha":1389,"x_min":0,"x_max":1215,"o":"m 868 1215 l 868 1389 l 694 1389 l 694 1215 l 868 1215 m 694 1215 l 521 1215 l 521 1042 l 694 1042 l 694 1215 m 1215 868 l 1042 868 l 1042 1042 l 694 1042 l 694 868 l 868 868 l 868 347 l 521 347 l 521 868 l 347 868 l 347 1042 l 0 1042 l 0 868 l 174 868 l 174 347 l 347 347 l 347 174 l 1042 174 l 1042 347 l 1215 347 l 1215 868 "},"ϋ":{"ha":1389,"x_min":0,"x_max":1215,"o":"m 174 1215 l 521 1215 l 521 1389 l 174 1389 l 174 1215 m 694 1215 l 1042 1215 l 1042 1389 l 694 1389 l 694 1215 m 347 174 l 1042 174 l 1042 347 l 1215 347 l 1215 868 l 1042 868 l 1042 1042 l 694 1042 l 694 868 l 868 868 l 868 347 l 521 347 l 521 868 l 347 868 l 347 1042 l 0 1042 l 0 868 l 174 868 l 174 347 l 347 347 l 347 174 "},"ΰ":{"ha":1389,"x_min":0,"x_max":1215,"o":"m 174 1215 l 174 1389 l 0 1389 l 0 1215 l 174 1215 m 694 1215 l 694 1389 l 521 1389 l 521 1215 l 694 1215 m 1042 1215 l 1042 1389 l 868 1389 l 868 1215 l 1042 1215 m 521 1042 l 521 1215 l 347 1215 l 347 1042 l 521 1042 m 1215 868 l 1042 868 l 1042 1042 l 694 1042 l 694 868 l 868 868 l 868 347 l 521 347 l 521 868 l 347 868 l 347 1042 l 0 1042 l 0 868 l 174 868 l 174 347 l 347 347 l 347 174 l 1042 174 l 1042 347 l 1215 347 l 1215 868 "},"ό":{"ha":1389,"x_min":0,"x_max":1215,"o":"m 868 1215 l 868 1389 l 694 1389 l 694 1215 l 868 1215 m 1215 868 l 1042 868 l 1042 1042 l 694 1042 l 694 1215 l 521 1215 l 521 1042 l 174 1042 l 174 868 l 0 868 l 0 347 l 174 347 l 174 174 l 1042 174 l 1042 347 l 1215 347 l 1215 868 m 868 868 l 868 347 l 347 347 l 347 868 l 868 868 "},"ώ":{"ha":1389,"x_min":0,"x_max":1215,"o":"m 868 1215 l 868 1389 l 694 1389 l 694 1215 l 868 1215 m 694 1042 l 694 1215 l 521 1215 l 521 1042 l 694 1042 m 347 347 l 347 1042 l 174 1042 l 174 868 l 0 868 l 0 347 l 174 347 l 174 174 l 521 174 l 521 347 l 347 347 m 1215 868 l 1042 868 l 1042 1042 l 868 1042 l 868 347 l 694 347 l 694 174 l 1042 174 l 1042 347 l 1215 347 l 1215 868 m 694 868 l 521 868 l 521 347 l 694 347 l 694 868 "},"ά":{"ha":1389,"x_min":0,"x_max":1215,"o":"m 868 1215 l 868 1389 l 694 1389 l 694 1215 l 868 1215 m 1215 1042 l 694 1042 l 694 1215 l 521 1215 l 521 1042 l 174 1042 l 174 868 l 0 868 l 0 347 l 174 347 l 174 174 l 1215 174 l 1215 1042 m 868 868 l 868 347 l 347 347 l 347 868 l 868 868 "},"έ":{"ha":1389,"x_min":0,"x_max":1215,"o":"m 868 1215 l 868 1389 l 694 1389 l 694 1215 l 868 1215 m 1215 1042 l 694 1042 l 694 1215 l 521 1215 l 521 1042 l 174 1042 l 174 868 l 0 868 l 0 694 l 174 694 l 174 521 l 0 521 l 0 347 l 174 347 l 174 174 l 1215 174 l 1215 347 l 347 347 l 347 521 l 1042 521 l 1042 694 l 347 694 l 347 868 l 1215 868 l 1215 1042 "},"ή":{"ha":1389,"x_min":0,"x_max":1215,"o":"m 868 1215 l 868 1389 l 694 1389 l 694 1215 l 868 1215 m 1215 868 l 1042 868 l 1042 1042 l 694 1042 l 694 1215 l 521 1215 l 521 868 l 868 868 l 868 0 l 1215 0 l 1215 868 m 347 868 l 347 1042 l 0 1042 l 0 868 l 174 868 l 174 174 l 521 174 l 521 868 l 347 868 "},"ͺ":{"ha":1389,"x_min":521,"x_max":1042,"o":"m 694 347 l 521 347 l 521 174 l 694 174 l 694 347 m 1042 174 l 694 174 l 694 0 l 1042 0 l 1042 174 "},"¹":{"ha":1389,"x_min":347,"x_max":1042,"o":"m 347 694 l 1042 694 l 1042 868 l 868 868 l 868 1389 l 521 1389 l 521 1215 l 347 1215 l 347 1042 l 521 1042 l 521 868 l 347 868 l 347 694 "},"²":{"ha":1389,"x_min":347,"x_max":1042,"o":"m 347 694 l 1042 694 l 1042 868 l 868 868 l 868 1042 l 1042 1042 l 1042 1215 l 868 1215 l 868 1389 l 347 1389 l 347 1215 l 694 1215 l 694 1042 l 521 1042 l 521 868 l 347 868 l 347 694 "},"³":{"ha":1389,"x_min":347,"x_max":1042,"o":"m 347 694 l 868 694 l 868 868 l 1042 868 l 1042 1042 l 868 1042 l 868 1215 l 1042 1215 l 1042 1389 l 347 1389 l 347 1215 l 521 1215 l 521 1042 l 694 1042 l 694 868 l 347 868 l 347 694 "},"⁴":{"ha":1389,"x_min":347,"x_max":868,"o":"m 694 694 l 868 694 l 868 1389 l 694 1389 l 694 1215 l 521 1215 l 521 1042 l 347 1042 l 347 868 l 694 868 l 694 694 "},"⁄":{"ha":1389,"x_min":0,"x_max":1215,"o":"m 1215 1389 l 1042 1389 l 1042 1215 l 1215 1215 l 1215 1389 m 868 1215 l 868 1042 l 1042 1042 l 1042 1215 l 868 1215 m 694 1042 l 694 868 l 868 868 l 868 1042 l 694 1042 m 521 868 l 521 694 l 694 694 l 694 868 l 521 868 m 347 694 l 347 521 l 521 521 l 521 694 l 347 694 m 174 521 l 174 347 l 347 347 l 347 521 l 174 521 m 0 347 l 0 174 l 174 174 l 174 347 l 0 347 "},"½":{"ha":1389,"x_min":0,"x_max":1215,"o":"m 347 1389 l 174 1389 l 174 1215 l 0 1215 l 0 1042 l 174 1042 l 174 694 l 347 694 l 347 1389 m 1215 1389 l 1042 1389 l 1042 1215 l 1215 1215 l 1215 1389 m 868 1215 l 868 1042 l 1042 1042 l 1042 1215 l 868 1215 m 694 1042 l 694 868 l 868 868 l 868 1042 l 694 1042 m 521 868 l 521 694 l 694 694 l 694 868 l 521 868 m 868 694 l 1042 694 l 1042 521 l 1215 521 l 1215 868 l 868 868 l 868 694 m 347 694 l 347 521 l 521 521 l 521 694 l 347 694 m 174 521 l 174 347 l 347 347 l 347 521 l 174 521 m 868 521 l 868 347 l 694 347 l 694 174 l 1215 174 l 1215 347 l 1042 347 l 1042 521 l 868 521 m 0 347 l 0 174 l 174 174 l 174 347 l 0 347 "},"¼":{"ha":1389,"x_min":0,"x_max":1215,"o":"m 347 1389 l 174 1389 l 174 1215 l 0 1215 l 0 1042 l 174 1042 l 174 694 l 347 694 l 347 1389 m 1215 1389 l 1042 1389 l 1042 1215 l 1215 1215 l 1215 1389 m 868 1215 l 868 1042 l 1042 1042 l 1042 1215 l 868 1215 m 694 1042 l 694 868 l 868 868 l 868 1042 l 694 1042 m 521 868 l 521 694 l 694 694 l 694 868 l 521 868 m 1042 868 l 1042 694 l 868 694 l 868 521 l 694 521 l 694 347 l 1042 347 l 1042 174 l 1215 174 l 1215 868 l 1042 868 m 347 694 l 347 521 l 521 521 l 521 694 l 347 694 m 174 521 l 174 347 l 347 347 l 347 521 l 174 521 m 0 347 l 0 174 l 174 174 l 174 347 l 0 347 "},"¾":{"ha":1389,"x_min":0,"x_max":1215,"o":"m 347 1215 l 521 1215 l 521 1389 l 0 1389 l 0 1215 l 174 1215 l 174 1042 l 347 1042 l 347 1215 m 1215 1389 l 1042 1389 l 1042 1215 l 1215 1215 l 1215 1389 m 868 1215 l 868 1042 l 1042 1042 l 1042 1215 l 868 1215 m 521 868 l 521 1042 l 347 1042 l 347 868 l 521 868 m 694 1042 l 694 868 l 868 868 l 868 1042 l 694 1042 m 347 868 l 0 868 l 0 694 l 347 694 l 347 868 m 521 868 l 521 694 l 694 694 l 694 868 l 521 868 m 1042 868 l 1042 694 l 868 694 l 868 521 l 694 521 l 694 347 l 1042 347 l 1042 174 l 1215 174 l 1215 868 l 1042 868 m 347 694 l 347 521 l 521 521 l 521 694 l 347 694 m 174 521 l 174 347 l 347 347 l 347 521 l 174 521 m 0 347 l 0 174 l 174 174 l 174 347 l 0 347 "},"*":{"ha":1389,"x_min":0,"x_max":1215,"o":"m 174 347 l 521 347 l 521 521 l 694 521 l 694 347 l 1042 347 l 1042 521 l 868 521 l 868 694 l 1215 694 l 1215 868 l 868 868 l 868 1042 l 1042 1042 l 1042 1215 l 694 1215 l 694 1042 l 521 1042 l 521 1215 l 174 1215 l 174 1042 l 347 1042 l 347 868 l 0 868 l 0 694 l 347 694 l 347 521 l 174 521 l 174 347 "},"\\":{"ha":1389,"x_min":0,"x_max":1215,"o":"m 174 1389 l 0 1389 l 0 1215 l 174 1215 l 174 1389 m 347 1215 l 174 1215 l 174 1042 l 347 1042 l 347 1215 m 521 1042 l 347 1042 l 347 868 l 521 868 l 521 1042 m 694 868 l 521 868 l 521 694 l 694 694 l 694 868 m 868 694 l 694 694 l 694 521 l 868 521 l 868 694 m 1042 521 l 868 521 l 868 347 l 1042 347 l 1042 521 m 1215 347 l 1042 347 l 1042 174 l 1215 174 l 1215 347 "},"·":{"ha":1389,"x_min":347,"x_max":694,"o":"m 347 521 l 694 521 l 694 868 l 347 868 l 347 521 "},"•":{"ha":1389,"x_min":347,"x_max":1042,"o":"m 521 347 l 868 347 l 868 521 l 1042 521 l 1042 868 l 868 868 l 868 1042 l 521 1042 l 521 868 l 347 868 l 347 521 l 521 521 l 521 347 "},":":{"ha":1389,"x_min":347,"x_max":694,"o":"m 347 868 l 694 868 l 694 1215 l 347 1215 l 347 868 m 347 347 l 694 347 l 694 694 l 347 694 l 347 347 "},",":{"ha":1389,"x_min":174,"x_max":694,"o":"m 174 0 l 521 0 l 521 174 l 694 174 l 694 521 l 347 521 l 347 174 l 174 174 l 174 0 "},"…":{"ha":1389,"x_min":0,"x_max":1215,"o":"m 0 174 l 174 174 l 174 521 l 0 521 l 0 174 m 521 174 l 694 174 l 694 521 l 521 521 l 521 174 m 1042 174 l 1215 174 l 1215 521 l 1042 521 l 1042 174 "},"!":{"ha":1389,"x_min":347,"x_max":868,"o":"m 347 521 l 694 521 l 694 868 l 868 868 l 868 1389 l 347 1389 l 347 521 m 347 174 l 694 174 l 694 347 l 347 347 l 347 174 "},"¡":{"ha":1389,"x_min":347,"x_max":868,"o":"m 521 1215 l 868 1215 l 868 1389 l 521 1389 l 521 1215 m 347 174 l 868 174 l 868 1042 l 521 1042 l 521 694 l 347 694 l 347 174 "},"#":{"ha":1389,"x_min":0,"x_max":1215,"o":"m 174 174 l 521 174 l 521 347 l 694 347 l 694 174 l 1042 174 l 1042 347 l 1215 347 l 1215 521 l 1042 521 l 1042 1042 l 1215 1042 l 1215 1215 l 1042 1215 l 1042 1389 l 694 1389 l 694 1215 l 521 1215 l 521 1389 l 174 1389 l 174 1215 l 0 1215 l 0 1042 l 174 1042 l 174 521 l 0 521 l 0 347 l 174 347 l 174 174 m 521 521 l 521 1042 l 694 1042 l 694 521 l 521 521 "},".":{"ha":1389,"x_min":347,"x_max":694,"o":"m 347 174 l 694 174 l 694 521 l 347 521 l 347 174 "},"?":{"ha":1389,"x_min":0,"x_max":1215,"o":"m 347 521 l 868 521 l 868 694 l 1042 694 l 1042 868 l 1215 868 l 1215 1215 l 1042 1215 l 1042 1389 l 174 1389 l 174 1215 l 0 1215 l 0 868 l 347 868 l 347 1042 l 868 1042 l 868 868 l 694 868 l 694 694 l 347 694 l 347 521 m 347 174 l 868 174 l 868 347 l 347 347 l 347 174 "},"¿":{"ha":1389,"x_min":0,"x_max":1215,"o":"m 347 1215 l 868 1215 l 868 1389 l 347 1389 l 347 1215 m 174 174 l 1042 174 l 1042 347 l 1215 347 l 1215 694 l 868 694 l 868 521 l 347 521 l 347 694 l 521 694 l 521 868 l 868 868 l 868 1042 l 347 1042 l 347 868 l 174 868 l 174 694 l 0 694 l 0 347 l 174 347 l 174 174 "},"\"":{"ha":1389,"x_min":174,"x_max":1042,"o":"m 174 868 l 521 868 l 521 1389 l 174 1389 l 174 868 m 694 868 l 1042 868 l 1042 1389 l 694 1389 l 694 868 "},"'":{"ha":1389,"x_min":347,"x_max":694,"o":"m 347 868 l 694 868 l 694 1389 l 347 1389 l 347 868 "},";":{"ha":1389,"x_min":174,"x_max":694,"o":"m 347 868 l 694 868 l 694 1215 l 347 1215 l 347 868 m 174 174 l 521 174 l 521 347 l 694 347 l 694 694 l 347 694 l 347 347 l 174 347 l 174 174 "},"/":{"ha":1389,"x_min":0,"x_max":1215,"o":"m 1215 1389 l 1042 1389 l 1042 1215 l 1215 1215 l 1215 1389 m 868 1215 l 868 1042 l 1042 1042 l 1042 1215 l 868 1215 m 694 1042 l 694 868 l 868 868 l 868 1042 l 694 1042 m 521 868 l 521 694 l 694 694 l 694 868 l 521 868 m 347 694 l 347 521 l 521 521 l 521 694 l 347 694 m 174 521 l 174 347 l 347 347 l 347 521 l 174 521 m 0 347 l 0 174 l 174 174 l 174 347 l 0 347 "},"_":{"ha":1389,"x_min":0,"x_max":1215,"o":"m 0 0 l 1215 0 l 1215 174 l 0 174 l 0 0 "},"{":{"ha":1389,"x_min":347,"x_max":1042,"o":"m 694 174 l 1042 174 l 1042 347 l 868 347 l 868 694 l 694 694 l 694 868 l 868 868 l 868 1215 l 1042 1215 l 1042 1389 l 694 1389 l 694 1215 l 521 1215 l 521 868 l 347 868 l 347 694 l 521 694 l 521 347 l 694 347 l 694 174 "},"}":{"ha":1389,"x_min":174,"x_max":868,"o":"m 174 174 l 521 174 l 521 347 l 694 347 l 694 694 l 868 694 l 868 868 l 694 868 l 694 1215 l 521 1215 l 521 1389 l 174 1389 l 174 1215 l 347 1215 l 347 868 l 521 868 l 521 694 l 347 694 l 347 347 l 174 347 l 174 174 "},"[":{"ha":1389,"x_min":347,"x_max":1042,"o":"m 347 174 l 1042 174 l 1042 347 l 694 347 l 694 1215 l 1042 1215 l 1042 1389 l 347 1389 l 347 174 "},"]":{"ha":1389,"x_min":174,"x_max":868,"o":"m 174 174 l 868 174 l 868 1389 l 174 1389 l 174 1215 l 521 1215 l 521 347 l 174 347 l 174 174 "},"(":{"ha":1389,"x_min":347,"x_max":1042,"o":"m 694 174 l 1042 174 l 1042 347 l 868 347 l 868 521 l 694 521 l 694 1042 l 868 1042 l 868 1215 l 1042 1215 l 1042 1389 l 694 1389 l 694 1215 l 521 1215 l 521 1042 l 347 1042 l 347 521 l 521 521 l 521 347 l 694 347 l 694 174 "},")":{"ha":1389,"x_min":174,"x_max":868,"o":"m 174 174 l 521 174 l 521 347 l 694 347 l 694 521 l 868 521 l 868 1042 l 694 1042 l 694 1215 l 521 1215 l 521 1389 l 174 1389 l 174 1215 l 347 1215 l 347 1042 l 521 1042 l 521 521 l 347 521 l 347 347 l 174 347 l 174 174 "},"—":{"ha":1389,"x_min":0,"x_max":1389,"o":"m 0 694 l 1389 694 l 1389 868 l 0 868 l 0 694 "},"–":{"ha":1389,"x_min":0,"x_max":1215,"o":"m 0 694 l 1215 694 l 1215 868 l 0 868 l 0 694 "},"―":{"ha":1389,"x_min":0,"x_max":1215,"o":"m 0 694 l 1215 694 l 1215 868 l 0 868 l 0 694 "},"-":{"ha":1389,"x_min":174,"x_max":1215,"o":"m 174 694 l 1215 694 l 1215 868 l 174 868 l 174 694 "},"­":{"ha":1389,"x_min":174,"x_max":1215,"o":"m 174 694 l 1215 694 l 1215 868 l 174 868 l 174 694 "},"«":{"ha":1389,"x_min":0,"x_max":1215,"o":"m 347 347 l 694 347 l 694 521 l 868 521 l 868 347 l 1215 347 l 1215 521 l 1042 521 l 1042 694 l 868 694 l 868 868 l 1042 868 l 1042 1042 l 1215 1042 l 1215 1215 l 868 1215 l 868 1042 l 694 1042 l 694 1215 l 347 1215 l 347 1042 l 174 1042 l 174 868 l 0 868 l 0 694 l 174 694 l 174 521 l 347 521 l 347 347 m 521 521 l 521 694 l 347 694 l 347 868 l 521 868 l 521 1042 l 694 1042 l 694 868 l 521 868 l 521 694 l 694 694 l 694 521 l 521 521 "},"»":{"ha":1389,"x_min":0,"x_max":1215,"o":"m 0 347 l 347 347 l 347 521 l 521 521 l 521 347 l 868 347 l 868 521 l 1042 521 l 1042 694 l 1215 694 l 1215 868 l 1042 868 l 1042 1042 l 868 1042 l 868 1215 l 521 1215 l 521 1042 l 347 1042 l 347 1215 l 0 1215 l 0 1042 l 174 1042 l 174 868 l 347 868 l 347 694 l 174 694 l 174 521 l 0 521 l 0 347 m 521 521 l 521 694 l 694 694 l 694 868 l 521 868 l 521 1042 l 694 1042 l 694 868 l 868 868 l 868 694 l 694 694 l 694 521 l 521 521 "},"‹":{"ha":1389,"x_min":347,"x_max":1042,"o":"m 694 347 l 1042 347 l 1042 521 l 868 521 l 868 694 l 694 694 l 694 868 l 868 868 l 868 1042 l 1042 1042 l 1042 1215 l 694 1215 l 694 1042 l 521 1042 l 521 868 l 347 868 l 347 694 l 521 694 l 521 521 l 694 521 l 694 347 "},"›":{"ha":1389,"x_min":174,"x_max":868,"o":"m 174 347 l 521 347 l 521 521 l 694 521 l 694 694 l 868 694 l 868 868 l 694 868 l 694 1042 l 521 1042 l 521 1215 l 174 1215 l 174 1042 l 347 1042 l 347 868 l 521 868 l 521 694 l 347 694 l 347 521 l 174 521 l 174 347 "},"„":{"ha":1389,"x_min":0,"x_max":1042,"o":"m 521 694 l 174 694 l 174 347 l 0 347 l 0 174 l 347 174 l 347 347 l 521 347 l 521 694 m 1042 694 l 694 694 l 694 347 l 521 347 l 521 174 l 868 174 l 868 347 l 1042 347 l 1042 694 "},"“":{"ha":1389,"x_min":174,"x_max":1215,"o":"m 694 1389 l 347 1389 l 347 1215 l 174 1215 l 174 868 l 521 868 l 521 1215 l 694 1215 l 694 1389 m 1215 1389 l 868 1389 l 868 1215 l 694 1215 l 694 868 l 1042 868 l 1042 1215 l 1215 1215 l 1215 1389 "},"”":{"ha":1389,"x_min":174,"x_max":1215,"o":"m 694 1389 l 347 1389 l 347 1042 l 174 1042 l 174 868 l 521 868 l 521 1042 l 694 1042 l 694 1389 m 1215 1389 l 868 1389 l 868 1042 l 694 1042 l 694 868 l 1042 868 l 1042 1042 l 1215 1042 l 1215 1389 "},"‘":{"ha":1389,"x_min":347,"x_max":868,"o":"m 347 868 l 694 868 l 694 1215 l 868 1215 l 868 1389 l 521 1389 l 521 1215 l 347 1215 l 347 868 "},"’":{"ha":1389,"x_min":347,"x_max":868,"o":"m 347 868 l 694 868 l 694 1042 l 868 1042 l 868 1389 l 521 1389 l 521 1042 l 347 1042 l 347 868 "},"‚":{"ha":1389,"x_min":347,"x_max":868,"o":"m 347 174 l 694 174 l 694 347 l 868 347 l 868 694 l 521 694 l 521 347 l 347 347 l 347 174 "},"·":{"ha":1389,"x_min":347,"x_max":694,"o":"m 347 521 l 694 521 l 694 868 l 347 868 l 347 521 "},";":{"ha":1389,"x_min":174,"x_max":694,"o":"m 347 868 l 694 868 l 694 1215 l 347 1215 l 347 868 m 174 174 l 521 174 l 521 347 l 694 347 l 694 694 l 347 694 l 347 347 l 174 347 l 174 174 "}," ":{"ha":1389,"x_min":0,"x_max":0,"o":""},"":{"ha":1389,"x_min":174,"x_max":1042,"o":"m 174 174 l 521 174 l 521 521 l 174 521 l 174 174 m 694 174 l 1042 174 l 1042 521 l 694 521 l 694 174 "},"¢":{"ha":1389,"x_min":0,"x_max":1215,"o":"m 521 174 l 694 174 l 694 347 l 1042 347 l 1042 521 l 1215 521 l 1215 694 l 868 694 l 868 521 l 694 521 l 694 1042 l 868 1042 l 868 868 l 1215 868 l 1215 1042 l 1042 1042 l 1042 1215 l 694 1215 l 694 1389 l 521 1389 l 521 1215 l 174 1215 l 174 1042 l 0 1042 l 0 521 l 174 521 l 174 347 l 521 347 l 521 174 m 347 521 l 347 1042 l 521 1042 l 521 521 l 347 521 "},"¤":{"ha":1389,"x_min":174,"x_max":1215,"o":"m 347 1215 l 174 1215 l 174 1042 l 347 1042 l 347 1215 m 868 1042 l 868 1215 l 521 1215 l 521 1042 l 868 1042 m 1215 1215 l 1042 1215 l 1042 1042 l 1215 1042 l 1215 1215 m 521 1042 l 347 1042 l 347 521 l 521 521 l 521 1042 m 868 1042 l 868 521 l 1042 521 l 1042 1042 l 868 1042 m 174 521 l 174 347 l 347 347 l 347 521 l 174 521 m 521 521 l 521 347 l 868 347 l 868 521 l 521 521 m 1042 347 l 1215 347 l 1215 521 l 1042 521 l 1042 347 "},"$":{"ha":1389,"x_min":0,"x_max":1215,"o":"m 521 174 l 694 174 l 694 347 l 1042 347 l 1042 521 l 1215 521 l 1215 694 l 1042 694 l 1042 868 l 694 868 l 694 1042 l 1042 1042 l 1042 1215 l 694 1215 l 694 1389 l 521 1389 l 521 1215 l 174 1215 l 174 1042 l 0 1042 l 0 868 l 174 868 l 174 694 l 521 694 l 521 521 l 0 521 l 0 347 l 521 347 l 521 174 m 347 868 l 347 1042 l 521 1042 l 521 868 l 347 868 m 694 521 l 694 694 l 868 694 l 868 521 l 694 521 "},"₯":{"ha":1389,"x_min":0,"x_max":1215,"o":"m 521 1215 l 521 1389 l 174 1389 l 174 1215 l 521 1215 m 174 347 l 174 1215 l 0 1215 l 0 174 l 521 174 l 521 347 l 174 347 m 868 347 l 868 868 l 694 868 l 694 1215 l 521 1215 l 521 347 l 694 347 l 694 0 l 868 0 l 868 174 l 1042 174 l 1042 347 l 868 347 m 1042 868 l 1042 1042 l 868 1042 l 868 868 l 1042 868 m 1215 868 l 1042 868 l 1042 347 l 1215 347 l 1215 868 "},"€":{"ha":1389,"x_min":0,"x_max":1215,"o":"m 1215 1215 l 1042 1215 l 1042 1389 l 521 1389 l 521 1215 l 347 1215 l 347 1042 l 0 1042 l 0 868 l 174 868 l 174 694 l 0 694 l 0 521 l 347 521 l 347 347 l 521 347 l 521 174 l 1042 174 l 1042 347 l 1215 347 l 1215 521 l 868 521 l 868 347 l 694 347 l 694 521 l 868 521 l 868 694 l 521 694 l 521 868 l 868 868 l 868 1042 l 694 1042 l 694 1215 l 868 1215 l 868 1042 l 1215 1042 l 1215 1215 "},"ƒ":{"ha":1389,"x_min":174,"x_max":1215,"o":"m 174 174 l 694 174 l 694 347 l 868 347 l 868 868 l 1215 868 l 1215 1042 l 868 1042 l 868 1215 l 1215 1215 l 1215 1389 l 694 1389 l 694 1215 l 521 1215 l 521 1042 l 174 1042 l 174 868 l 521 868 l 521 347 l 174 347 l 174 174 "},"₴":{"ha":1389,"x_min":0,"x_max":1215,"o":"m 1042 1042 l 1042 1215 l 868 1215 l 868 1389 l 174 1389 l 174 1215 l 694 1215 l 694 1042 l 0 1042 l 0 868 l 1215 868 l 1215 1042 l 1042 1042 m 1215 694 l 0 694 l 0 521 l 174 521 l 174 347 l 347 347 l 347 174 l 1042 174 l 1042 347 l 521 347 l 521 521 l 1215 521 l 1215 694 "},"₽":{"ha":1389,"x_min":0,"x_max":1389,"o":"m 1389 1215 l 1215 1215 l 1215 1389 l 174 1389 l 174 868 l 0 868 l 0 694 l 174 694 l 174 521 l 0 521 l 0 347 l 174 347 l 174 174 l 521 174 l 521 347 l 868 347 l 868 521 l 521 521 l 521 694 l 1215 694 l 1215 868 l 1389 868 l 1389 1215 m 1042 1215 l 1042 868 l 521 868 l 521 1215 l 1042 1215 "},"£":{"ha":1389,"x_min":0,"x_max":1215,"o":"m 0 174 l 1215 174 l 1215 347 l 521 347 l 521 694 l 1042 694 l 1042 868 l 521 868 l 521 1215 l 868 1215 l 868 1042 l 1215 1042 l 1215 1215 l 1042 1215 l 1042 1389 l 347 1389 l 347 1215 l 174 1215 l 174 868 l 0 868 l 0 694 l 174 694 l 174 347 l 0 347 l 0 174 "},"₸":{"ha":1389,"x_min":174,"x_max":1215,"o":"m 174 1215 l 1215 1215 l 1215 1389 l 174 1389 l 174 1215 m 521 174 l 868 174 l 868 868 l 1215 868 l 1215 1042 l 174 1042 l 174 868 l 521 868 l 521 174 "},"₮":{"ha":1389,"x_min":174,"x_max":1215,"o":"m 1215 1389 l 174 1389 l 174 1215 l 521 1215 l 521 868 l 347 868 l 347 694 l 521 694 l 521 521 l 347 521 l 347 347 l 521 347 l 521 174 l 868 174 l 868 521 l 1042 521 l 1042 694 l 868 694 l 868 868 l 1042 868 l 1042 1042 l 868 1042 l 868 1215 l 1215 1215 l 1215 1389 "},"¥":{"ha":1389,"x_min":174,"x_max":1215,"o":"m 521 174 l 868 174 l 868 347 l 1215 347 l 1215 521 l 868 521 l 868 694 l 1215 694 l 1215 868 l 1042 868 l 1042 1042 l 1215 1042 l 1215 1389 l 868 1389 l 868 1042 l 521 1042 l 521 1389 l 174 1389 l 174 1042 l 347 1042 l 347 868 l 174 868 l 174 694 l 521 694 l 521 521 l 174 521 l 174 347 l 521 347 l 521 174 "},"∕":{"ha":1389,"x_min":0,"x_max":1215,"o":"m 1215 1389 l 1042 1389 l 1042 1215 l 1215 1215 l 1215 1389 m 868 1215 l 868 1042 l 1042 1042 l 1042 1215 l 868 1215 m 694 1042 l 694 868 l 868 868 l 868 1042 l 694 1042 m 521 868 l 521 694 l 694 694 l 694 868 l 521 868 m 347 694 l 347 521 l 521 521 l 521 694 l 347 694 m 174 521 l 174 347 l 347 347 l 347 521 l 174 521 m 0 347 l 0 174 l 174 174 l 174 347 l 0 347 "},"+":{"ha":1389,"x_min":174,"x_max":1215,"o":"m 521 347 l 868 347 l 868 694 l 1215 694 l 1215 868 l 868 868 l 868 1215 l 521 1215 l 521 868 l 174 868 l 174 694 l 521 694 l 521 347 "},"×":{"ha":1389,"x_min":174,"x_max":1042,"o":"m 347 1215 l 174 1215 l 174 1042 l 347 1042 l 347 1215 m 1042 1215 l 868 1215 l 868 1042 l 1042 1042 l 1042 1215 m 521 1042 l 347 1042 l 347 868 l 521 868 l 521 1042 m 694 1042 l 694 868 l 868 868 l 868 1042 l 694 1042 m 521 868 l 521 694 l 694 694 l 694 868 l 521 868 m 347 694 l 347 521 l 521 521 l 521 694 l 347 694 m 694 521 l 868 521 l 868 694 l 694 694 l 694 521 m 174 521 l 174 347 l 347 347 l 347 521 l 174 521 m 868 347 l 1042 347 l 1042 521 l 868 521 l 868 347 "},"÷":{"ha":1389,"x_min":174,"x_max":1215,"o":"m 521 1042 l 868 1042 l 868 1215 l 521 1215 l 521 1042 m 174 694 l 1215 694 l 1215 868 l 174 868 l 174 694 m 521 347 l 868 347 l 868 521 l 521 521 l 521 347 "},"=":{"ha":1389,"x_min":0,"x_max":1215,"o":"m 0 868 l 1215 868 l 1215 1042 l 0 1042 l 0 868 m 0 521 l 1215 521 l 1215 694 l 0 694 l 0 521 "},"≠":{"ha":1389,"x_min":0,"x_max":1215,"o":"m 1215 1389 l 1042 1389 l 1042 1215 l 1215 1215 l 1215 1389 m 868 1215 l 868 1042 l 0 1042 l 0 868 l 521 868 l 521 694 l 0 694 l 0 521 l 174 521 l 174 347 l 347 347 l 347 521 l 1215 521 l 1215 694 l 694 694 l 694 868 l 1215 868 l 1215 1042 l 1042 1042 l 1042 1215 l 868 1215 m 0 347 l 0 174 l 174 174 l 174 347 l 0 347 "},">":{"ha":1389,"x_min":174,"x_max":1042,"o":"m 174 174 l 521 174 l 521 347 l 694 347 l 694 521 l 868 521 l 868 694 l 1042 694 l 1042 868 l 868 868 l 868 1042 l 694 1042 l 694 1215 l 521 1215 l 521 1389 l 174 1389 l 174 1215 l 347 1215 l 347 1042 l 521 1042 l 521 868 l 694 868 l 694 694 l 521 694 l 521 521 l 347 521 l 347 347 l 174 347 l 174 174 "},"<":{"ha":1389,"x_min":174,"x_max":1042,"o":"m 694 174 l 1042 174 l 1042 347 l 868 347 l 868 521 l 694 521 l 694 694 l 521 694 l 521 868 l 694 868 l 694 1042 l 868 1042 l 868 1215 l 1042 1215 l 1042 1389 l 694 1389 l 694 1215 l 521 1215 l 521 1042 l 347 1042 l 347 868 l 174 868 l 174 694 l 347 694 l 347 521 l 521 521 l 521 347 l 694 347 l 694 174 "},"≥":{"ha":1389,"x_min":347,"x_max":1042,"o":"m 347 521 l 694 521 l 694 694 l 868 694 l 868 868 l 1042 868 l 1042 1042 l 868 1042 l 868 1215 l 694 1215 l 694 1389 l 347 1389 l 347 1215 l 521 1215 l 521 1042 l 694 1042 l 694 868 l 521 868 l 521 694 l 347 694 l 347 521 m 347 174 l 1042 174 l 1042 347 l 347 347 l 347 174 "},"≤":{"ha":1389,"x_min":347,"x_max":1042,"o":"m 694 521 l 1042 521 l 1042 694 l 868 694 l 868 868 l 694 868 l 694 1042 l 868 1042 l 868 1215 l 1042 1215 l 1042 1389 l 694 1389 l 694 1215 l 521 1215 l 521 1042 l 347 1042 l 347 868 l 521 868 l 521 694 l 694 694 l 694 521 m 347 174 l 1042 174 l 1042 347 l 347 347 l 347 174 "},"±":{"ha":1389,"x_min":174,"x_max":1215,"o":"m 521 521 l 868 521 l 868 868 l 1215 868 l 1215 1042 l 868 1042 l 868 1389 l 521 1389 l 521 1042 l 174 1042 l 174 868 l 521 868 l 521 521 m 174 174 l 1215 174 l 1215 347 l 174 347 l 174 174 "},"≈":{"ha":1389,"x_min":0,"x_max":1042,"o":"m 521 1215 l 174 1215 l 174 1042 l 521 1042 l 521 1215 m 1042 1215 l 868 1215 l 868 1042 l 1042 1042 l 1042 1215 m 0 1042 l 0 868 l 174 868 l 174 1042 l 0 1042 m 521 1042 l 521 868 l 868 868 l 868 1042 l 521 1042 m 521 694 l 174 694 l 174 521 l 521 521 l 521 694 m 868 694 l 868 521 l 1042 521 l 1042 694 l 868 694 m 0 521 l 0 347 l 174 347 l 174 521 l 0 521 m 521 521 l 521 347 l 868 347 l 868 521 l 521 521 "},"~":{"ha":1389,"x_min":0,"x_max":1215,"o":"m 868 694 l 868 868 l 694 868 l 694 1042 l 174 1042 l 174 868 l 347 868 l 347 694 l 521 694 l 521 521 l 1042 521 l 1042 694 l 868 694 m 0 868 l 0 694 l 174 694 l 174 868 l 0 868 m 1215 868 l 1042 868 l 1042 694 l 1215 694 l 1215 868 "},"¬":{"ha":1389,"x_min":174,"x_max":1215,"o":"m 868 521 l 1215 521 l 1215 1042 l 174 1042 l 174 868 l 868 868 l 868 521 "},"∞":{"ha":1389,"x_min":0,"x_max":1215,"o":"m 521 868 l 521 1042 l 174 1042 l 174 868 l 521 868 m 1042 868 l 1042 1042 l 694 1042 l 694 868 l 1042 868 m 174 868 l 0 868 l 0 521 l 174 521 l 174 868 m 694 868 l 521 868 l 521 521 l 694 521 l 694 868 m 1215 868 l 1042 868 l 1042 521 l 1215 521 l 1215 868 m 174 521 l 174 347 l 521 347 l 521 521 l 174 521 m 694 521 l 694 347 l 1042 347 l 1042 521 l 694 521 "},"∫":{"ha":1389,"x_min":174,"x_max":1215,"o":"m 1042 1389 l 694 1389 l 694 1215 l 521 1215 l 521 174 l 347 174 l 347 0 l 694 0 l 694 174 l 868 174 l 868 1215 l 1042 1215 l 1042 1389 m 1215 1215 l 1042 1215 l 1042 1042 l 1215 1042 l 1215 1215 m 347 347 l 174 347 l 174 174 l 347 174 l 347 347 "},"∆":{"ha":1389,"x_min":0,"x_max":1215,"o":"m 0 174 l 1215 174 l 1215 1042 l 1042 1042 l 1042 1215 l 868 1215 l 868 1389 l 347 1389 l 347 1215 l 174 1215 l 174 1042 l 0 1042 l 0 174 m 347 347 l 347 1042 l 521 1042 l 521 1215 l 694 1215 l 694 1042 l 868 1042 l 868 347 l 347 347 "},"∏":{"ha":1389,"x_min":0,"x_max":1215,"o":"m 0 174 l 347 174 l 347 1215 l 868 1215 l 868 174 l 1215 174 l 1215 1389 l 0 1389 l 0 174 "},"∑":{"ha":1389,"x_min":0,"x_max":1215,"o":"m 0 174 l 1215 174 l 1215 521 l 868 521 l 868 347 l 521 347 l 521 521 l 694 521 l 694 694 l 1042 694 l 1042 868 l 694 868 l 694 1042 l 521 1042 l 521 1215 l 868 1215 l 868 1042 l 1215 1042 l 1215 1389 l 0 1389 l 0 1215 l 174 1215 l 174 1042 l 347 1042 l 347 868 l 521 868 l 521 694 l 347 694 l 347 521 l 174 521 l 174 347 l 0 347 l 0 174 "},"√":{"ha":1389,"x_min":0,"x_max":1215,"o":"m 347 174 l 868 174 l 868 1215 l 1215 1215 l 1215 1389 l 521 1389 l 521 521 l 347 521 l 347 694 l 0 694 l 0 521 l 174 521 l 174 347 l 347 347 l 347 174 "},"µ":{"ha":1389,"x_min":0,"x_max":1215,"o":"m 347 347 l 347 1042 l 0 1042 l 0 0 l 347 0 l 347 174 l 694 174 l 694 347 l 347 347 m 1215 347 l 1042 347 l 1042 1042 l 694 1042 l 694 347 l 868 347 l 868 174 l 1215 174 l 1215 347 "},"∂":{"ha":1389,"x_min":0,"x_max":1215,"o":"m 174 174 l 1042 174 l 1042 347 l 1215 347 l 1215 1042 l 1042 1042 l 1042 1215 l 868 1215 l 868 1389 l 174 1389 l 174 1215 l 0 1215 l 0 1042 l 347 1042 l 347 1215 l 694 1215 l 694 1042 l 868 1042 l 868 868 l 174 868 l 174 694 l 0 694 l 0 347 l 174 347 l 174 174 m 347 347 l 347 694 l 868 694 l 868 347 l 347 347 "},"%":{"ha":1389,"x_min":0,"x_max":1215,"o":"m 347 1215 l 347 1042 l 521 1042 l 521 1389 l 174 1389 l 174 1215 l 347 1215 m 1215 1389 l 1042 1389 l 1042 1215 l 1215 1215 l 1215 1389 m 347 868 l 347 1042 l 174 1042 l 174 1215 l 0 1215 l 0 868 l 347 868 m 868 1215 l 868 1042 l 1042 1042 l 1042 1215 l 868 1215 m 694 1042 l 694 868 l 868 868 l 868 1042 l 694 1042 m 521 868 l 521 694 l 694 694 l 694 868 l 521 868 m 347 694 l 347 521 l 521 521 l 521 694 l 347 694 m 868 694 l 868 521 l 1042 521 l 1042 347 l 1215 347 l 1215 694 l 868 694 m 174 521 l 174 347 l 347 347 l 347 521 l 174 521 m 868 347 l 868 521 l 694 521 l 694 174 l 1042 174 l 1042 347 l 868 347 m 0 347 l 0 174 l 174 174 l 174 347 l 0 347 "},"‰":{"ha":1389,"x_min":0,"x_max":1389,"o":"m 347 1215 l 347 1042 l 521 1042 l 521 1389 l 174 1389 l 174 1215 l 347 1215 m 1215 1215 l 1215 1389 l 1042 1389 l 1042 1215 l 1215 1215 m 347 868 l 347 1042 l 174 1042 l 174 1215 l 0 1215 l 0 868 l 347 868 m 1042 1042 l 1042 1215 l 868 1215 l 868 1042 l 1042 1042 m 868 868 l 868 1042 l 694 1042 l 694 868 l 868 868 m 694 694 l 694 868 l 521 868 l 521 694 l 694 694 m 521 694 l 347 694 l 347 521 l 521 521 l 521 694 m 1389 694 l 694 694 l 694 521 l 868 521 l 868 347 l 694 347 l 694 521 l 521 521 l 521 174 l 1215 174 l 1215 347 l 1042 347 l 1042 521 l 1215 521 l 1215 347 l 1389 347 l 1389 694 m 174 521 l 174 347 l 347 347 l 347 521 l 174 521 m 0 347 l 0 174 l 174 174 l 174 347 l 0 347 "},"↑":{"ha":1389,"x_min":0,"x_max":1215,"o":"m 347 0 l 868 0 l 868 694 l 1215 694 l 1215 868 l 1042 868 l 1042 1042 l 868 1042 l 868 1215 l 694 1215 l 694 1389 l 521 1389 l 521 1215 l 347 1215 l 347 1042 l 174 1042 l 174 868 l 0 868 l 0 694 l 347 694 l 347 0 "},"→":{"ha":1389,"x_min":0,"x_max":1389,"o":"m 694 174 l 868 174 l 868 347 l 1042 347 l 1042 521 l 1215 521 l 1215 694 l 1389 694 l 1389 868 l 1215 868 l 1215 1042 l 1042 1042 l 1042 1215 l 868 1215 l 868 1389 l 694 1389 l 694 1042 l 0 1042 l 0 521 l 694 521 l 694 174 "},"↓":{"ha":1389,"x_min":0,"x_max":1215,"o":"m 521 0 l 694 0 l 694 174 l 868 174 l 868 347 l 1042 347 l 1042 521 l 1215 521 l 1215 694 l 868 694 l 868 1389 l 347 1389 l 347 694 l 0 694 l 0 521 l 174 521 l 174 347 l 347 347 l 347 174 l 521 174 l 521 0 "},"←":{"ha":1389,"x_min":0,"x_max":1389,"o":"m 521 174 l 694 174 l 694 521 l 1389 521 l 1389 1042 l 694 1042 l 694 1389 l 521 1389 l 521 1215 l 347 1215 l 347 1042 l 174 1042 l 174 868 l 0 868 l 0 694 l 174 694 l 174 521 l 347 521 l 347 347 l 521 347 l 521 174 "},"◊":{"ha":1389,"x_min":0,"x_max":1215,"o":"m 694 1215 l 694 1389 l 521 1389 l 521 1215 l 694 1215 m 521 1042 l 521 1215 l 347 1215 l 347 1042 l 521 1042 m 694 1042 l 868 1042 l 868 1215 l 694 1215 l 694 1042 m 347 868 l 347 1042 l 174 1042 l 174 868 l 347 868 m 868 868 l 1042 868 l 1042 1042 l 868 1042 l 868 868 m 174 868 l 0 868 l 0 694 l 174 694 l 174 868 m 1215 868 l 1042 868 l 1042 694 l 1215 694 l 1215 868 m 347 694 l 174 694 l 174 521 l 347 521 l 347 694 m 868 694 l 868 521 l 1042 521 l 1042 694 l 868 694 m 521 521 l 347 521 l 347 347 l 521 347 l 521 521 m 694 521 l 694 347 l 868 347 l 868 521 l 694 521 m 521 347 l 521 174 l 694 174 l 694 347 l 521 347 "},"▲":{"ha":1389,"x_min":0,"x_max":1215,"o":"m 0 174 l 1215 174 l 1215 347 l 1042 347 l 1042 694 l 868 694 l 868 1042 l 694 1042 l 694 1389 l 521 1389 l 521 1042 l 347 1042 l 347 694 l 174 694 l 174 347 l 0 347 l 0 174 "},"▶":{"ha":1389,"x_min":0,"x_max":1215,"o":"m 0 174 l 174 174 l 174 347 l 521 347 l 521 521 l 868 521 l 868 694 l 1215 694 l 1215 868 l 868 868 l 868 1042 l 521 1042 l 521 1215 l 174 1215 l 174 1389 l 0 1389 l 0 174 "},"▼":{"ha":1389,"x_min":0,"x_max":1215,"o":"m 521 174 l 694 174 l 694 521 l 868 521 l 868 868 l 1042 868 l 1042 1215 l 1215 1215 l 1215 1389 l 0 1389 l 0 1215 l 174 1215 l 174 868 l 347 868 l 347 521 l 521 521 l 521 174 "},"◀":{"ha":1389,"x_min":0,"x_max":1215,"o":"m 1042 174 l 1215 174 l 1215 1389 l 1042 1389 l 1042 1215 l 694 1215 l 694 1042 l 347 1042 l 347 868 l 0 868 l 0 694 l 347 694 l 347 521 l 694 521 l 694 347 l 1042 347 l 1042 174 "},"★":{"ha":1389,"x_min":0,"x_max":1215,"o":"m 174 174 l 347 174 l 347 347 l 521 347 l 521 521 l 694 521 l 694 347 l 868 347 l 868 174 l 1042 174 l 1042 521 l 868 521 l 868 694 l 1042 694 l 1042 868 l 1215 868 l 1215 1042 l 694 1042 l 694 1389 l 521 1389 l 521 1042 l 0 1042 l 0 868 l 174 868 l 174 694 l 347 694 l 347 521 l 174 521 l 174 174 "},"☆":{"ha":1389,"x_min":0,"x_max":1215,"o":"m 694 1042 l 694 1389 l 521 1389 l 521 1042 l 694 1042 m 347 868 l 521 868 l 521 1042 l 0 1042 l 0 868 l 174 868 l 174 694 l 347 694 l 347 868 m 1215 1042 l 694 1042 l 694 868 l 868 868 l 868 694 l 1042 694 l 1042 868 l 1215 868 l 1215 1042 m 694 694 l 694 521 l 521 521 l 521 694 l 347 694 l 347 521 l 174 521 l 174 174 l 347 174 l 347 347 l 868 347 l 868 174 l 1042 174 l 1042 521 l 868 521 l 868 694 l 694 694 "},"♠":{"ha":1389,"x_min":0,"x_max":1215,"o":"m 174 174 l 1042 174 l 1042 347 l 868 347 l 868 521 l 1215 521 l 1215 868 l 1042 868 l 1042 1042 l 868 1042 l 868 1215 l 694 1215 l 694 1389 l 521 1389 l 521 1215 l 347 1215 l 347 1042 l 174 1042 l 174 868 l 0 868 l 0 521 l 347 521 l 347 347 l 174 347 l 174 174 "},"♣":{"ha":1389,"x_min":174,"x_max":1215,"o":"m 868 1042 l 868 1389 l 521 1389 l 521 1042 l 868 1042 m 521 1042 l 174 1042 l 174 694 l 521 694 l 521 1042 m 1215 1042 l 868 1042 l 868 694 l 1215 694 l 1215 1042 m 521 694 l 521 347 l 347 347 l 347 174 l 1042 174 l 1042 347 l 868 347 l 868 694 l 521 694 "},"♥":{"ha":1389,"x_min":0,"x_max":1215,"o":"m 521 174 l 694 174 l 694 347 l 868 347 l 868 521 l 1042 521 l 1042 694 l 1215 694 l 1215 1215 l 1042 1215 l 1042 1389 l 694 1389 l 694 1215 l 521 1215 l 521 1389 l 174 1389 l 174 1215 l 0 1215 l 0 694 l 174 694 l 174 521 l 347 521 l 347 347 l 521 347 l 521 174 "},"♦":{"ha":1389,"x_min":0,"x_max":1215,"o":"m 521 174 l 694 174 l 694 347 l 868 347 l 868 521 l 1042 521 l 1042 694 l 1215 694 l 1215 868 l 1042 868 l 1042 1042 l 868 1042 l 868 1215 l 694 1215 l 694 1389 l 521 1389 l 521 1215 l 347 1215 l 347 1042 l 174 1042 l 174 868 l 0 868 l 0 694 l 174 694 l 174 521 l 347 521 l 347 347 l 521 347 l 521 174 "},"♪":{"ha":1389,"x_min":0,"x_max":1215,"o":"m 868 1215 l 694 1215 l 694 1389 l 521 1389 l 521 694 l 174 694 l 174 521 l 0 521 l 0 347 l 174 347 l 174 174 l 521 174 l 521 347 l 694 347 l 694 1042 l 868 1042 l 868 1215 m 1042 1042 l 868 1042 l 868 868 l 1042 868 l 1042 1042 m 1215 868 l 1042 868 l 1042 694 l 1215 694 l 1215 868 m 868 694 l 868 521 l 1042 521 l 1042 694 l 868 694 "},"":{"ha":1389,"x_min":0,"x_max":1389,"o":"m 868 1215 l 868 1389 l 694 1389 l 694 1215 l 868 1215 m 1389 1042 l 1215 1042 l 1215 694 l 1042 694 l 1042 521 l 868 521 l 868 694 l 1042 694 l 1042 1042 l 1215 1042 l 1215 1215 l 868 1215 l 868 1042 l 694 1042 l 694 1215 l 174 1215 l 174 1042 l 0 1042 l 0 521 l 174 521 l 174 347 l 347 347 l 347 174 l 521 174 l 521 347 l 694 347 l 694 174 l 1042 174 l 1042 347 l 1215 347 l 1215 521 l 1389 521 l 1389 1042 "},"@":{"ha":1389,"x_min":0,"x_max":1215,"o":"m 1042 1389 l 174 1389 l 174 1215 l 1042 1215 l 1042 1389 m 0 1215 l 0 347 l 174 347 l 174 1215 l 0 1215 m 1215 1215 l 1042 1215 l 1042 694 l 868 694 l 868 1042 l 347 1042 l 347 521 l 1215 521 l 1215 1215 m 694 868 l 694 694 l 521 694 l 521 868 l 694 868 m 174 174 l 1042 174 l 1042 347 l 174 347 l 174 174 "},"&":{"ha":1389,"x_min":0,"x_max":1215,"o":"m 868 521 l 868 694 l 694 694 l 694 868 l 868 868 l 868 1215 l 694 1215 l 694 1389 l 174 1389 l 174 1215 l 0 1215 l 0 868 l 174 868 l 174 694 l 0 694 l 0 347 l 174 347 l 174 174 l 1215 174 l 1215 347 l 1042 347 l 1042 521 l 868 521 m 347 868 l 347 1215 l 521 1215 l 521 868 l 347 868 m 694 521 l 694 347 l 347 347 l 347 694 l 521 694 l 521 521 l 694 521 m 1215 694 l 1042 694 l 1042 521 l 1215 521 l 1215 694 "},"¶":{"ha":1389,"x_min":174,"x_max":1215,"o":"m 694 174 l 868 174 l 868 521 l 1042 521 l 1042 174 l 1215 174 l 1215 1389 l 347 1389 l 347 1215 l 174 1215 l 174 694 l 347 694 l 347 521 l 694 521 l 694 174 m 521 694 l 521 868 l 347 868 l 347 1042 l 521 1042 l 521 1215 l 694 1215 l 694 694 l 521 694 m 868 694 l 868 1215 l 1042 1215 l 1042 694 l 868 694 "},"§":{"ha":1389,"x_min":174,"x_max":1215,"o":"m 1215 1215 l 1042 1215 l 1042 1389 l 347 1389 l 347 1215 l 174 1215 l 174 868 l 347 868 l 347 694 l 521 694 l 521 868 l 868 868 l 868 1042 l 521 1042 l 521 1215 l 868 1215 l 868 1042 l 1215 1042 l 1215 1215 m 868 694 l 521 694 l 521 521 l 868 521 l 868 347 l 521 347 l 521 521 l 174 521 l 174 347 l 347 347 l 347 174 l 1042 174 l 1042 347 l 1215 347 l 1215 694 l 1042 694 l 1042 868 l 868 868 l 868 694 "},"©":{"ha":1389,"x_min":0,"x_max":1389,"o":"m 1042 1215 l 1042 1389 l 347 1389 l 347 1215 l 1042 1215 m 347 1042 l 347 1215 l 174 1215 l 174 1042 l 347 1042 m 1042 1042 l 1215 1042 l 1215 1215 l 1042 1215 l 1042 1042 m 174 1042 l 0 1042 l 0 347 l 174 347 l 174 1042 m 521 1042 l 521 868 l 868 868 l 868 1042 l 521 1042 m 1389 1042 l 1215 1042 l 1215 347 l 1389 347 l 1389 1042 m 347 868 l 347 521 l 521 521 l 521 868 l 347 868 m 521 347 l 868 347 l 868 521 l 521 521 l 521 347 m 347 347 l 174 347 l 174 174 l 347 174 l 347 347 m 1042 347 l 1042 174 l 1215 174 l 1215 347 l 1042 347 m 347 174 l 347 0 l 1042 0 l 1042 174 l 347 174 "},"®":{"ha":1389,"x_min":0,"x_max":1389,"o":"m 1042 1215 l 1042 1389 l 347 1389 l 347 1215 l 1042 1215 m 347 1042 l 347 1215 l 174 1215 l 174 1042 l 347 1042 m 1042 1042 l 1215 1042 l 1215 1215 l 1042 1215 l 1042 1042 m 174 1042 l 0 1042 l 0 347 l 174 347 l 174 1042 m 347 347 l 521 347 l 521 521 l 868 521 l 868 694 l 521 694 l 521 868 l 868 868 l 868 1042 l 347 1042 l 347 347 m 1389 1042 l 1215 1042 l 1215 347 l 1389 347 l 1389 1042 m 868 694 l 1042 694 l 1042 868 l 868 868 l 868 694 m 868 347 l 1042 347 l 1042 521 l 868 521 l 868 347 m 347 347 l 174 347 l 174 174 l 347 174 l 347 347 m 1042 347 l 1042 174 l 1215 174 l 1215 347 l 1042 347 m 347 174 l 347 0 l 1042 0 l 1042 174 l 347 174 "},"™":{"ha":1389,"x_min":174,"x_max":1215,"o":"m 347 694 l 521 694 l 521 1215 l 694 1215 l 694 694 l 868 694 l 868 1042 l 1042 1042 l 1042 694 l 1215 694 l 1215 1389 l 174 1389 l 174 1215 l 347 1215 l 347 694 "},"°":{"ha":1389,"x_min":347,"x_max":868,"o":"m 694 1215 l 694 1389 l 521 1389 l 521 1215 l 694 1215 m 521 1215 l 347 1215 l 347 1042 l 521 1042 l 521 1215 m 868 1215 l 694 1215 l 694 1042 l 868 1042 l 868 1215 m 521 1042 l 521 868 l 694 868 l 694 1042 l 521 1042 "},"|":{"ha":1389,"x_min":521,"x_max":868,"o":"m 521 174 l 868 174 l 868 1389 l 521 1389 l 521 174 "},"¦":{"ha":1389,"x_min":521,"x_max":868,"o":"m 521 868 l 868 868 l 868 1389 l 521 1389 l 521 868 m 521 174 l 868 174 l 868 694 l 521 694 l 521 174 "},"†":{"ha":1389,"x_min":174,"x_max":1215,"o":"m 521 174 l 868 174 l 868 868 l 1215 868 l 1215 1042 l 868 1042 l 868 1389 l 521 1389 l 521 1042 l 174 1042 l 174 868 l 521 868 l 521 174 "},"‡":{"ha":1389,"x_min":174,"x_max":1215,"o":"m 521 174 l 868 174 l 868 521 l 1215 521 l 1215 694 l 868 694 l 868 868 l 1215 868 l 1215 1042 l 868 1042 l 868 1389 l 521 1389 l 521 1042 l 174 1042 l 174 868 l 521 868 l 521 694 l 174 694 l 174 521 l 521 521 l 521 174 "},"№":{"ha":1389,"x_min":0,"x_max":1215,"o":"m 347 1389 l 0 1389 l 0 174 l 174 174 l 174 1215 l 347 1215 l 347 1389 m 1042 1215 l 1042 1389 l 868 1389 l 868 1215 l 1042 1215 m 347 1215 l 347 174 l 521 174 l 521 1215 l 347 1215 m 868 1215 l 694 1215 l 694 694 l 868 694 l 868 1215 m 1215 1215 l 1042 1215 l 1042 694 l 1215 694 l 1215 1215 m 868 694 l 868 521 l 1042 521 l 1042 694 l 868 694 m 694 347 l 694 174 l 1215 174 l 1215 347 l 694 347 "},"^":{"ha":1389,"x_min":174,"x_max":1042,"o":"m 174 1042 l 521 1042 l 521 1215 l 694 1215 l 694 1042 l 1042 1042 l 1042 1215 l 868 1215 l 868 1389 l 347 1389 l 347 1215 l 174 1215 l 174 1042 "},"˗":{"ha":1389,"x_min":174,"x_max":1042,"o":"m 174 694 l 1042 694 l 1042 868 l 174 868 l 174 694 "},"̀":{"ha":0,"x_min":-986,"x_max":-639,"o":"m -812 1389 l -986 1389 l -986 1215 l -812 1215 l -812 1389 m -639 1215 l -812 1215 l -812 1042 l -639 1042 l -639 1215 "},"́":{"ha":0,"x_min":-847,"x_max":-500,"o":"m -500 1389 l -674 1389 l -674 1215 l -500 1215 l -500 1389 m -847 1215 l -847 1042 l -674 1042 l -674 1215 l -847 1215 "},"̦":{"ha":0,"x_min":-1042,"x_max":-521,"o":"m -1042 -519 l -694 -519 l -694 -346 l -521 -346 l -521 1 l -868 1 l -868 -346 l -1042 -346 l -1042 -519 "},"̵":{"ha":0,"x_min":-1028,"x_max":-356,"o":"m -1028 499 l -356 499 l -356 672 l -1028 672 l -1028 499 "},"ʼ":{"ha":1389,"x_min":0,"x_max":347,"o":"m 0 868 l 174 868 l 174 1042 l 347 1042 l 347 1389 l 0 1389 l 0 868 "},"ˉ":{"ha":1389,"x_min":174,"x_max":1042,"o":"m 174 1215 l 1042 1215 l 1042 1389 l 174 1389 l 174 1215 "},"ˋ":{"ha":1389,"x_min":521,"x_max":868,"o":"m 694 1389 l 521 1389 l 521 1215 l 694 1215 l 694 1389 m 868 1215 l 694 1215 l 694 1042 l 868 1042 l 868 1215 "},"ˊ":{"ha":1389,"x_min":521,"x_max":868,"o":"m 868 1389 l 694 1389 l 694 1215 l 868 1215 l 868 1389 m 521 1215 l 521 1042 l 694 1042 l 694 1215 l 521 1215 "},"´":{"ha":1389,"x_min":521,"x_max":868,"o":"m 868 1389 l 694 1389 l 694 1215 l 868 1215 l 868 1389 m 521 1215 l 521 1042 l 694 1042 l 694 1215 l 521 1215 "},"˘":{"ha":1389,"x_min":174,"x_max":1042,"o":"m 347 1389 l 174 1389 l 174 1215 l 347 1215 l 347 1389 m 1042 1389 l 868 1389 l 868 1215 l 1042 1215 l 1042 1389 m 347 1215 l 347 1042 l 868 1042 l 868 1215 l 347 1215 "},"ˇ":{"ha":1389,"x_min":174,"x_max":1042,"o":"m 347 1042 l 868 1042 l 868 1215 l 1042 1215 l 1042 1389 l 694 1389 l 694 1215 l 521 1215 l 521 1389 l 174 1389 l 174 1215 l 347 1215 l 347 1042 "},"¸":{"ha":1389,"x_min":347,"x_max":868,"o":"m 868 347 l 694 347 l 694 174 l 868 174 l 868 347 m 347 174 l 347 0 l 694 0 l 694 174 l 347 174 "},"ˆ":{"ha":1389,"x_min":174,"x_max":1042,"o":"m 174 1042 l 521 1042 l 521 1215 l 694 1215 l 694 1042 l 1042 1042 l 1042 1215 l 868 1215 l 868 1389 l 347 1389 l 347 1215 l 174 1215 l 174 1042 "},"¨":{"ha":1389,"x_min":174,"x_max":1042,"o":"m 174 1215 l 521 1215 l 521 1389 l 174 1389 l 174 1215 m 694 1215 l 1042 1215 l 1042 1389 l 694 1389 l 694 1215 "},"˙":{"ha":1389,"x_min":521,"x_max":868,"o":"m 521 1215 l 868 1215 l 868 1389 l 521 1389 l 521 1215 "},"`":{"ha":1389,"x_min":521,"x_max":868,"o":"m 694 1389 l 521 1389 l 521 1215 l 694 1215 l 694 1389 m 868 1215 l 694 1215 l 694 1042 l 868 1042 l 868 1215 "},"˝":{"ha":1389,"x_min":174,"x_max":1042,"o":"m 347 1389 l 347 1215 l 521 1215 l 521 1389 l 347 1389 m 1042 1389 l 868 1389 l 868 1215 l 1042 1215 l 1042 1389 m 174 1215 l 174 1042 l 347 1042 l 347 1215 l 174 1215 m 694 1215 l 694 1042 l 868 1042 l 868 1215 l 694 1215 "},"¯":{"ha":1389,"x_min":174,"x_max":1042,"o":"m 174 1215 l 1042 1215 l 1042 1389 l 174 1389 l 174 1215 "},"˛":{"ha":1389,"x_min":347,"x_max":868,"o":"m 694 347 l 694 521 l 521 521 l 521 347 l 694 347 m 521 347 l 347 347 l 347 174 l 521 174 l 521 347 m 868 174 l 521 174 l 521 0 l 868 0 l 868 174 "},"˚":{"ha":1389,"x_min":174,"x_max":1042,"o":"m 347 868 l 868 868 l 868 1042 l 1042 1042 l 1042 1215 l 868 1215 l 868 1389 l 347 1389 l 347 1215 l 174 1215 l 174 1042 l 347 1042 l 347 868 m 521 1042 l 521 1215 l 694 1215 l 694 1042 l 521 1042 "},"˜":{"ha":1389,"x_min":174,"x_max":1042,"o":"m 694 1215 l 694 1389 l 347 1389 l 347 1215 l 521 1215 l 521 1042 l 868 1042 l 868 1215 l 694 1215 m 1042 1389 l 868 1389 l 868 1215 l 1042 1215 l 1042 1389 m 174 1215 l 174 1042 l 347 1042 l 347 1215 l 174 1215 "},"΄":{"ha":1389,"x_min":521,"x_max":868,"o":"m 868 1389 l 694 1389 l 694 1215 l 868 1215 l 868 1389 m 521 1215 l 521 1042 l 694 1042 l 694 1215 l 521 1215 "},"΅":{"ha":1389,"x_min":174,"x_max":1215,"o":"m 174 1389 l 174 1215 l 347 1215 l 347 1389 l 174 1389 m 694 1389 l 694 1215 l 868 1215 l 868 1389 l 694 1389 m 1215 1389 l 1042 1389 l 1042 1215 l 1215 1215 l 1215 1389 m 521 1215 l 521 1042 l 694 1042 l 694 1215 l 521 1215 "},"":{"ha":1389,"x_min":174,"x_max":1215,"o":"m 174 174 l 1215 174 l 1215 1389 l 174 1389 l 174 174 m 521 694 l 521 868 l 868 868 l 868 1042 l 347 1042 l 347 1215 l 1042 1215 l 1042 694 l 521 694 m 521 347 l 521 521 l 694 521 l 694 347 l 521 347 "},"":{"ha":1389,"x_min":174,"x_max":1042,"o":"m 174 174 l 1042 174 l 1042 521 l 521 521 l 521 347 l 174 347 l 174 174 "}}}
